<svg version="1.0" xmlns="http://www.w3.org/2000/svg" width="682.667" height="682.667" viewBox="0 0 512 512"><path d="M0 256v256h164.5l2.2-5.8c32.5-86.4 45.5-119.9 55.9-143.7.2-.6-3.1-2.7-7.4-4.7-26.9-12.9-45.6-45-48.9-84.1-4.3-51.7 9.3-97.8 40.5-137.2 8.3-10.5 27.8-29.4 33.9-32.8.8-.5 1 .2.7 2-.8 6-.5 26.2.6 32.8 3.5 22.2 11.4 38.9 24.6 51.7 8 7.8 14.1 11.7 25.9 16.7 20.4 8.7 32.8 18.9 42.6 35 3 4.9 6.4 13.5 7.1 17.6l1.3 6.5c2.2 10.6.4 31.2-3.8 44-7 21.6-20.6 37.1-41.9 47.9l-8.5 4.3 2.7 5.6c3.9 8.1 21.6 53.1 36 91.2 11 29.5 13.6 36.4 16 42.5.4 1.1 1.4 3.6 2.1 5.5.7 1.9 1.7 3.8 2.2 4.1.5.4 37.5.7 82.3.8l81.4.1V0H0v256z"/></svg>