<svg xmlns="http://www.w3.org/2000/svg" xmlns:svg="http://www.w3.org/2000/svg" id="svg4560" width="91mm" height="61mm" version="1.1" viewBox="0 0 322.441 216.142"><metadata id="metadata4565"/><g id="layer1" transform="translate(0,-836.22047)"><rect id="rect4707" width="322.441" height="216.142" x="337.5" y="836.22" fill="#000" fill-opacity="1" fill-rule="evenodd" stroke="none" stroke-dasharray="none" stroke-linecap="butt" stroke-linejoin="round" stroke-miterlimit="4" stroke-opacity="1" stroke-width=".428" opacity="1"/><path id="path4" stroke-width=".156" d="m 192.92535,874.13489 c -1.63289,0 -3.07114,0.2625 -4.31525,0.78736 -1.22467,0.50537 -2.17719,1.23415 -2.85756,2.18667 -0.66094,0.95247 -0.99154,2.06068 -0.99154,3.32429 0,1.34125 0.32071,2.41984 0.96221,3.23629 0.66098,0.79701 1.44844,1.39972 2.36208,1.80794 0.91359,0.38878 2.07017,0.77759 3.4698,1.16638 0.93308,0.25271 1.6522,0.47621 2.15762,0.67061 0.52486,0.17495 0.95266,0.41795 1.28313,0.72898 0.34991,0.31103 0.52481,0.69984 0.52481,1.16638 0,0.56373 -0.2334,0.99154 -0.69994,1.28313 -0.4471,0.29158 -1.06902,0.43739 -1.86603,0.43739 -1.08859,0 -2.34256,-0.29161 -3.76168,-0.87478 -1.39967,-0.58324 -2.61464,-1.33169 -3.64492,-2.24534 l -2.07021,4.16946 c 1.22473,1.03028 2.6731,1.84688 4.34487,2.4495 1.69126,0.58318 3.38241,0.87478 5.07357,0.87478 1.53564,0 2.92562,-0.243 4.16973,-0.72898 1.26355,-0.48598 2.25478,-1.20539 2.97403,-2.15791 0.71925,-0.97196 1.07896,-2.1381 1.07896,-3.49885 0,-1.36079 -0.3306,-2.45935 -0.99153,-3.29524 -0.66094,-0.85537 -1.45776,-1.48714 -2.39085,-1.89536 -0.91359,-0.40822 -2.08001,-0.81653 -3.49913,-1.22475 -0.95252,-0.29159 -1.67164,-0.5247 -2.15762,-0.69966 -0.48598,-0.19439 -0.89429,-0.43739 -1.22475,-0.72898 -0.33047,-0.31103 -0.49577,-0.69023 -0.49577,-1.13733 0,-0.46654 0.1848,-0.81635 0.55414,-1.04963 0.38879,-0.25271 0.91351,-0.37901 1.57444,-0.37901 0.83594,0 1.86617,0.20401 3.09078,0.61223 1.24411,0.40823 2.41054,0.93323 3.49913,1.57472 v 5.7e-4 l 2.01211,-4.25716 c -1.08859,-0.69986 -2.35222,-1.25392 -3.79072,-1.66214 -1.4385,-0.42766 -2.89653,-0.64156 -4.37391,-0.64156 z m -155.720613,0.0538 v 51.80208 h 16.64137 l 0.0188,-0.0379 c 0,0 5.25623,-14.17451 5.95831,-15.21814 0,0 -6.05305,-1.36623 -5.88228,-11.25228 0.17078,-9.88605 7.74177,-14.91458 7.74177,-14.91458 0,0 -1.32827,7.59025 4.68686,10.39857 0,0 5.78751,1.65071 5.69263,7.47609 -0.11385,5.82536 -3.73824,7.57129 -5.59781,8.36823 0.6831,1.00568 5.57871,14.21214 5.93924,15.1609 l 16.6032,0.0191 v -51.80208 z m 70.337943,0.0339 c -2.08004,0 -3.96588,0.45691 -5.65704,1.37055 -1.67177,0.9137 -2.993595,2.16767 -3.965555,3.76168 -0.95252,1.59402 -1.42864,3.38236 -1.42864,5.36516 0,2.00219 0.47612,3.81969 1.42864,5.45258 0.97196,1.6134 2.293785,2.88669 3.965555,3.81977 1.69127,0.91364 3.5771,1.37055 5.65704,1.37055 2.08005,0 3.95594,-0.46652 5.62771,-1.3996 1.69121,-0.93308 3.01305,-2.20636 3.96557,-3.81976 0.97196,-1.61351 1.45797,-3.42135 1.45797,-5.42354 0,-1.9828 -0.48601,-3.77143 -1.45797,-5.36544 -0.95258,-1.59407 -2.27441,-2.84775 -3.96557,-3.7614 -1.67177,-0.91364 -3.54766,-1.37055 -5.62771,-1.37055 z m 0.0581,4.51971 c 1.0109,0 1.93426,0.26222 2.77015,0.78708 0.85537,0.5248 1.52613,1.25387 2.01211,2.18695 0.48598,0.91359 0.72899,1.92432 0.72899,3.03241 0,1.12747 -0.24301,2.1577 -0.72899,3.09078 -0.48603,0.91359 -1.15679,1.64266 -2.01211,2.18696 -0.83594,0.52486 -1.75931,0.78736 -2.77015,0.78736 -1.01083,0 -1.94386,-0.2625 -2.79918,-0.78736 -0.85528,-0.54425 -1.54535,-1.27331 -2.07021,-2.18696 -0.50542,-0.93308 -0.75831,-1.96331 -0.75831,-3.09078 0,-1.10803 0.25289,-2.11876 0.75831,-3.03241 0.50542,-0.93303 1.18584,-1.66209 2.04116,-2.18695 0.87482,-0.52486 1.8174,-0.78708 2.82823,-0.78708 z m 61.6636,0.26198 c -1.14696,0 -2.16753,0.2334 -3.06173,0.69994 -0.87477,0.46649 -1.59389,1.15656 -2.15763,2.0702 v -2.56597 h -5.19032 v 15.77513 h 5.19032 v -8.33919 c 0.0972,-0.89421 0.41791,-1.61362 0.9622,-2.15791 0.56379,-0.5443 1.27326,-0.82602 2.12858,-0.84546 0.8164,0 1.46748,0.26222 1.95346,0.78708 0.48598,0.50542 0.72898,1.20533 0.72898,2.09954 v 8.45594 h 5.16127 v -9.94296 c 0,-1.84667 -0.52472,-3.31436 -1.57443,-4.40296 -1.03023,-1.08859 -2.41056,-1.63309 -4.1407,-1.63309 z m 82.83208,8.6e-4 c -1.10804,0 -2.09955,0.243 -2.97432,0.72898 -0.85526,0.48594 -1.55497,1.18543 -2.09925,2.09896 v -2.62434 h -5.19032 v 15.77541 h 5.19032 v -8.04789 c 0.11664,-0.99139 0.55376,-1.76901 1.31189,-2.33275 0.75818,-0.58317 1.7497,-0.87478 2.97432,-0.87478 0.3499,0 0.6124,0.01 0.78736,0.029 z m 9.14506,0.0285 c -1.6134,0 -3.0421,0.34021 -4.28621,1.02058 -1.22467,0.66093 -2.17719,1.61346 -2.85756,2.85757 -0.68037,1.22472 -1.02058,2.64375 -1.02058,4.25715 0,1.59402 0.3306,2.99356 0.99153,4.19879 0.68043,1.20523 1.63295,2.13854 2.85757,2.79947 1.22472,0.66093 2.64376,0.99125 4.25716,0.99125 1.67177,0 3.12951,-0.33032 4.37362,-0.99125 1.24411,-0.66093 2.17742,-1.59424 2.79948,-2.79947 l -3.81977,-2.18667 c -0.62205,1.18584 -1.65228,1.77861 -3.09078,1.77861 -0.93309,0 -1.6912,-0.34982 -2.27438,-1.04963 -0.58318,-0.69981 -0.87478,-1.62328 -0.87478,-2.77014 0,-1.12748 0.2916,-2.041 0.87478,-2.74081 0.58318,-0.71925 1.34129,-1.07896 2.27438,-1.07896 1.32173,0 2.35182,0.54444 3.09049,1.63281 l 3.76168,-2.18695 c -0.68042,-1.18579 -1.63295,-2.09932 -2.85756,-2.74082 -1.22462,-0.66093 -2.62444,-0.99153 -4.19907,-0.99153 z m -130.00225,5.7e-4 v 2.9e-4 c -1.94392,0 -3.48932,0.7389 -4.63618,2.21628 v -2.04116 h -5.19032 v 21.43131 h 5.19032 v -7.69791 c 0.56374,0.7193 1.24415,1.27336 2.04116,1.66214 0.8165,0.36935 1.72037,0.55386 2.71177,0.55386 1.4385,0 2.70212,-0.33032 3.79072,-0.99125 1.10798,-0.66093 1.95346,-1.59396 2.53664,-2.79919 0.60262,-1.20523 0.90383,-2.60505 0.90383,-4.19907 0,-1.6135 -0.31082,-3.03254 -0.93288,-4.25716 -0.60256,-1.2441 -1.45788,-2.19662 -2.56597,-2.85756 -1.10808,-0.68037 -2.39121,-1.02058 -3.84909,-1.02058 z m 16.95744,0 c -1.63289,0 -3.07142,0.34021 -4.31553,1.02058 -1.24406,0.66094 -2.20624,1.61346 -2.88661,2.85756 -0.68038,1.22473 -1.02058,2.64376 -1.02058,4.25716 0,1.59402 0.3306,2.99384 0.99153,4.19907 0.68032,1.20523 1.65206,2.13826 2.91566,2.79919 1.2636,0.66093 2.74113,0.99125 4.43228,0.99125 1.458,0 2.76033,-0.23311 3.90719,-0.69966 1.16636,-0.48597 2.15787,-1.18589 2.97432,-2.09953 l -2.71177,-2.71177 c -0.52486,0.52486 -1.10807,0.92328 -1.74956,1.19542 -0.62201,0.27215 -1.27337,0.40835 -1.95374,0.40835 -0.89421,0 -1.65232,-0.2334 -2.27438,-0.69994 -0.62205,-0.48593 -1.05946,-1.176 -1.31217,-2.0702 h 10.96382 c 0.0194,-0.21384 0.029,-0.52494 0.029,-0.93316 0,-2.64373 -0.69007,-4.72368 -2.07021,-6.23994 -1.38013,-1.51626 -3.35304,-2.27438 -5.91901,-2.27438 z m 62.9678,0 c -1.71065,0 -3.21733,0.34021 -4.51971,1.02058 -1.30242,0.66104 -2.31315,1.6039 -3.0324,2.82852 -0.69981,1.20523 -1.04963,2.60477 -1.04963,4.19878 0,1.61351 0.34982,3.03254 1.04963,4.25716 0.7193,1.20528 1.73003,2.14815 3.0324,2.82852 1.30238,0.66093 2.80906,0.99153 4.51971,0.99153 1.71065,0 3.21705,-0.3306 4.51942,-0.99153 1.30243,-0.68042 2.31316,-1.62329 3.03241,-2.82852 0.71925,-1.22472 1.07896,-2.64376 1.07896,-4.25716 0,-1.59401 -0.35971,-2.99355 -1.07896,-4.19878 -0.7193,-1.22472 -1.73003,-2.16758 -3.03241,-2.82852 -1.30237,-0.68037 -2.80877,-1.02058 -4.51942,-1.02058 z m 66.08222,0 c -1.63289,0 -3.07143,0.34021 -4.31554,1.02058 -1.24406,0.66094 -2.20624,1.61346 -2.88661,2.85756 -0.68037,1.22473 -1.02058,2.64376 -1.02058,4.25716 0,1.59402 0.33032,2.99384 0.99125,4.19907 0.68032,1.20523 1.65234,2.13826 2.91594,2.79919 1.2636,0.66093 2.74085,0.99125 4.432,0.99125 1.458,0 2.76062,-0.23311 3.90748,-0.69966 1.16635,-0.48597 2.15758,-1.18589 2.97403,-2.09953 l -2.71177,-2.71177 c -0.52486,0.52486 -1.10807,0.92328 -1.74956,1.19542 -0.622,0.27215 -1.27308,0.40835 -1.95345,0.40835 -0.89421,0 -1.65233,-0.2334 -2.27438,-0.69994 -0.62206,-0.48593 -1.05946,-1.176 -1.31217,-2.0702 h 10.96353 c 0.0194,-0.21384 0.0293,-0.52494 0.0293,-0.93316 0,-2.64373 -0.69007,-4.72368 -2.0702,-6.23994 -1.38013,-1.51626 -3.35333,-2.27438 -5.9193,-2.27438 z m -55.24483,0.17484 v 9.97229 c 0,1.82718 0.50551,3.29459 1.51635,4.40267 1.03033,1.0886 2.40071,1.6331 4.11136,1.6331 2.29393,-0.0389 3.9757,-0.97219 5.0448,-2.79947 v 2.56597 h 5.19004 v -15.77456 h -5.19032 v 7.78505 c 0,1.04972 -0.26251,1.90504 -0.78736,2.56597 -0.52486,0.6415 -1.24398,0.9721 -2.15763,0.99154 -0.77757,0 -1.39977,-0.25261 -1.86631,-0.75803 -0.4471,-0.50542 -0.67061,-1.20534 -0.67061,-2.09954 v -8.48499 z m -73.77557,3.47009 c 0.87476,0 1.57439,0.282 2.09925,0.84573 0.5443,0.54425 0.8164,1.27332 0.8164,2.18696 h -6.06481 c 0.17495,-0.93308 0.53466,-1.67171 1.07895,-2.216 0.56369,-0.5443 1.25376,-0.81669 2.07021,-0.81669 z m 129.04973,0 c 0.87476,0 1.57467,0.282 2.09953,0.84573 0.5443,0.54425 0.81641,1.27332 0.81641,2.18696 h -6.0651 c 0.17495,-0.93308 0.53466,-1.67171 1.07895,-2.216 0.56369,-0.5443 1.25376,-0.81669 2.07021,-0.81669 z m -147.31964,0.43739 c 1.01084,0 1.82717,0.36931 2.44922,1.108 0.6415,0.71925 0.96221,1.66211 0.96221,2.82852 0,1.1664 -0.32071,2.10898 -0.96221,2.82823 -0.62205,0.71925 -1.43838,1.07896 -2.44922,1.07896 -0.99135,0 -1.79812,-0.35971 -2.42017,-1.07896 -0.62206,-0.71925 -0.93316,-1.66183 -0.93316,-2.82823 0,-1.16641 0.3111,-2.10927 0.93316,-2.82852 0.622,-0.73869 1.42877,-1.108 2.42017,-1.108 z m 81.20809,0.11675 c 1.01084,0 1.82717,0.35942 2.44922,1.07867 0.64149,0.7193 0.96249,1.66217 0.96249,2.82852 0,1.18579 -0.31111,2.13831 -0.93316,2.85756 -0.62211,0.71925 -1.44827,1.07896 -2.47855,1.07896 -1.01084,0 -1.82745,-0.35971 -2.4495,-1.07896 -0.62206,-0.7192 -0.93288,-1.67172 -0.93287,-2.85756 -1e-5,-1.16641 0.31081,-2.10927 0.93287,-2.82852 0.62205,-0.71925 1.43866,-1.07867 2.4495,-1.07867 z m -57.03084,19.81786 c -0.79701,0 -1.45792,0.2625 -1.98278,0.78736 -0.50542,0.50542 -0.75803,1.16633 -0.75803,1.98278 0,0.79701 0.25261,1.45793 0.75803,1.98278 0.52486,0.52486 1.18577,0.78737 1.98278,0.78737 0.79696,0 1.44832,-0.26251 1.95374,-0.78737 0.52486,-0.52485 0.78707,-1.18577 0.78707,-1.98278 0,-0.81645 -0.26221,-1.47736 -0.78707,-1.98278 -0.50537,-0.52486 -1.15673,-0.78736 -1.95374,-0.78736 z m -57.561055,2.59473 v 20.44091 h 8.601735 c 2.17719,0 4.10173,-0.4278 5.7735,-1.28312 1.69121,-0.85533 2.99355,-2.06046 3.90719,-3.6156 0.93308,-1.55514 1.3996,-3.33393 1.3996,-5.33611 0,-2.00229 -0.45691,-3.77114 -1.37055,-5.30679 -0.9136,-1.55513 -2.19643,-2.76055 -3.84882,-3.61588 -1.63289,-0.85532 -3.51844,-1.28284 -5.65675,-1.28284 v -5.7e-4 z m 5.336105,4.34572 h 3.35305 c 1.06915,0 2.02168,0.25261 2.85756,0.75803 0.83584,0.48593 1.4872,1.176 1.95374,2.0702 0.48598,0.89421 0.72898,1.92443 0.72898,3.09079 0,1.14696 -0.22379,2.16753 -0.67089,3.06173 -0.4471,0.89416 -1.06902,1.58423 -1.86603,2.07021 -0.79701,0.48598 -1.71054,0.72898 -2.74081,0.72898 v 2.9e-4 h -3.6156 z m 40.30491,0.0869 c -1.90505,0 -3.46028,0.45662 -4.66551,1.37027 -1.20523,0.8942 -1.80794,2.13833 -1.80794,3.73234 0,1.03028 0.2625,1.8661 0.78736,2.5076 0.54435,0.64149 1.17611,1.1275 1.89536,1.45797 0.7192,0.31102 1.63273,0.63173 2.74081,0.9622 0.93309,0.25271 1.6135,0.48611 2.04116,0.69994 0.44711,0.21383 0.67061,0.51504 0.67061,0.90383 0,0.31102 -0.15541,0.55403 -0.46643,0.72898 -0.29159,0.15552 -0.69001,0.23322 -1.19542,0.23322 -0.87477,0 -1.8078,-0.16501 -2.79919,-0.49548 -0.97196,-0.34991 -1.90528,-0.83592 -2.79948,-1.45797 l -1.63281,3.35305 c 0.95257,0.73869 2.04129,1.3024 3.26591,1.69118 1.22462,0.36935 2.50746,0.55415 3.84881,0.55415 1.9829,0 3.58669,-0.44702 4.8113,-1.34122 1.24411,-0.9137 1.86632,-2.16766 1.86632,-3.76168 0,-1.04966 -0.27239,-1.89515 -0.81669,-2.53664 -0.54425,-0.66093 -1.19532,-1.14694 -1.95345,-1.45797 -0.73869,-0.33047 -1.67172,-0.66107 -2.79919,-0.99153 -0.93308,-0.25271 -1.6135,-0.48583 -2.04116,-0.69966 -0.42766,-0.21383 -0.64156,-0.49583 -0.64156,-0.84573 0,-0.33047 0.13619,-0.57348 0.40834,-0.72899 0.27215,-0.17495 0.63186,-0.26226 1.07896,-0.26226 1.30237,0 2.97402,0.53437 5.01519,1.60348 l 1.74928,-3.38209 c -0.99146,-0.60262 -2.05073,-1.05953 -3.17821,-1.37055 -1.10808,-0.31103 -2.23552,-0.46644 -3.38237,-0.46644 z m 47.81088,0.0293 c -1.14696,0 -2.16753,0.2334 -3.06174,0.69994 -0.87476,0.46649 -1.59417,1.15656 -2.15791,2.0702 v -2.56597 h -5.19031 v 15.77513 h 5.19031 v -8.33948 c 0.0972,-0.8942 0.41791,-1.61333 0.96221,-2.15762 0.56379,-0.5443 1.27354,-0.8263 2.12886,-0.84574 0.8164,0 1.46748,0.2625 1.95346,0.78736 0.48598,0.50542 0.72898,1.20533 0.72898,2.09954 v 8.45594 h 5.16127 v -9.94325 c 0,-1.84667 -0.525,-3.31436 -1.57472,-4.40295 -1.03023,-1.0886 -2.41027,-1.63281 -4.14041,-1.63281 z m -23.98218,0.0291 c -1.28299,0 -2.42992,0.31082 -3.44076,0.93287 -1.01089,0.62205 -1.79834,1.49687 -2.36208,2.62435 -0.5443,1.12747 -0.81641,2.42981 -0.81641,3.90719 0,1.49687 0.282,2.82854 0.84574,3.99489 0.58318,1.14691 1.38001,2.04123 2.39084,2.68272 1.03033,0.62206 2.19676,0.93316 3.49913,0.93316 1.94392,0 3.44066,-0.69007 4.49038,-2.0702 v 1.69119 c 0,0.93308 -0.33992,1.6717 -1.02029,2.216 -0.68032,0.54429 -1.6038,0.8164 -2.77015,0.8164 -0.85527,0 -1.70075,-0.13591 -2.53664,-0.40806 -0.83588,-0.27215 -1.6135,-0.65135 -2.33275,-1.13733 l -1.80794,3.58655 c 0.93308,0.62206 2.01196,1.11767 3.23658,1.48702 1.22462,0.36934 2.4979,0.55414 3.81977,0.55414 1.69126,0 3.17834,-0.3015 4.46133,-0.90411 1.30243,-0.58307 2.31316,-1.42856 3.03241,-2.53664 0.71925,-1.0886 1.07895,-2.36188 1.07895,-3.81977 v -14.37525 -2.8e-4 h -5.16099 v 1.92441 c -0.52485,-0.68038 -1.18577,-1.19549 -1.98278,-1.5454 -0.77757,-0.36934 -1.65238,-0.55385 -2.62434,-0.55385 z m -40.19869,8.5e-4 c -1.6329,0 -3.07143,0.34021 -4.31554,1.02058 -1.24405,0.66093 -2.20623,1.61346 -2.88661,2.85756 -0.68037,1.22473 -1.02058,2.64376 -1.02058,4.25716 0,1.59402 0.3306,2.99356 0.99154,4.19879 0.68032,1.20523 1.65234,2.13825 2.91594,2.79919 1.2636,0.66093 2.74084,0.99153 4.432,0.99153 1.45799,0 2.76061,-0.2334 3.90747,-0.69994 1.16635,-0.48598 2.15759,-1.18561 2.97403,-2.09925 l -2.71176,-2.71205 c -0.52486,0.52486 -1.10807,0.92356 -1.74957,1.19571 -0.622,0.27214 -1.27308,0.40806 -1.95345,0.40806 -0.8942,0 -1.65232,-0.23312 -2.27438,-0.69966 -0.62205,-0.48593 -1.05946,-1.176 -1.31217,-2.0702 h 10.96354 c 0.0194,-0.21383 0.0293,-0.52494 0.0293,-0.93316 0,-2.64373 -0.69007,-4.72368 -2.07021,-6.23994 -1.38013,-1.51626 -3.35332,-2.27438 -5.9193,-2.27438 z m 25.75339,0.17427 v 15.77513 h 5.16127 v -15.77513 z m -25.72378,3.47066 c 0.87477,0 1.57439,0.282 2.09925,0.84573 0.5443,0.54425 0.81669,1.27303 0.81669,2.18667 v 2.9e-4 h -6.0651 c 0.17496,-0.93308 0.53466,-1.67199 1.07896,-2.21629 0.56368,-0.54429 1.25376,-0.8164 2.0702,-0.8164 z m 41.59772,0.26169 c 0.95246,0 1.72053,0.34021 2.3037,1.02058 0.58318,0.68032 0.8745,1.57464 0.8745,2.68272 0,1.08855 -0.29132,1.97274 -0.8745,2.65311 -0.58312,0.68037 -1.35118,1.02058 -2.3037,1.02058 -0.95253,0 -1.72986,-0.34021 -2.33247,-1.02058 -0.58318,-0.68037 -0.87478,-1.56485 -0.87478,-2.65339 0,-1.08855 0.2916,-1.97302 0.87478,-2.65339 0.60261,-0.69982 1.37994,-1.04963 2.33247,-1.04963 z"/><flowRoot id="flowRoot4635" fill="#000" fill-opacity="1" stroke="none" stroke-linecap="butt" stroke-linejoin="miter" stroke-opacity="1" stroke-width="1" font-family="Open Sans" font-stretch="normal" font-style="normal" font-variant="normal" font-weight="normal" letter-spacing="-121.889" text-anchor="start" transform="matrix(0.43733198,0,0,0.43733198,420.53672,190.07612)" word-spacing="0" writing-mode="lr-tb" xml:space="preserve" style="line-height:129.99999523%;-inkscape-font-specification:'Open Sans, Normal';text-align:start"><flowRegion style="line-height:129.99999523%" id="flowRegion4629" fill="#000" fill-opacity="1"><rect id="rect4627" width="604.556" height="367.333" x="-876.745" y="1754.259" fill="#000" fill-opacity="1" style="line-height:129.99999523%"/></flowRegion><flowPara font-style="normal" style="line-height:150%;-inkscape-font-specification:'Source Sans Pro Semi-Bold';text-align:start" id="flowPara4503" fill="#000" fill-opacity="1" font-family="Source Sans Pro" font-size="31.441" font-stretch="normal" font-variant="normal" font-weight="600" letter-spacing="0" text-anchor="start">Want to help design open source projects</flowPara><flowPara font-style="normal" style="line-height:150%;-inkscape-font-specification:'Source Sans Pro Semi-Bold';text-align:start" id="flowPara4500" fill="#000" fill-opacity="1" font-family="Source Sans Pro" font-size="31.441" font-stretch="normal" font-variant="normal" font-weight="600" letter-spacing="0" text-anchor="start">or find a design job in open source?</flowPara><flowPara font-style="normal" style="line-height:150%;-inkscape-font-specification:'Source Sans Pro Light';text-align:start" id="flowPara4633" fill="#000" fill-opacity="1" font-family="Source Sans Pro" font-size="31.441" font-stretch="normal" font-variant="normal" font-weight="300" letter-spacing="0" text-anchor="start">opensourcedesign.net/jobs</flowPara></flowRoot><path id="path4637" fill="#fff" fill-opacity="1" stroke-width=".156" d="m 530.42535,874.13489 c -1.63289,0 -3.07114,0.2625 -4.31525,0.78736 -1.22467,0.50537 -2.17719,1.23415 -2.85756,2.18667 -0.66094,0.95247 -0.99154,2.06068 -0.99154,3.32429 0,1.34125 0.32071,2.41984 0.96221,3.23629 0.66098,0.79701 1.44844,1.39972 2.36208,1.80794 0.91359,0.38878 2.07017,0.77759 3.4698,1.16638 0.93308,0.25271 1.6522,0.47621 2.15762,0.67061 0.52486,0.17495 0.95266,0.41795 1.28313,0.72898 0.34991,0.31103 0.52481,0.69984 0.52481,1.16638 0,0.56373 -0.2334,0.99154 -0.69994,1.28313 -0.4471,0.29158 -1.06902,0.43739 -1.86603,0.43739 -1.08859,0 -2.34256,-0.29161 -3.76168,-0.87478 -1.39967,-0.58324 -2.61464,-1.33169 -3.64492,-2.24534 l -2.07021,4.16946 c 1.22473,1.03028 2.6731,1.84688 4.34487,2.4495 1.69126,0.58318 3.38241,0.87478 5.07357,0.87478 1.53564,0 2.92562,-0.243 4.16973,-0.72898 1.26355,-0.48598 2.25478,-1.20539 2.97403,-2.15791 0.71925,-0.97196 1.07896,-2.1381 1.07896,-3.49885 0,-1.36079 -0.3306,-2.45935 -0.99153,-3.29524 -0.66094,-0.85537 -1.45776,-1.48714 -2.39085,-1.89536 -0.91359,-0.40822 -2.08001,-0.81653 -3.49913,-1.22475 -0.95252,-0.29159 -1.67164,-0.5247 -2.15762,-0.69966 -0.48598,-0.19439 -0.89429,-0.43739 -1.22475,-0.72898 -0.33047,-0.31103 -0.49577,-0.69023 -0.49577,-1.13733 0,-0.46654 0.1848,-0.81635 0.55414,-1.04963 0.38879,-0.25271 0.91351,-0.37901 1.57444,-0.37901 0.83594,0 1.86617,0.20401 3.09078,0.61223 1.24411,0.40823 2.41054,0.93323 3.49913,1.57472 v 5.7e-4 l 2.01211,-4.25716 c -1.08859,-0.69986 -2.35222,-1.25392 -3.79072,-1.66214 -1.4385,-0.42766 -2.89653,-0.64156 -4.37391,-0.64156 z m -155.72061,0.0538 v 51.80208 h 16.64137 l 0.0188,-0.0379 c 0,0 5.25623,-14.17451 5.95831,-15.21814 0,0 -6.05305,-1.36623 -5.88228,-11.25228 0.17078,-9.88605 7.74177,-14.91458 7.74177,-14.91458 0,0 -1.32827,7.59025 4.68686,10.39857 0,0 5.78751,1.65071 5.69263,7.47609 -0.11385,5.82536 -3.73824,7.57129 -5.59781,8.36823 0.6831,1.00568 5.57871,14.21214 5.93924,15.1609 l 16.6032,0.0191 v -51.80208 z m 70.33794,0.0339 c -2.08004,0 -3.96588,0.45691 -5.65704,1.37055 -1.67177,0.9137 -2.9936,2.16767 -3.96556,3.76168 -0.95252,1.59402 -1.42864,3.38236 -1.42864,5.36516 0,2.00219 0.47612,3.81969 1.42864,5.45258 0.97196,1.6134 2.29379,2.88669 3.96556,3.81977 1.69127,0.91364 3.5771,1.37055 5.65704,1.37055 2.08005,0 3.95594,-0.46652 5.62771,-1.3996 1.69121,-0.93308 3.01305,-2.20636 3.96557,-3.81976 0.97196,-1.61351 1.45797,-3.42135 1.45797,-5.42354 0,-1.9828 -0.48601,-3.77143 -1.45797,-5.36544 -0.95258,-1.59407 -2.27441,-2.84775 -3.96557,-3.7614 -1.67177,-0.91364 -3.54766,-1.37055 -5.62771,-1.37055 z m 0.0581,4.51971 c 1.0109,0 1.93426,0.26222 2.77015,0.78708 0.85537,0.5248 1.52613,1.25387 2.01211,2.18695 0.48598,0.91359 0.72899,1.92432 0.72899,3.03241 0,1.12747 -0.24301,2.1577 -0.72899,3.09078 -0.48603,0.91359 -1.15679,1.64266 -2.01211,2.18696 -0.83594,0.52486 -1.75931,0.78736 -2.77015,0.78736 -1.01083,0 -1.94386,-0.2625 -2.79918,-0.78736 -0.85528,-0.54425 -1.54535,-1.27331 -2.07021,-2.18696 -0.50542,-0.93308 -0.75831,-1.96331 -0.75831,-3.09078 0,-1.10803 0.25289,-2.11876 0.75831,-3.03241 0.50542,-0.93303 1.18584,-1.66209 2.04116,-2.18695 0.87482,-0.52486 1.8174,-0.78708 2.82823,-0.78708 z m 61.6636,0.26198 c -1.14696,0 -2.16753,0.2334 -3.06173,0.69994 -0.87477,0.46649 -1.59389,1.15656 -2.15763,2.0702 v -2.56597 h -5.19032 v 15.77513 h 5.19032 v -8.33919 c 0.0972,-0.89421 0.41791,-1.61362 0.9622,-2.15791 0.56379,-0.5443 1.27326,-0.82602 2.12858,-0.84546 0.8164,0 1.46748,0.26222 1.95346,0.78708 0.48598,0.50542 0.72898,1.20533 0.72898,2.09954 v 8.45594 h 5.16127 v -9.94296 c 0,-1.84667 -0.52472,-3.31436 -1.57443,-4.40296 -1.03023,-1.08859 -2.41056,-1.63309 -4.1407,-1.63309 z m 82.83208,8.6e-4 c -1.10804,0 -2.09955,0.243 -2.97432,0.72898 -0.85526,0.48594 -1.55497,1.18543 -2.09925,2.09896 v -2.62434 h -5.19032 v 15.77541 h 5.19032 v -8.04789 c 0.11664,-0.99139 0.55376,-1.76901 1.31189,-2.33275 0.75818,-0.58317 1.7497,-0.87478 2.97432,-0.87478 0.3499,0 0.6124,0.01 0.78736,0.029 z m 9.14506,0.0285 c -1.6134,0 -3.0421,0.34021 -4.28621,1.02058 -1.22467,0.66093 -2.17719,1.61346 -2.85756,2.85757 -0.68037,1.22472 -1.02058,2.64375 -1.02058,4.25715 0,1.59402 0.3306,2.99356 0.99153,4.19879 0.68043,1.20523 1.63295,2.13854 2.85757,2.79947 1.22472,0.66093 2.64376,0.99125 4.25716,0.99125 1.67177,0 3.12951,-0.33032 4.37362,-0.99125 1.24411,-0.66093 2.17742,-1.59424 2.79948,-2.79947 l -3.81977,-2.18667 c -0.62205,1.18584 -1.65228,1.77861 -3.09078,1.77861 -0.93309,0 -1.6912,-0.34982 -2.27438,-1.04963 -0.58318,-0.69981 -0.87478,-1.62328 -0.87478,-2.77014 0,-1.12748 0.2916,-2.041 0.87478,-2.74081 0.58318,-0.71925 1.34129,-1.07896 2.27438,-1.07896 1.32173,0 2.35182,0.54444 3.09049,1.63281 l 3.76168,-2.18695 c -0.68042,-1.18579 -1.63295,-2.09932 -2.85756,-2.74082 -1.22462,-0.66093 -2.62444,-0.99153 -4.19907,-0.99153 z m -130.00225,5.7e-4 v 2.9e-4 c -1.94392,0 -3.48932,0.7389 -4.63618,2.21628 v -2.04116 h -5.19032 v 21.43131 h 5.19032 v -7.69791 c 0.56374,0.7193 1.24415,1.27336 2.04116,1.66214 0.8165,0.36935 1.72037,0.55386 2.71177,0.55386 1.4385,0 2.70212,-0.33032 3.79072,-0.99125 1.10798,-0.66093 1.95346,-1.59396 2.53664,-2.79919 0.60262,-1.20523 0.90383,-2.60505 0.90383,-4.19907 0,-1.6135 -0.31082,-3.03254 -0.93288,-4.25716 -0.60256,-1.2441 -1.45788,-2.19662 -2.56597,-2.85756 -1.10808,-0.68037 -2.39121,-1.02058 -3.84909,-1.02058 z m 16.95744,0 c -1.63289,0 -3.07142,0.34021 -4.31553,1.02058 -1.24406,0.66094 -2.20624,1.61346 -2.88661,2.85756 -0.68038,1.22473 -1.02058,2.64376 -1.02058,4.25716 0,1.59402 0.3306,2.99384 0.99153,4.19907 0.68032,1.20523 1.65206,2.13826 2.91566,2.79919 1.2636,0.66093 2.74113,0.99125 4.43228,0.99125 1.458,0 2.76033,-0.23311 3.90719,-0.69966 1.16636,-0.48597 2.15787,-1.18589 2.97432,-2.09953 l -2.71177,-2.71177 c -0.52486,0.52486 -1.10807,0.92328 -1.74956,1.19542 -0.62201,0.27215 -1.27337,0.40835 -1.95374,0.40835 -0.89421,0 -1.65232,-0.2334 -2.27438,-0.69994 -0.62205,-0.48593 -1.05946,-1.176 -1.31217,-2.0702 h 10.96382 c 0.0194,-0.21384 0.029,-0.52494 0.029,-0.93316 0,-2.64373 -0.69007,-4.72368 -2.07021,-6.23994 -1.38013,-1.51626 -3.35304,-2.27438 -5.91901,-2.27438 z m 62.9678,0 c -1.71065,0 -3.21733,0.34021 -4.51971,1.02058 -1.30242,0.66104 -2.31315,1.6039 -3.0324,2.82852 -0.69981,1.20523 -1.04963,2.60477 -1.04963,4.19878 0,1.61351 0.34982,3.03254 1.04963,4.25716 0.7193,1.20528 1.73003,2.14815 3.0324,2.82852 1.30238,0.66093 2.80906,0.99153 4.51971,0.99153 1.71065,0 3.21705,-0.3306 4.51942,-0.99153 1.30243,-0.68042 2.31316,-1.62329 3.03241,-2.82852 0.71925,-1.22472 1.07896,-2.64376 1.07896,-4.25716 0,-1.59401 -0.35971,-2.99355 -1.07896,-4.19878 -0.7193,-1.22472 -1.73003,-2.16758 -3.03241,-2.82852 -1.30237,-0.68037 -2.80877,-1.02058 -4.51942,-1.02058 z m 66.08222,0 c -1.63289,0 -3.07143,0.34021 -4.31554,1.02058 -1.24406,0.66094 -2.20624,1.61346 -2.88661,2.85756 -0.68037,1.22473 -1.02058,2.64376 -1.02058,4.25716 0,1.59402 0.33032,2.99384 0.99125,4.19907 0.68032,1.20523 1.65234,2.13826 2.91594,2.79919 1.2636,0.66093 2.74085,0.99125 4.432,0.99125 1.458,0 2.76062,-0.23311 3.90748,-0.69966 1.16635,-0.48597 2.15758,-1.18589 2.97403,-2.09953 l -2.71177,-2.71177 c -0.52486,0.52486 -1.10807,0.92328 -1.74956,1.19542 -0.622,0.27215 -1.27308,0.40835 -1.95345,0.40835 -0.89421,0 -1.65233,-0.2334 -2.27438,-0.69994 -0.62206,-0.48593 -1.05946,-1.176 -1.31217,-2.0702 h 10.96353 c 0.0194,-0.21384 0.0293,-0.52494 0.0293,-0.93316 0,-2.64373 -0.69007,-4.72368 -2.0702,-6.23994 -1.38013,-1.51626 -3.35333,-2.27438 -5.9193,-2.27438 z m -55.24483,0.17484 v 9.97229 c 0,1.82718 0.50551,3.29459 1.51635,4.40267 1.03033,1.0886 2.40071,1.6331 4.11136,1.6331 2.29393,-0.0389 3.9757,-0.97219 5.0448,-2.79947 v 2.56597 h 5.19004 v -15.77456 h -5.19032 v 7.78505 c 0,1.04972 -0.26251,1.90504 -0.78736,2.56597 -0.52486,0.6415 -1.24398,0.9721 -2.15763,0.99154 -0.77757,0 -1.39977,-0.25261 -1.86631,-0.75803 -0.4471,-0.50542 -0.67061,-1.20534 -0.67061,-2.09954 v -8.48499 z m -73.77557,3.47009 c 0.87476,0 1.57439,0.282 2.09925,0.84573 0.5443,0.54425 0.8164,1.27332 0.8164,2.18696 h -6.06481 c 0.17495,-0.93308 0.53466,-1.67171 1.07895,-2.216 0.56369,-0.5443 1.25376,-0.81669 2.07021,-0.81669 z m 129.04973,0 c 0.87476,0 1.57467,0.282 2.09953,0.84573 0.5443,0.54425 0.81641,1.27332 0.81641,2.18696 h -6.0651 c 0.17495,-0.93308 0.53466,-1.67171 1.07895,-2.216 0.56369,-0.5443 1.25376,-0.81669 2.07021,-0.81669 z m -147.31964,0.43739 c 1.01084,0 1.82717,0.36931 2.44922,1.108 0.6415,0.71925 0.96221,1.66211 0.96221,2.82852 0,1.1664 -0.32071,2.10898 -0.96221,2.82823 -0.62205,0.71925 -1.43838,1.07896 -2.44922,1.07896 -0.99135,0 -1.79812,-0.35971 -2.42017,-1.07896 -0.62206,-0.71925 -0.93316,-1.66183 -0.93316,-2.82823 0,-1.16641 0.3111,-2.10927 0.93316,-2.82852 0.622,-0.73869 1.42877,-1.108 2.42017,-1.108 z m 81.20809,0.11675 c 1.01084,0 1.82717,0.35942 2.44922,1.07867 0.64149,0.7193 0.96249,1.66217 0.96249,2.82852 0,1.18579 -0.31111,2.13831 -0.93316,2.85756 -0.62211,0.71925 -1.44827,1.07896 -2.47855,1.07896 -1.01084,0 -1.82745,-0.35971 -2.4495,-1.07896 -0.62206,-0.7192 -0.93288,-1.67172 -0.93287,-2.85756 -10e-6,-1.16641 0.31081,-2.10927 0.93287,-2.82852 0.62205,-0.71925 1.43866,-1.07867 2.4495,-1.07867 z m -57.03084,19.81786 c -0.79701,0 -1.45792,0.2625 -1.98278,0.78736 -0.50542,0.50542 -0.75803,1.16633 -0.75803,1.98278 0,0.79701 0.25261,1.45793 0.75803,1.98278 0.52486,0.52486 1.18577,0.78737 1.98278,0.78737 0.79696,0 1.44832,-0.26251 1.95374,-0.78737 0.52486,-0.52485 0.78707,-1.18577 0.78707,-1.98278 0,-0.81645 -0.26221,-1.47736 -0.78707,-1.98278 -0.50537,-0.52486 -1.15673,-0.78736 -1.95374,-0.78736 z m -57.56106,2.59473 v 20.44091 h 8.60174 c 2.17719,0 4.10173,-0.4278 5.7735,-1.28312 1.69121,-0.85533 2.99355,-2.06046 3.90719,-3.6156 0.93308,-1.55514 1.3996,-3.33393 1.3996,-5.33611 0,-2.00229 -0.45691,-3.77114 -1.37055,-5.30679 -0.9136,-1.55513 -2.19643,-2.76055 -3.84882,-3.61588 -1.63289,-0.85532 -3.51844,-1.28284 -5.65675,-1.28284 v -5.7e-4 z m 5.33611,4.34572 h 3.35305 c 1.06915,0 2.02168,0.25261 2.85756,0.75803 0.83584,0.48593 1.4872,1.176 1.95374,2.0702 0.48598,0.89421 0.72898,1.92443 0.72898,3.09079 0,1.14696 -0.22379,2.16753 -0.67089,3.06173 -0.4471,0.89416 -1.06902,1.58423 -1.86603,2.07021 -0.79701,0.48598 -1.71054,0.72898 -2.74081,0.72898 v 2.9e-4 h -3.6156 z m 40.30491,0.0869 c -1.90505,0 -3.46028,0.45662 -4.66551,1.37027 -1.20523,0.8942 -1.80794,2.13833 -1.80794,3.73234 0,1.03028 0.2625,1.8661 0.78736,2.5076 0.54435,0.64149 1.17611,1.1275 1.89536,1.45797 0.7192,0.31102 1.63273,0.63173 2.74081,0.9622 0.93309,0.25271 1.6135,0.48611 2.04116,0.69994 0.44711,0.21383 0.67061,0.51504 0.67061,0.90383 0,0.31102 -0.15541,0.55403 -0.46643,0.72898 -0.29159,0.15552 -0.69001,0.23322 -1.19542,0.23322 -0.87477,0 -1.8078,-0.16501 -2.79919,-0.49548 -0.97196,-0.34991 -1.90528,-0.83592 -2.79948,-1.45797 l -1.63281,3.35305 c 0.95257,0.73869 2.04129,1.3024 3.26591,1.69118 1.22462,0.36935 2.50746,0.55415 3.84881,0.55415 1.9829,0 3.58669,-0.44702 4.8113,-1.34122 1.24411,-0.9137 1.86632,-2.16766 1.86632,-3.76168 0,-1.04966 -0.27239,-1.89515 -0.81669,-2.53664 -0.54425,-0.66093 -1.19532,-1.14694 -1.95345,-1.45797 -0.73869,-0.33047 -1.67172,-0.66107 -2.79919,-0.99153 -0.93308,-0.25271 -1.6135,-0.48583 -2.04116,-0.69966 -0.42766,-0.21383 -0.64156,-0.49583 -0.64156,-0.84573 0,-0.33047 0.13619,-0.57348 0.40834,-0.72899 0.27215,-0.17495 0.63186,-0.26226 1.07896,-0.26226 1.30237,0 2.97402,0.53437 5.01519,1.60348 l 1.74928,-3.38209 c -0.99146,-0.60262 -2.05073,-1.05953 -3.17821,-1.37055 -1.10808,-0.31103 -2.23552,-0.46644 -3.38237,-0.46644 z m 47.81088,0.0293 c -1.14696,0 -2.16753,0.2334 -3.06174,0.69994 -0.87476,0.46649 -1.59417,1.15656 -2.15791,2.0702 v -2.56597 h -5.19031 v 15.77513 h 5.19031 v -8.33948 c 0.0972,-0.8942 0.41791,-1.61333 0.96221,-2.15762 0.56379,-0.5443 1.27354,-0.8263 2.12886,-0.84574 0.8164,0 1.46748,0.2625 1.95346,0.78736 0.48598,0.50542 0.72898,1.20533 0.72898,2.09954 v 8.45594 h 5.16127 v -9.94325 c 0,-1.84667 -0.525,-3.31436 -1.57472,-4.40295 -1.03023,-1.0886 -2.41027,-1.63281 -4.14041,-1.63281 z m -23.98218,0.0291 c -1.28299,0 -2.42992,0.31082 -3.44076,0.93287 -1.01089,0.62205 -1.79834,1.49687 -2.36208,2.62435 -0.5443,1.12747 -0.81641,2.42981 -0.81641,3.90719 0,1.49687 0.282,2.82854 0.84574,3.99489 0.58318,1.14691 1.38001,2.04123 2.39084,2.68272 1.03033,0.62206 2.19676,0.93316 3.49913,0.93316 1.94392,0 3.44066,-0.69007 4.49038,-2.0702 v 1.69119 c 0,0.93308 -0.33992,1.6717 -1.02029,2.216 -0.68032,0.54429 -1.6038,0.8164 -2.77015,0.8164 -0.85527,0 -1.70075,-0.13591 -2.53664,-0.40806 -0.83588,-0.27215 -1.6135,-0.65135 -2.33275,-1.13733 l -1.80794,3.58655 c 0.93308,0.62206 2.01196,1.11767 3.23658,1.48702 1.22462,0.36934 2.4979,0.55414 3.81977,0.55414 1.69126,0 3.17834,-0.3015 4.46133,-0.90411 1.30243,-0.58307 2.31316,-1.42856 3.03241,-2.53664 0.71925,-1.0886 1.07895,-2.36188 1.07895,-3.81977 v -14.37525 -2.8e-4 h -5.16099 v 1.92441 c -0.52485,-0.68038 -1.18577,-1.19549 -1.98278,-1.5454 -0.77757,-0.36934 -1.65238,-0.55385 -2.62434,-0.55385 z m -40.19869,8.5e-4 c -1.6329,0 -3.07143,0.34021 -4.31554,1.02058 -1.24405,0.66093 -2.20623,1.61346 -2.88661,2.85756 -0.68037,1.22473 -1.02058,2.64376 -1.02058,4.25716 0,1.59402 0.3306,2.99356 0.99154,4.19879 0.68032,1.20523 1.65234,2.13825 2.91594,2.79919 1.2636,0.66093 2.74084,0.99153 4.432,0.99153 1.45799,0 2.76061,-0.2334 3.90747,-0.69994 1.16635,-0.48598 2.15759,-1.18561 2.97403,-2.09925 l -2.71176,-2.71205 c -0.52486,0.52486 -1.10807,0.92356 -1.74957,1.19571 -0.622,0.27214 -1.27308,0.40806 -1.95345,0.40806 -0.8942,0 -1.65232,-0.23312 -2.27438,-0.69966 -0.62205,-0.48593 -1.05946,-1.176 -1.31217,-2.0702 h 10.96354 c 0.0194,-0.21383 0.0293,-0.52494 0.0293,-0.93316 0,-2.64373 -0.69007,-4.72368 -2.07021,-6.23994 -1.38013,-1.51626 -3.35332,-2.27438 -5.9193,-2.27438 z m 25.75339,0.17427 v 15.77513 h 5.16127 v -15.77513 z m -25.72378,3.47066 c 0.87477,0 1.57439,0.282 2.09925,0.84573 0.5443,0.54425 0.81669,1.27303 0.81669,2.18667 v 2.9e-4 h -6.0651 c 0.17496,-0.93308 0.53466,-1.67199 1.07896,-2.21629 0.56368,-0.54429 1.25376,-0.8164 2.0702,-0.8164 z m 41.59772,0.26169 c 0.95246,0 1.72053,0.34021 2.3037,1.02058 0.58318,0.68032 0.8745,1.57464 0.8745,2.68272 0,1.08855 -0.29132,1.97274 -0.8745,2.65311 -0.58312,0.68037 -1.35118,1.02058 -2.3037,1.02058 -0.95253,0 -1.72986,-0.34021 -2.33247,-1.02058 -0.58318,-0.68037 -0.87478,-1.56485 -0.87478,-2.65339 0,-1.08855 0.2916,-1.97302 0.87478,-2.65339 0.60261,-0.69982 1.37994,-1.04963 2.33247,-1.04963 z"/><flowRoot id="flowRoot4647" fill="#000" fill-opacity="1" stroke="none" stroke-linecap="butt" stroke-linejoin="miter" stroke-opacity="1" stroke-width="1" font-family="Open Sans" font-stretch="normal" font-style="normal" font-variant="normal" font-weight="normal" letter-spacing="-121.889" text-anchor="start" transform="matrix(0.43733198,0,0,0.43733198,758.03672,190.07612)" word-spacing="0" writing-mode="lr-tb" xml:space="preserve" style="line-height:129.99999523%;-inkscape-font-specification:'Open Sans, Normal';text-align:start"><flowRegion id="flowRegion4641" fill="#000" fill-opacity="1" style="line-height:129.99999523%"><rect style="line-height:129.99999523%" id="rect4639" width="651.496" height="373.396" x="-876.745" y="1754.259" fill="#000" fill-opacity="1"/></flowRegion><flowPara font-style="normal" style="line-height:150%;-inkscape-font-specification:'Source Code Pro Semi-Bold';text-align:start" id="flowPara4645" fill="#fff" fill-opacity="1" font-family="Source Code Pro" font-size="31.441" font-stretch="normal" font-variant="normal" font-weight="600" letter-spacing="0" text-anchor="start">Need design help for your</flowPara><flowPara font-style="normal" style="line-height:150%;-inkscape-font-specification:'Source Code Pro Semi-Bold';text-align:start" id="flowPara4666" fill="#fff" fill-opacity="1" font-family="Source Code Pro" font-size="31.441" font-stretch="normal" font-variant="normal" font-weight="600" letter-spacing="0" text-anchor="start">open source project?</flowPara><flowPara font-style="normal" style="line-height:150%;-inkscape-font-specification:'Source Code Pro Light';text-align:start" id="flowPara4651" fill="#fff" fill-opacity="1" font-family="Source Code Pro" font-size="31.441" font-stretch="normal" font-variant="normal" font-weight="300" letter-spacing="0" text-anchor="start">opensourcedesign.net/jobs</flowPara></flowRoot></g></svg>