<svg xmlns="http://www.w3.org/2000/svg" xmlns:svg="http://www.w3.org/2000/svg" id="svg2" width="420mm" height="594mm" version="1.1" viewBox="0 0 1488.189 2104.724"><metadata id="metadata7"/><g id="layer1" transform="translate(0,1052.3622)"><path id="path4" d="m 1094.0945,-653.11906 -700.00002,0 0,700.00003 224.87182,3e-5 0.25641,-0.51282 c 0,0 71.02564,-191.53846 80.51281,-205.64101 0,0 -81.79486,-18.46155 -79.48717,-152.0513 2.30769,-133.58976 104.61537,-201.53848 104.61537,-201.53848 0,0 -17.94872,102.56411 63.33334,140.51282 0,0 78.20512,22.3077 76.92307,101.02566 -1.53846,78.71794 -50.51281,102.30769 -75.64102,113.07694 9.23076,13.58973 75.38461,192.05128 80.2564,204.87178 L 1094.0945,46.881 Z"/><g id="flowRoot4756" fill="#000" fill-opacity="1" stroke="none" stroke-linecap="butt" stroke-linejoin="miter" stroke-opacity="1" stroke-width="1" font-family="Open Sans" font-size="125" font-stretch="normal" font-style="normal" font-variant="normal" font-weight="normal" letter-spacing="-100" text-anchor="start" transform="translate(-6.8986759,-1032.3622)" word-spacing="0" writing-mode="lr-tb" style="line-height:129.99999523%;-inkscape-font-specification:'Open Sans, Normal';text-align:start"><path font-style="normal" style="line-height:139.99999762%;-inkscape-font-specification:'Montserrat Bold';text-align:center" id="path4186" fill="#000" fill-opacity="1" d="m 161.62793,1191.8336 q 13.375,0 24.125,5.875 10.875,5.875 17,16.125 6.25,10.25 6.25,23 0,12.875 -6.25,23.25 -6.125,10.375 -17,16.375 -10.75,6 -24.125,6 -13.375,0 -24.25,-5.875 -10.75,-6 -17,-16.375 -6.125,-10.5 -6.125,-23.375 0,-12.75 6.125,-23 6.25,-10.25 17,-16.125 10.875,-5.875 24.25,-5.875 z m 0.25,19.375 q -6.5,0 -12.125,3.375 -5.5,3.375 -8.75,9.375 -3.25,5.875 -3.25,13 0,7.25 3.25,13.25 3.375,5.875 8.875,9.375 5.5,3.375 12,3.375 6.5,0 11.875,-3.375 5.5,-3.5 8.625,-9.375 3.125,-6 3.125,-13.25 0,-7.125 -3.125,-13 -3.125,-6 -8.625,-9.375 -5.375,-3.375 -11.875,-3.375 z" font-family="Montserrat" font-size="125" font-stretch="normal" font-variant="normal" font-weight="bold" letter-spacing="0" opacity="1" text-anchor="middle"/><path font-style="normal" style="line-height:139.99999762%;-inkscape-font-specification:'Montserrat Bold';text-align:center" id="path4188" fill="#000" fill-opacity="1" d="m 263.21387,1212.4586 q 9.375,0 16.5,4.375 7.125,4.25 11,12.25 4,7.875 4,18.25 0,10.25 -3.875,18 -3.75,7.75 -10.875,12 -7,4.25 -16.25,4.25 -6.375,0 -11.625,-2.375 -5.125,-2.5 -8.75,-7.125 l 0,33 -22.25,0 0,-91.875 22.25,0 0,8.75 q 7.375,-9.5 19.875,-9.5 z m -5.5,51.125 q 6.5,0 10.5,-4.625 4.125,-4.625 4.125,-12.125 0,-7.5 -4.125,-12.125 -4,-4.75 -10.5,-4.75 -6.375,0 -10.375,4.75 -4,4.625 -4,12.125 0,7.5 4,12.125 4,4.625 10.375,4.625 z" font-family="Montserrat" font-size="125" font-stretch="normal" font-variant="normal" font-weight="bold" letter-spacing="0" opacity="1" text-anchor="middle"/><path font-style="normal" style="line-height:139.99999762%;-inkscape-font-specification:'Montserrat Bold';text-align:center" id="path4190" fill="#000" fill-opacity="1" d="m 335.90723,1212.4586 q 16.5,0 25.375,9.75 8.875,9.75 8.875,26.75 0,2.625 -0.125,4 l -47,0 q 1.625,5.75 5.625,8.875 4,3 9.75,3 4.375,0 8.375,-1.75 4.125,-1.75 7.5,-5.125 l 11.625,11.625 q -5.25,5.875 -12.75,9 -7.375,3 -16.75,3 -10.875,0 -19,-4.25 -8.125,-4.25 -12.5,-12 -4.25,-7.75 -4.25,-18 0,-10.375 4.375,-18.25 4.375,-8 12.375,-12.25 8,-4.375 18.5,-4.375 z m 12.625,28.625 q 0,-5.875 -3.5,-9.375 -3.375,-3.625 -9,-3.625 -5.25,0 -8.875,3.5 -3.5,3.5 -4.625,9.5 l 26,0 z" font-family="Montserrat" font-size="125" font-stretch="normal" font-variant="normal" font-weight="bold" letter-spacing="0" opacity="1" text-anchor="middle"/><path font-style="normal" style="line-height:139.99999762%;-inkscape-font-specification:'Montserrat Bold';text-align:center" id="path4192" fill="#000" fill-opacity="1" d="m 426.22168,1212.3336 q 11.125,0 17.75,7 6.75,7 6.75,18.875 l 0,42.625 -22.125,0 0,-36.25 q 0,-5.75 -3.125,-9 -3.125,-3.375 -8.375,-3.375 -5.5,0.125 -9.125,3.625 -3.5,3.5 -4.125,9.25 l 0,35.75 -22.25,0 0,-67.625 22.25,0 0,11 q 3.625,-5.875 9.25,-8.875 5.75,-3 13.125,-3 z" font-family="Montserrat" font-size="125" font-stretch="normal" font-variant="normal" font-weight="bold" letter-spacing="0" opacity="1" text-anchor="middle"/><path font-style="normal" style="line-height:139.99999762%;-inkscape-font-specification:'Montserrat Bold';text-align:center" id="path4194" fill="#000" fill-opacity="1" d="m 554.03223,1219.5836 q -7,-4.125 -15,-6.75 -7.875,-2.625 -13.25,-2.625 -4.25,0 -6.75,1.625 -2.375,1.5 -2.375,4.5 0,2.875 2.125,4.875 2.125,1.875 5.25,3.125 3.125,1.125 9.25,3 9.125,2.625 15,5.25 6,2.625 10.25,8.125 4.25,5.375 4.25,14.125 0,8.75 -4.625,15 -4.625,6.125 -12.75,9.25 -8,3.125 -17.875,3.125 -10.875,0 -21.75,-3.75 -10.75,-3.875 -18.625,-10.5 l 8.875,-17.875 q 6.625,5.875 15.625,9.625 9.125,3.75 16.125,3.75 5.125,0 8,-1.875 3,-1.875 3,-5.5 0,-3 -2.25,-5 -2.125,-2 -5.5,-3.125 -3.25,-1.25 -9.25,-2.875 -9,-2.5 -14.875,-5 -5.875,-2.625 -10.125,-7.75 -4.125,-5.25 -4.125,-13.875 0,-8.125 4.25,-14.25 4.375,-6.125 12.25,-9.375 8,-3.375 18.5,-3.375 9.5,0 18.75,2.75 9.25,2.625 16.25,7.125 l -8.625,18.25 z" font-family="Montserrat" font-size="125" font-stretch="normal" font-variant="normal" font-weight="bold" letter-spacing="0" opacity="1" text-anchor="middle"/><path font-style="normal" style="line-height:139.99999762%;-inkscape-font-specification:'Montserrat Bold';text-align:center" id="path4196" fill="#000" fill-opacity="1" d="m 605.84277,1212.4586 q 11,0 19.375,4.375 8.375,4.25 13,12.125 4.625,7.75 4.625,18 0,10.375 -4.625,18.25 -4.625,7.75 -13,12.125 -8.375,4.25 -19.375,4.25 -11,0 -19.375,-4.25 -8.375,-4.375 -13,-12.125 -4.5,-7.875 -4.5,-18.25 0,-10.25 4.5,-18 4.625,-7.875 13,-12.125 8.375,-4.375 19.375,-4.375 z m 0,18 q -6.5,0 -10.5,4.625 -4,4.625 -4,12.125 0,7.625 4,12.25 4,4.625 10.5,4.625 6.625,0 10.625,-4.625 4,-4.625 4,-12.25 0,-7.5 -4.125,-12.125 -4,-4.625 -10.5,-4.625 z" font-family="Montserrat" font-size="125" font-stretch="normal" font-variant="normal" font-weight="bold" letter-spacing="0" opacity="1" text-anchor="middle"/><path font-style="normal" style="line-height:139.99999762%;-inkscape-font-specification:'Montserrat Bold';text-align:center" id="path4198" fill="#000" fill-opacity="1" d="m 720.30176,1213.2086 0,67.625 -22.25,0 0,-11 q -6.875,11.75 -21.625,12 -11,0 -17.625,-7 -6.5,-7.125 -6.5,-18.875 l 0,-42.75 22.25,0 0,36.375 q 0,5.75 2.875,9 3,3.25 8,3.25 5.875,-0.125 9.25,-4.25 3.375,-4.25 3.375,-11 l 0,-33.375 22.25,0 z" font-family="Montserrat" font-size="125" font-stretch="normal" font-variant="normal" font-weight="bold" letter-spacing="0" opacity="1" text-anchor="middle"/><path font-style="normal" style="line-height:139.99999762%;-inkscape-font-specification:'Montserrat Bold';text-align:center" id="path4200" fill="#000" fill-opacity="1" d="m 759.55957,1224.4586 q 3.5,-5.875 9,-9 5.625,-3.125 12.75,-3.125 l 0,20.375 q -1.125,-0.125 -3.375,-0.125 -7.875,0 -12.75,3.75 -4.875,3.625 -5.625,10 l 0,34.5 -22.25,0 0,-67.625 22.25,0 0,11.25 z" font-family="Montserrat" font-size="125" font-stretch="normal" font-variant="normal" font-weight="bold" letter-spacing="0" opacity="1" text-anchor="middle"/><path font-style="normal" style="line-height:139.99999762%;-inkscape-font-specification:'Montserrat Bold';text-align:center" id="path4202" fill="#000" fill-opacity="1" d="m 834.64551,1237.8336 q -4.75,-7 -13.25,-7 -6,0 -9.75,4.625 -3.75,4.5 -3.75,11.75 0,7.375 3.75,11.875 3.75,4.5 9.75,4.5 9.25,0 13.25,-7.625 l 16.375,9.375 q -4,7.75 -12,12 -8,4.25 -18.75,4.25 -10.375,0 -18.25,-4.25 -7.875,-4.25 -12.25,-12 -4.25,-7.75 -4.25,-18 0,-10.375 4.375,-18.25 4.375,-8 12.25,-12.25 8,-4.375 18.375,-4.375 10.125,0 18,4.25 7.875,4.125 12.25,11.75 l -16.125,9.375 z" font-family="Montserrat" font-size="125" font-stretch="normal" font-variant="normal" font-weight="bold" letter-spacing="0" opacity="1" text-anchor="middle"/><path font-style="normal" style="line-height:139.99999762%;-inkscape-font-specification:'Montserrat Bold';text-align:center" id="path4204" fill="#000" fill-opacity="1" d="m 889.12988,1212.4586 q 16.5,0 25.375,9.75 8.875,9.75 8.875,26.75 0,2.625 -0.125,4 l -47,0 q 1.625,5.75 5.625,8.875 4,3 9.75,3 4.375,0 8.375,-1.75 4.125,-1.75 7.5,-5.125 l 11.625,11.625 q -5.25,5.875 -12.75,9 -7.375,3 -16.75,3 -10.875,0 -19,-4.25 -8.125,-4.25 -12.5,-12 -4.25,-7.75 -4.25,-18 0,-10.375 4.375,-18.25 4.375,-8 12.375,-12.25 8,-4.375 18.5,-4.375 z m 12.625,28.625 q 0,-5.875 -3.5,-9.375 -3.375,-3.625 -9,-3.625 -5.25,0 -8.875,3.5 -3.5,3.5 -4.625,9.5 l 26,0 z" font-family="Montserrat" font-size="125" font-stretch="normal" font-variant="normal" font-weight="bold" letter-spacing="0" opacity="1" text-anchor="middle"/><path font-style="normal" style="line-height:139.99999762%;-inkscape-font-specification:'Montserrat Bold';text-align:center" id="path4206" fill="#000" fill-opacity="1" d="m 1000.4014,1193.2086 q 13.75,0 24.25,5.5 10.625,5.5 16.5,15.5 5.875,9.875 5.875,22.75 0,12.875 -6,22.875 -5.875,10 -16.75,15.5 -10.75,5.5 -24.75003,5.5 l -36.875,0 0,-87.625 37.75003,0 z m 0.625,69.125 q 6.625,0 11.75,-3.125 5.125,-3.125 8,-8.875 2.875,-5.75 2.875,-13.125 0,-7.5 -3.125,-13.25 -3,-5.75 -8.375,-8.875 -5.375,-3.25 -12.25003,-3.25 l -14.375,0 0,50.5 15.50003,0 z" font-family="Montserrat" font-size="125" font-stretch="normal" font-variant="normal" font-weight="bold" letter-spacing="0" opacity="1" text-anchor="middle"/><path font-style="normal" style="line-height:139.99999762%;-inkscape-font-specification:'Montserrat Bold';text-align:center" id="path4208" fill="#000" fill-opacity="1" d="m 1088.1045,1212.4586 q 16.5,0 25.375,9.75 8.875,9.75 8.875,26.75 0,2.625 -0.125,4 l -47,0 q 1.625,5.75 5.625,8.875 4,3 9.75,3 4.375,0 8.375,-1.75 4.125,-1.75 7.5,-5.125 l 11.625,11.625 q -5.25,5.875 -12.75,9 -7.375,3 -16.75,3 -10.875,0 -19,-4.25 -8.125,-4.25 -12.5,-12 -4.25,-7.75 -4.25,-18 0,-10.375 4.375,-18.25 4.375,-8 12.375,-12.25 8,-4.375 18.5,-4.375 z m 12.625,28.625 q 0,-5.875 -3.5,-9.375 -3.375,-3.625 -9,-3.625 -5.25,0 -8.875,3.5 -3.5,3.5 -4.625,9.5 l 26,0 z" font-family="Montserrat" font-size="125" font-stretch="normal" font-variant="normal" font-weight="bold" letter-spacing="0" opacity="1" text-anchor="middle"/><path font-style="normal" style="line-height:139.99999762%;-inkscape-font-specification:'Montserrat Bold';text-align:center" id="path4210" fill="#000" fill-opacity="1" d="m 1178.9189,1234.5836 q -13.125,-6.875 -21.5,-6.875 -2.875,0 -4.625,1.125 -1.75,1 -1.75,3.125 0,2.25 2.75,3.625 2.75,1.375 8.75,3 7.25,2.125 12,4.25 4.875,2 8.375,6.25 3.5,4.125 3.5,10.875 0,10.25 -8,16.125 -7.875,5.75 -20.625,5.75 -8.625,0 -16.5,-2.375 -7.875,-2.5 -14,-7.25 l 7,-14.375 q 5.75,4 12,6.25 6.375,2.125 12,2.125 3.25,0 5.125,-1 2,-1.125 2,-3.125 0,-2.5 -2.875,-3.875 -2.75,-1.375 -8.75,-3 -7.125,-2.125 -11.75,-4.125 -4.625,-2.125 -8.125,-6.25 -3.375,-4.125 -3.375,-10.75 0,-10.25 7.75,-16 7.75,-5.875 20,-5.875 7.375,0 14.5,2 7.25,2 13.625,5.875 l -7.5,14.5 z" font-family="Montserrat" font-size="125" font-stretch="normal" font-variant="normal" font-weight="bold" letter-spacing="0" opacity="1" text-anchor="middle"/><path font-style="normal" style="line-height:139.99999762%;-inkscape-font-specification:'Montserrat Bold';text-align:center" id="path4212" fill="#000" fill-opacity="1" d="m 1198.4912,1213.2086 22.125,0 0,67.625 -22.125,0 0,-67.625 z m 10.875,-31.125 q 5.125,0 8.375,3.375 3.375,3.25 3.375,8.5 0,5.125 -3.375,8.5 -3.25,3.375 -8.375,3.375 -5.125,0 -8.5,-3.375 -3.25,-3.375 -3.25,-8.5 0,-5.25 3.25,-8.5 3.375,-3.375 8.5,-3.375 z" font-family="Montserrat" font-size="125" font-stretch="normal" font-variant="normal" font-weight="bold" letter-spacing="0" opacity="1" text-anchor="middle"/><path font-style="normal" style="line-height:139.99999762%;-inkscape-font-specification:'Montserrat Bold';text-align:center" id="path4214" fill="#000" fill-opacity="1" d="m 1302.3037,1213.2086 0,61.625 q 0,9.375 -4.625,16.375 -4.625,7.125 -13,10.875 -8.25,3.875 -19.125,3.875 -8.5,0 -16.375,-2.375 -7.875,-2.375 -13.875,-6.375 l 7.75,-15.375 q 4.625,3.125 10,4.875 5.375,1.75 10.875,1.75 7.5,0 11.875,-3.5 4.375,-3.5 4.375,-9.5 l 0,-7.25 q -6.75,8.875 -19.25,8.875 -8.375,0 -15,-4 -6.5,-4.125 -10.25,-11.5 -3.625,-7.5 -3.625,-17.125 0,-9.5 3.5,-16.75 3.625,-7.25 10.125,-11.25 6.5,-4 14.75,-4 6.25,0 11.25,2.375 5.125,2.25 8.5,6.625 l 0,-8.25 22.125,0 z m -35.75,47.625 q 6.125,0 9.875,-4.375 3.75,-4.375 3.75,-11.375 0,-7.125 -3.75,-11.5 -3.75,-4.375 -9.875,-4.375 -6.125,0 -10,4.5 -3.75,4.375 -3.75,11.375 0,7 3.75,11.375 3.875,4.375 10,4.375 z" font-family="Montserrat" font-size="125" font-stretch="normal" font-variant="normal" font-weight="bold" letter-spacing="0" opacity="1" text-anchor="middle"/><path font-style="normal" style="line-height:139.99999762%;-inkscape-font-specification:'Montserrat Bold';text-align:center" id="path4216" fill="#000" fill-opacity="1" d="m 1363.2334,1212.3336 q 11.125,0 17.75,7 6.75,7 6.75,18.875 l 0,42.625 -22.125,0 0,-36.25 q 0,-5.75 -3.125,-9 -3.125,-3.375 -8.375,-3.375 -5.5,0.125 -9.125,3.625 -3.5,3.5 -4.125,9.25 l 0,35.75 -22.25,0 0,-67.625 22.25,0 0,11 q 3.625,-5.875 9.25,-8.875 5.75,-3 13.125,-3 z" font-family="Montserrat" font-size="125" font-stretch="normal" font-variant="normal" font-weight="bold" letter-spacing="0" opacity="1" text-anchor="middle"/></g><g id="flowRoot4797" fill="#000" fill-opacity="1" stroke="none" stroke-linecap="butt" stroke-linejoin="miter" stroke-opacity="1" stroke-width="1" font-family="Open Sans" font-size="125" font-stretch="normal" font-style="normal" font-variant="normal" font-weight="normal" letter-spacing="-100" text-anchor="start" transform="translate(-9.6919376,-426.3622)" word-spacing="0" writing-mode="lr-tb" style="line-height:129.99999523%;-inkscape-font-specification:'Open Sans, Normal';text-align:start"><path font-style="normal" style="line-height:139.99999762%;-inkscape-font-specification:'Montserrat Light';text-align:center" id="path4219" fill="#000" fill-opacity="1" d="m 306.24785,1193.1186 q 6.65,0 11.9,2.975 5.25,2.8875 8.225,8.1375 2.975,5.25 2.975,11.9 0,6.7375 -2.975,12.075 -2.975,5.25 -8.225,8.225 -5.25,2.8875 -11.9,2.8875 -6.65,0 -11.9,-2.8875 -5.25,-2.975 -8.225,-8.225 -2.975,-5.3375 -2.975,-12.075 0,-6.65 2.975,-11.9 2.975,-5.25 8.225,-8.1375 5.25,-2.975 11.9,-2.975 z m 0,5.075 q -4.9875,0 -8.925,2.275 -3.9375,2.275 -6.125,6.3875 -2.1875,4.1125 -2.1875,9.3625 0,5.3375 2.1875,9.45 2.1875,4.1125 6.125,6.3875 3.9375,2.275 8.925,2.275 4.9875,0 8.925,-2.275 3.9375,-2.275 6.125,-6.3875 2.1875,-4.1125 2.1875,-9.45 0,-5.25 -2.1875,-9.3625 -2.1875,-4.1125 -6.125,-6.3875 -3.9375,-2.275 -8.925,-2.275 z" font-family="Montserrat" font-size="87.5" font-stretch="normal" font-variant="normal" font-weight="300" letter-spacing="0" opacity="1" text-anchor="middle"/><path font-style="normal" style="line-height:139.99999762%;-inkscape-font-specification:'Montserrat Light';text-align:center" id="path4221" fill="#000" fill-opacity="1" d="m 366.29336,1193.1186 q 6.3875,0 11.375,2.975 5.075,2.8875 7.875,8.225 2.8,5.25 2.8,11.9875 0,6.65 -2.8,11.9 -2.8,5.25 -7.7875,8.225 -4.9875,2.8875 -11.375,2.8875 -6.3,0 -11.025,-2.8 -4.725,-2.8875 -7.35,-7.9625 l 0,27.5625 -5.8625,0 0,-62.825 5.8625,0 0,10.5875 q 2.5375,-5.075 7.2625,-7.875 4.8125,-2.8875 11.025,-2.8875 z m -1.05,41.125 q 4.9,0 8.8375,-2.275 3.9375,-2.3625 6.125,-6.475 2.1875,-4.1125 2.1875,-9.3625 0,-5.1625 -2.1875,-9.275 -2.1875,-4.1125 -6.125,-6.3875 -3.9375,-2.3625 -8.8375,-2.3625 -4.9875,0 -8.925,2.3625 -3.85,2.275 -6.125,6.3875 -2.1875,4.1125 -2.1875,9.275 0,5.25 2.1875,9.3625 2.1875,4.1125 6.125,6.475 3.9375,2.275 8.925,2.275 z" font-family="Montserrat" font-size="87.5" font-stretch="normal" font-variant="normal" font-weight="300" letter-spacing="0" opacity="1" text-anchor="middle"/><path font-style="normal" style="line-height:139.99999762%;-inkscape-font-specification:'Montserrat Light';text-align:center" id="path4223" fill="#000" fill-opacity="1" d="m 418.68672,1193.1186 q 10.675,0 16.275,6.825 5.6,6.7375 5.1625,18.2 l -38.2375,0 q 0.6125,7.35 5.425,11.9 4.8125,4.4625 11.9,4.4625 4.375,0 8.1375,-1.575 3.7625,-1.575 6.475,-4.4625 l 3.325,3.325 q -3.325,3.5875 -8.05,5.6 -4.6375,1.925 -10.2375,1.925 -6.65,0 -11.8125,-2.8875 -5.1625,-2.975 -8.1375,-8.225 -2.8875,-5.25 -2.8875,-11.9875 0,-6.65 2.8875,-11.9 2.975,-5.3375 8.1375,-8.225 5.1625,-2.975 11.6375,-2.975 z m 16.1875,20.475 q -0.4375,-7.175 -4.8125,-11.375 -4.2875,-4.2875 -11.2875,-4.2875 -6.9125,0 -11.55,4.2875 -4.6375,4.2875 -5.3375,11.375 l 32.9875,0 z" font-family="Montserrat" font-size="87.5" font-stretch="normal" font-variant="normal" font-weight="300" letter-spacing="0" opacity="1" text-anchor="middle"/><path font-style="normal" style="line-height:139.99999762%;-inkscape-font-specification:'Montserrat Light';text-align:center" id="path4225" fill="#000" fill-opacity="1" d="m 476.42305,1193.1186 q 8.225,0 12.8625,4.8125 4.725,4.725 4.725,13.0375 l 0,28.175 -5.95,0 0,-26.775 q 0,-6.475 -3.5875,-10.15 -3.5875,-3.675 -9.975,-3.675 -7.0875,0.088 -11.375,4.375 -4.2,4.2875 -4.8125,11.55 l 0,24.675 -5.8625,0 0,-45.85 5.8625,0 0,10.675 q 2.3625,-5.3375 6.9125,-8.05 4.6375,-2.7125 11.2,-2.8 z" font-family="Montserrat" font-size="87.5" font-stretch="normal" font-variant="normal" font-weight="300" letter-spacing="0" opacity="1" text-anchor="middle"/><path font-style="normal" style="line-height:139.99999762%;-inkscape-font-specification:'Montserrat Light';text-align:center" id="path4227" fill="#000" fill-opacity="1" d="m 533.41152,1201.4311 q -2.625,-1.6625 -5.8625,-2.5375 -3.2375,-0.9625 -6.3875,-0.9625 -4.375,0 -7.0875,1.75 -2.625,1.6625 -2.625,5.075 0,2.3625 1.4,3.85 1.4875,1.4875 3.5875,2.45 2.1875,0.875 6.0375,2.0125 4.725,1.4 7.7,2.8 2.975,1.3125 5.075,3.9375 2.1,2.5375 2.1,6.7375 0,6.2125 -4.725,9.5375 -4.725,3.2375 -11.8125,3.2375 -4.9875,0 -9.625,-1.6625 -4.6375,-1.6625 -7.7875,-4.725 l 2.3625,-4.2 q 2.975,2.7125 7,4.2875 4.1125,1.575 8.3125,1.575 4.6375,0 7.525,-1.925 2.975,-1.925 2.975,-5.6 0,-2.5375 -1.4875,-4.1125 -1.4875,-1.6625 -3.7625,-2.5375 -2.1875,-0.9625 -6.125,-2.1875 -4.6375,-1.4 -7.525,-2.7125 -2.8875,-1.3125 -4.9,-3.7625 -2.0125,-2.5375 -2.0125,-6.5625 0,-6.0375 4.4625,-9.1 4.55,-3.0625 11.2875,-3.0625 3.9375,0 7.6125,1.05 3.675,1.05 6.5625,2.8875 l -2.275,4.4625 z" font-family="Montserrat" font-size="87.5" font-stretch="normal" font-variant="normal" font-weight="300" letter-spacing="0" opacity="1" text-anchor="middle"/><path font-style="normal" style="line-height:139.99999762%;-inkscape-font-specification:'Montserrat Light';text-align:center" id="path4229" fill="#000" fill-opacity="1" d="m 567.38066,1193.1186 q 6.65,0 11.9,2.975 5.25,2.8875 8.225,8.1375 2.975,5.25 2.975,11.9 0,6.7375 -2.975,12.075 -2.975,5.25 -8.225,8.225 -5.25,2.8875 -11.9,2.8875 -6.65,0 -11.9,-2.8875 -5.25,-2.975 -8.225,-8.225 -2.975,-5.3375 -2.975,-12.075 0,-6.65 2.975,-11.9 2.975,-5.25 8.225,-8.1375 5.25,-2.975 11.9,-2.975 z m 0,5.075 q -4.9875,0 -8.925,2.275 -3.9375,2.275 -6.125,6.3875 -2.1875,4.1125 -2.1875,9.3625 0,5.3375 2.1875,9.45 2.1875,4.1125 6.125,6.3875 3.9375,2.275 8.925,2.275 4.9875,0 8.925,-2.275 3.9375,-2.275 6.125,-6.3875 2.1875,-4.1125 2.1875,-9.45 0,-5.25 -2.1875,-9.3625 -2.1875,-4.1125 -6.125,-6.3875 -3.9375,-2.275 -8.925,-2.275 z" font-family="Montserrat" font-size="87.5" font-stretch="normal" font-variant="normal" font-weight="300" letter-spacing="0" opacity="1" text-anchor="middle"/><path font-style="normal" style="line-height:139.99999762%;-inkscape-font-specification:'Montserrat Light';text-align:center" id="path4231" fill="#000" fill-opacity="1" d="m 642.21367,1193.2936 0,45.85 -5.95,0 0,-10.9375 q -2.275,5.425 -6.825,8.225 -4.4625,2.8 -10.85,2.8875 -8.1375,0 -12.775,-4.725 -4.55,-4.8125 -4.55,-13.125 l 0,-28.175 5.95,0 0,26.775 q 0,6.475 3.5,10.15 3.5875,3.5875 9.8,3.5875 7.35,-0.088 11.55,-4.9875 4.2,-4.9875 4.2,-13.0375 l 0,-22.4875 5.95,0 z" font-family="Montserrat" font-size="87.5" font-stretch="normal" font-variant="normal" font-weight="300" letter-spacing="0" opacity="1" text-anchor="middle"/><path font-style="normal" style="line-height:139.99999762%;-inkscape-font-specification:'Montserrat Light';text-align:center" id="path4233" fill="#000" fill-opacity="1" d="m 665.09766,1203.9686 q 2.275,-5.25 6.475,-7.9625 4.2875,-2.8 10.2375,-2.8875 l 0,5.5125 q -7.2625,-0.088 -11.725,4.2875 -4.375,4.2875 -4.9875,11.725 l 0,24.5 -5.8625,0 0,-45.85 5.8625,0 0,10.675 z" font-family="Montserrat" font-size="87.5" font-stretch="normal" font-variant="normal" font-weight="300" letter-spacing="0" opacity="1" text-anchor="middle"/><path font-style="normal" style="line-height:139.99999762%;-inkscape-font-specification:'Montserrat Light';text-align:center" id="path4235" fill="#000" fill-opacity="1" d="m 723.13066,1203.7061 q -5.6,-5.425 -13.7375,-5.425 -4.9,0 -8.8375,2.275 -3.9375,2.275 -6.125,6.3875 -2.1875,4.025 -2.1875,9.275 0,5.25 2.1875,9.3625 2.1875,4.1125 6.125,6.3875 3.9375,2.275 8.8375,2.275 4.4625,0 8.1375,-1.575 3.7625,-1.575 6.3,-4.55 l 3.325,3.5 q -3.0625,3.675 -7.7,5.6875 -4.6375,2.0125 -10.325,2.0125 -6.5625,0 -11.725,-2.8875 -5.1625,-2.975 -8.1375,-8.225 -2.8875,-5.3375 -2.8875,-11.9875 0,-6.65 2.8875,-11.9 2.975,-5.3375 8.1375,-8.225 5.1625,-2.975 11.725,-2.975 5.3375,0 9.7125,1.75 4.4625,1.75 7.6125,4.9 l -3.325,3.9375 z" font-family="Montserrat" font-size="87.5" font-stretch="normal" font-variant="normal" font-weight="300" letter-spacing="0" opacity="1" text-anchor="middle"/><path font-style="normal" style="line-height:139.99999762%;-inkscape-font-specification:'Montserrat Light';text-align:center" id="path4237" fill="#000" fill-opacity="1" d="m 755.86934,1193.1186 q 10.675,0 16.275,6.825 5.6,6.7375 5.1625,18.2 l -38.2375,0 q 0.6125,7.35 5.425,11.9 4.8125,4.4625 11.9,4.4625 4.375,0 8.1375,-1.575 3.7625,-1.575 6.475,-4.4625 l 3.325,3.325 q -3.325,3.5875 -8.05,5.6 -4.6375,1.925 -10.2375,1.925 -6.65,0 -11.8125,-2.8875 -5.1625,-2.975 -8.1375,-8.225 -2.8875,-5.25 -2.8875,-11.9875 0,-6.65 2.8875,-11.9 2.975,-5.3375 8.1375,-8.225 5.1625,-2.975 11.6375,-2.975 z m 16.1875,20.475 q -0.4375,-7.175 -4.8125,-11.375 -4.2875,-4.2875 -11.2875,-4.2875 -6.9125,0 -11.55,4.2875 -4.6375,4.2875 -5.3375,11.375 l 32.9875,0 z" font-family="Montserrat" font-size="87.5" font-stretch="normal" font-variant="normal" font-weight="300" letter-spacing="0" opacity="1" text-anchor="middle"/><path font-style="normal" style="line-height:139.99999762%;-inkscape-font-specification:'Montserrat Light';text-align:center" id="path4239" fill="#000" fill-opacity="1" d="m 831.36816,1174.2186 0,64.925 -5.8625,0 0,-10.5 q -2.625,5.1625 -7.35,8.05 -4.725,2.8 -11.025,2.8 -6.475,0 -11.55,-2.975 -5.075,-2.975 -7.875,-8.3125 -2.8,-5.3375 -2.8,-12.075 0,-6.7375 2.8,-11.9875 2.8875,-5.25 7.875,-8.225 5.075,-2.975 11.4625,-2.975 6.3,0 11.025,2.8875 4.8125,2.8875 7.4375,8.05 l 0,-29.6625 5.8625,0 z m -23.1875,60.2 q 4.9875,0 8.925,-2.275 3.9375,-2.3625 6.125,-6.475 2.275,-4.1125 2.275,-9.3625 0,-5.25 -2.275,-9.3625 -2.1875,-4.2 -6.125,-6.5625 -3.9375,-2.3625 -8.925,-2.3625 -4.9875,0 -8.925,2.3625 -3.9375,2.3625 -6.2125,6.5625 -2.275,4.1125 -2.275,9.3625 0,5.25 2.1875,9.3625 2.275,4.1125 6.2125,6.475 4.025,2.275 9.0125,2.275 z" font-family="Montserrat" font-size="87.5" font-stretch="normal" font-variant="normal" font-weight="300" letter-spacing="0" opacity="1" text-anchor="middle"/><path font-style="normal" style="line-height:139.99999762%;-inkscape-font-specification:'Montserrat Light';text-align:center" id="path4241" fill="#000" fill-opacity="1" d="m 866.78242,1193.1186 q 10.675,0 16.275,6.825 5.6,6.7375 5.1625,18.2 l -38.2375,0 q 0.6125,7.35 5.425,11.9 4.8125,4.4625 11.9,4.4625 4.375,0 8.1375,-1.575 3.7625,-1.575 6.475,-4.4625 l 3.325,3.325 q -3.325,3.5875 -8.05,5.6 -4.6375,1.925 -10.2375,1.925 -6.65,0 -11.8125,-2.8875 -5.1625,-2.975 -8.1375,-8.225 -2.8875,-5.25 -2.8875,-11.9875 0,-6.65 2.8875,-11.9 2.975,-5.3375 8.1375,-8.225 5.1625,-2.975 11.6375,-2.975 z m 16.1875,20.475 q -0.4375,-7.175 -4.8125,-11.375 -4.2875,-4.2875 -11.2875,-4.2875 -6.9125,0 -11.55,4.2875 -4.6375,4.2875 -5.3375,11.375 l 32.9875,0 z" font-family="Montserrat" font-size="87.5" font-stretch="normal" font-variant="normal" font-weight="300" letter-spacing="0" opacity="1" text-anchor="middle"/><path font-style="normal" style="line-height:139.99999762%;-inkscape-font-specification:'Montserrat Light';text-align:center" id="path4243" fill="#000" fill-opacity="1" d="m 924.25625,1201.4311 q -2.625,-1.6625 -5.8625,-2.5375 -3.2375,-0.9625 -6.3875,-0.9625 -4.375,0 -7.0875,1.75 -2.625,1.6625 -2.625,5.075 0,2.3625 1.4,3.85 1.4875,1.4875 3.5875,2.45 2.1875,0.875 6.0375,2.0125 4.725,1.4 7.7,2.8 2.975,1.3125 5.075,3.9375 2.1,2.5375 2.1,6.7375 0,6.2125 -4.725,9.5375 -4.725,3.2375 -11.8125,3.2375 -4.9875,0 -9.625,-1.6625 -4.6375,-1.6625 -7.7875,-4.725 l 2.3625,-4.2 q 2.975,2.7125 7,4.2875 4.1125,1.575 8.3125,1.575 4.6375,0 7.525,-1.925 2.975,-1.925 2.975,-5.6 0,-2.5375 -1.4875,-4.1125 -1.4875,-1.6625 -3.7625,-2.5375 -2.1875,-0.9625 -6.125,-2.1875 -4.6375,-1.4 -7.525,-2.7125 -2.8875,-1.3125 -4.9,-3.7625 -2.0125,-2.5375 -2.0125,-6.5625 0,-6.0375 4.4625,-9.1 4.55,-3.0625 11.2875,-3.0625 3.9375,0 7.6125,1.05 3.675,1.05 6.5625,2.8875 l -2.275,4.4625 z" font-family="Montserrat" font-size="87.5" font-stretch="normal" font-variant="normal" font-weight="300" letter-spacing="0" opacity="1" text-anchor="middle"/><path font-style="normal" style="line-height:139.99999762%;-inkscape-font-specification:'Montserrat Light';text-align:center" id="path4245" fill="#000" fill-opacity="1" d="m 939.85039,1193.2936 5.8625,0 0,45.85 -5.8625,0 0,-45.85 z m 2.975,-17.325 q 1.75,0 2.8875,1.225 1.1375,1.1375 1.1375,2.8875 0,1.75 -1.225,2.975 -1.1375,1.225 -2.8,1.225 -1.75,0 -2.975,-1.225 -1.1375,-1.225 -1.1375,-2.975 0,-1.75 1.1375,-2.8875 1.225,-1.225 2.975,-1.225 z" font-family="Montserrat" font-size="87.5" font-stretch="normal" font-variant="normal" font-weight="300" letter-spacing="0" opacity="1" text-anchor="middle"/><path font-style="normal" style="line-height:139.99999762%;-inkscape-font-specification:'Montserrat Light';text-align:center" id="path4247" fill="#000" fill-opacity="1" d="m 1002.3883,1193.2936 0,41.0375 q 0,6.65 -2.80002,11.6375 -2.8,4.9875 -8.05,7.6125 -5.1625,2.7125 -11.9875,2.7125 -10.15,0 -18.8125,-7 l 2.8,-4.2 q 3.5,3.0625 7.35,4.6375 3.85,1.575 8.4,1.575 7.875,0 12.5125,-4.6375 4.725,-4.55 4.725,-12.25 l 0,-7.4375 q -2.45,4.8125 -7,7.525 -4.55,2.7125 -10.5,2.7125 -6.125,0 -10.9375,-2.8 -4.725,-2.8875 -7.4375,-7.875 -2.625,-5.075 -2.625,-11.4625 0,-6.3875 2.625,-11.375 2.7125,-4.9875 7.525,-7.7875 4.8125,-2.8 10.9375,-2.8 5.95,0 10.4125,2.7125 4.4625,2.625 7,7.525 l 0,-10.0625 5.86252,0 z m -22.31252,39.2 q 4.725,0 8.4875,-2.1875 3.7625,-2.275 5.8625,-6.2125 2.1,-3.9375 2.1,-8.8375 0,-4.9875 -2.1,-8.925 -2.1,-3.9375 -5.8625,-6.125 -3.7625,-2.275 -8.4875,-2.275 -4.725,0 -8.4875,2.275 -3.7625,2.1875 -5.95,6.125 -2.1,3.9375 -2.1,8.925 0,4.9875 2.1,8.925 2.1875,3.85 5.8625,6.125 3.7625,2.1875 8.575,2.1875 z" font-family="Montserrat" font-size="87.5" font-stretch="normal" font-variant="normal" font-weight="300" letter-spacing="0" opacity="1" text-anchor="middle"/><path font-style="normal" style="line-height:139.99999762%;-inkscape-font-specification:'Montserrat Light';text-align:center" id="path4249" fill="#000" fill-opacity="1" d="m 1042.2678,1193.1186 q 8.225,0 12.8625,4.8125 4.725,4.725 4.725,13.0375 l 0,28.175 -5.95,0 0,-26.775 q 0,-6.475 -3.5875,-10.15 -3.5875,-3.675 -9.975,-3.675 -7.0875,0.088 -11.375,4.375 -4.2,4.2875 -4.8125,11.55 l 0,24.675 -5.8625,0 0,-45.85 5.8625,0 0,10.675 q 2.3625,-5.3375 6.9125,-8.05 4.6375,-2.7125 11.2,-2.8 z" font-family="Montserrat" font-size="87.5" font-stretch="normal" font-variant="normal" font-weight="300" letter-spacing="0" opacity="1" text-anchor="middle"/><path font-style="normal" style="line-height:139.99999762%;-inkscape-font-specification:'Montserrat Light';text-align:center" id="path4251" fill="#000" fill-opacity="1" d="m 1075.4563,1231.8811 q 1.6625,0 2.8,1.1375 1.1375,1.1375 1.1375,2.8 0,1.6625 -1.1375,2.8875 -1.1375,1.1375 -2.8,1.1375 -1.6625,0 -2.8,-1.1375 -1.05,-1.1375 -1.05,-2.8875 0,-1.6625 1.05,-2.8 1.1375,-1.1375 2.8,-1.1375 z" font-family="Montserrat" font-size="87.5" font-stretch="normal" font-variant="normal" font-weight="300" letter-spacing="0" opacity="1" text-anchor="middle"/><path font-style="normal" style="line-height:139.99999762%;-inkscape-font-specification:'Montserrat Light';text-align:center" id="path4253" fill="#000" fill-opacity="1" d="m 1116.4377,1193.1186 q 8.225,0 12.8625,4.8125 4.725,4.725 4.725,13.0375 l 0,28.175 -5.95,0 0,-26.775 q 0,-6.475 -3.5875,-10.15 -3.5875,-3.675 -9.975,-3.675 -7.0875,0.088 -11.375,4.375 -4.2,4.2875 -4.8125,11.55 l 0,24.675 -5.8625,0 0,-45.85 5.8625,0 0,10.675 q 2.3625,-5.3375 6.9125,-8.05 4.6375,-2.7125 11.2,-2.8 z" font-family="Montserrat" font-size="87.5" font-stretch="normal" font-variant="normal" font-weight="300" letter-spacing="0" opacity="1" text-anchor="middle"/><path font-style="normal" style="line-height:139.99999762%;-inkscape-font-specification:'Montserrat Light';text-align:center" id="path4255" fill="#000" fill-opacity="1" d="m 1167.5637,1193.1186 q 10.675,0 16.275,6.825 5.6,6.7375 5.1625,18.2 l -38.2375,0 q 0.6125,7.35 5.425,11.9 4.8125,4.4625 11.9,4.4625 4.375,0 8.1375,-1.575 3.7625,-1.575 6.475,-4.4625 l 3.325,3.325 q -3.325,3.5875 -8.05,5.6 -4.6375,1.925 -10.2375,1.925 -6.65,0 -11.8125,-2.8875 -5.1625,-2.975 -8.1375,-8.225 -2.8875,-5.25 -2.8875,-11.9875 0,-6.65 2.8875,-11.9 2.975,-5.3375 8.1375,-8.225 5.1625,-2.975 11.6375,-2.975 z m 16.1875,20.475 q -0.4375,-7.175 -4.8125,-11.375 -4.2875,-4.2875 -11.2875,-4.2875 -6.9125,0 -11.55,4.2875 -4.6375,4.2875 -5.3375,11.375 l 32.9875,0 z" font-family="Montserrat" font-size="87.5" font-stretch="normal" font-variant="normal" font-weight="300" letter-spacing="0" opacity="1" text-anchor="middle"/><path font-style="normal" style="line-height:139.99999762%;-inkscape-font-specification:'Montserrat Light';text-align:center" id="path4257" fill="#000" fill-opacity="1" d="m 1224.425,1235.9936 q -4.725,3.2375 -10.15,3.4125 -5.25,0 -8.3125,-3.2375 -3.0625,-3.2375 -3.0625,-9.7125 l 0,-27.3 -6.5625,0 -0.088,-4.55 6.65,0 0,-11.8125 5.8625,0 0,11.8125 14.875,-0.087 0,4.6375 -14.875,0 0,26.3375 q 0,8.4875 6.3,8.4875 3.5,0 7.6125,-2.45 l 1.75,4.4625 z" font-family="Montserrat" font-size="87.5" font-stretch="normal" font-variant="normal" font-weight="300" letter-spacing="0" opacity="1" text-anchor="middle"/></g></g></svg>