<?xml version="1.0" encoding="UTF-8" standalone="no"?>
<svg
   xmlns:dc="http://purl.org/dc/elements/1.1/"
   xmlns:cc="http://creativecommons.org/ns#"
   xmlns:rdf="http://www.w3.org/1999/02/22-rdf-syntax-ns#"
   xmlns:svg="http://www.w3.org/2000/svg"
   xmlns="http://www.w3.org/2000/svg"
   xmlns:sodipodi="http://sodipodi.sourceforge.net/DTD/sodipodi-0.dtd"
   xmlns:inkscape="http://www.inkscape.org/namespaces/inkscape"
   height="30.905535mm"
   viewBox="-497 263.9 340.41804 109.50781"
   width="96.071548mm"
   version="1.1"
   enable-background="new -497 263.9 273 264"
   id="svg2"
   inkscape:version="0.92.1 r15371"
   sodipodi:docname="Sticker opensourcedesign-logo-text-narrow.svg"
   inkscape:label="cutkontur">
  <metadata
     id="metadata44">
    <rdf:RDF>
      <cc:Work
         rdf:about="">
        <dc:format>image/svg+xml</dc:format>
        <dc:type
           rdf:resource="http://purl.org/dc/dcmitype/StillImage" />
        <dc:title></dc:title>
      </cc:Work>
    </rdf:RDF>
  </metadata>
  <defs
     id="defs42" />
  <sodipodi:namedview
     pagecolor="#ffffff"
     bordercolor="#666666"
     borderopacity="1"
     objecttolerance="10"
     gridtolerance="10"
     guidetolerance="10"
     inkscape:pageopacity="0"
     inkscape:pageshadow="2"
     inkscape:window-width="1920"
     inkscape:window-height="1046"
     id="namedview40"
     showgrid="false"
     fit-margin-top="3"
     fit-margin-left="3"
     fit-margin-right="3"
     fit-margin-bottom="3"
     inkscape:zoom="3.1945502"
     inkscape:cx="160.5844"
     inkscape:cy="47.854995"
     inkscape:current-layer="layer2"
     inkscape:window-x="0"
     inkscape:window-y="34"
     inkscape:window-maximized="1"
     units="mm" />
  <g
     inkscape:groupmode="layer"
     id="layer3"
     inkscape:label="outline"
     style="display:inline"
     transform="translate(57.787325,-320.03455)">
    <path
       transform="translate(1.1175822e-6,-2.3514455e-6)"
       style="color:#000000;font-style:normal;font-variant:normal;font-weight:normal;font-stretch:normal;font-size:medium;line-height:normal;font-family:sans-serif;font-variant-ligatures:normal;font-variant-position:normal;font-variant-caps:normal;font-variant-numeric:normal;font-variant-alternates:normal;font-feature-settings:normal;text-indent:0;text-align:start;text-decoration:none;text-decoration-line:none;text-decoration-style:solid;text-decoration-color:#000000;letter-spacing:normal;word-spacing:normal;text-transform:none;writing-mode:lr-tb;direction:ltr;text-orientation:mixed;dominant-baseline:auto;baseline-shift:baseline;text-anchor:start;white-space:normal;shape-padding:0;clip-rule:nonzero;display:inline;overflow:visible;visibility:visible;opacity:1;isolation:auto;mix-blend-mode:normal;color-interpolation:sRGB;color-interpolation-filters:linearRGB;solid-color:#000000;solid-opacity:1;vector-effect:none;fill:#ffffff;fill-opacity:1;fill-rule:nonzero;stroke:none;stroke-width:17.70788383;stroke-linecap:round;stroke-linejoin:round;stroke-miterlimit:4;stroke-dasharray:none;stroke-dashoffset:0;stroke-opacity:1;color-rendering:auto;image-rendering:auto;shape-rendering:auto;text-rendering:auto;enable-background:accumulate"
       d="m -346.01488,594.7171 c -2.91914,0 -5.86748,0.47397 -8.64613,1.63941 -2.75625,1.14304 -5.4208,3.09023 -7.2709,5.68029 l -0.04,0.05 -0.03,0.05 c -0.63896,0.92095 -1.16683,1.9246 -1.58681,2.96924 -4.31326,-4.02318 -10.37003,-4.20857 -13.95533,-4.22537 h -19.88671 c -0.97795,-0.14099 -1.9541,-0.21199 -2.91074,-0.21199 -3.20103,0 -6.52205,0.71396 -9.45579,2.30968 -0.39197,0.20999 -0.77595,0.43897 -1.15243,0.68196 -0.23899,-0.16299 -0.47998,-0.32098 -0.72696,-0.46998 -3.18643,-1.7077 -5.85968,-2.50986 -9.2604,-2.52166 h -13.37906 c -1.31763,-1.21023 -2.78005,-2.25947 -4.33706,-3.10303 -3.38272,-1.8448 -7.24831,-2.74095 -11.065,-2.74095 l -13.65825,-0.04 -80.62448,-4e-4 v 80.62488 l 72.10495,0.009 v 0.10799 h 19.30164 c 3.79689,0 7.61268,-0.77896 11.0259,-2.52126 0.70796,-0.35898 1.39662,-0.76396 2.06408,-1.20674 0.84396,0.66097 1.73971,1.24324 2.66896,1.72931 2.97213,1.55461 6.27945,2.21208 9.48688,2.21208 2.71515,0 5.476,-0.44198 8.08195,-1.50242 l 0.03,-0.01 0.03,-0.01 c 0.43398,-0.18099 0.86195,-0.37998 1.28373,-0.59497 0.91395,0.43298 1.8538,0.80396 2.81015,1.10704 l 0.06,0.02 0.06,0.02 c 2.34297,0.70696 4.78974,1.05044 7.2315,1.05044 1.16554,0 2.35627,-0.09 3.54401,-0.28298 h 8.78202 l 4.72754,3.15173 c 1.94779,1.29862 4.07777,2.25007 6.28565,2.91594 2.33047,0.70296 4.76574,1.05004 7.19591,1.05004 3.07773,0 6.21096,-0.56497 9.1026,-1.9064 2.51636,-1.13973 4.88333,-2.94814 6.64323,-5.21131 h 5.5904 c 1.20913,-10e-4 2.40527,-0.24999 3.51461,-0.73096 1.10404,0.47897 2.29387,0.72796 3.4973,0.73096 h 6.26896 c 4.88963,-6e-4 8.85301,-3.96438 8.85361,-8.85392 v -12.07663 c 0,-3.90789 -1.37422,-8.34035 -4.36536,-11.46178 -2.81124,-2.81114 -1.55831,-4.77963 1.63411,-7.05201 0.62197,-0.29998 1.23484,-0.63796 1.8296,-1.01574 0.39098,0.24398 0.78896,0.47497 1.19354,0.68596 l 0.05,0.02 0.05,0.02 c 2.97684,1.51061 6.27786,2.16298 9.49588,2.16298 3.21793,0 6.51935,-0.65197 9.49618,-2.16298 l 0.05,-0.02 0.05,-0.02 c 0.38098,-0.19899 0.75596,-0.41398 1.12444,-0.64197 2.75624,1.9156 6.19676,2.92244 9.28449,2.92244 h 0.08 l 0.07,-10e-4 c 0.80095,-0.01 1.61951,-0.12599 2.44076,-0.28198 h 5.80549 v 4e-4 h 29.34359 c 1.00604,0.14299 2.01529,0.21199 3.01273,0.21199 3.10683,0 6.31606,-0.63097 9.213,-2.11009 2.94904,1.47272 6.20986,2.11119 9.38968,2.11119 3.21793,0 6.51904,-0.65197 9.49578,-2.16308 l 0.05,-0.02 0.05,-0.02 c 2.89064,-1.51012 5.4832,-3.89189 7.1862,-6.74563 l 0.02,-0.03 0.02,-0.03 c 1.7333,-2.95144 2.52956,-6.37895 2.52956,-9.65417 0,-3.25762 -0.80395,-6.67623 -2.54616,-9.60897 -1.69481,-2.87354 -4.31376,-5.29351 -7.2495,-6.79473 -2.98014,-1.54591 -6.30616,-2.22488 -9.54088,-2.22488 -3.19282,0 -6.47434,0.66297 -9.42458,2.16708 -2.83495,-1.48381 -6.02687,-2.16778 -9.1071,-2.16778 v -4e-4 c -0.98995,0 -1.99089,0.07 -2.98824,0.21299 h -29.1585 -2.62786 -8.77642 -14.17462 c -1.03194,-0.14299 -2.06868,-0.21199 -3.09613,-0.21199 -1.37322,0 -2.76295,0.124 -4.13577,0.38298 l -3.31192,-2.12948 c -2.13988,-1.37583 -4.47955,-2.37377 -6.92132,-3.07153 -2.52486,-0.74496 -5.15212,-1.13234 -7.78277,-1.13234 z"
       id="path944"
       inkscape:connector-curvature="0"
       sodipodi:nodetypes="ccccccccsccccccccccccscccscccccccsccccscccccccsccccccsccccsccccccscsccccccsccsccccccccscccsc" />
  </g>
  <g
     inkscape:groupmode="layer"
     id="layer2"
     inkscape:label="logo"
     style="display:inline"
     transform="translate(57.787325,-320.03455)">
    <path
       transform="translate(1.1175822e-6,-2.3514455e-6)"
       style="display:inline;fill:#000000;fill-opacity:1;stroke-width:0.18888016"
       d="m -346.01518,603.57101 c -1.98329,0 -3.7305,0.31899 -5.24152,0.95595 -1.48741,0.61397 -2.64435,1.49932 -3.47071,2.65626 -0.80295,1.15683 -1.20393,2.50246 -1.20393,4.03717 0,1.62902 0.38998,2.93934 1.16864,3.93099 0.80295,0.96795 1.7589,1.70001 2.86854,2.19588 1.10964,0.47197 2.51476,0.94495 4.21467,1.41662 1.13324,0.30698 2.00669,0.57797 2.62055,0.81396 0.63797,0.21298 1.15674,0.50797 1.55812,0.88595 0.42498,0.37798 0.63796,0.84995 0.63796,1.41662 0,0.68496 -0.28398,1.20393 -0.84995,1.55801 -0.54297,0.35399 -1.29843,0.53098 -2.26637,0.53098 -1.32223,0 -2.84525,-0.35398 -4.56885,-1.06245 -1.69991,-0.70796 -3.17563,-1.61741 -4.42696,-2.72715 l -2.51436,5.06443 c 1.48751,1.25133 3.24662,2.24277 5.27711,2.97473 2.05408,0.70796 4.10807,1.06244 6.16216,1.06244 1.8651,0 3.553,-0.29498 5.06402,-0.88495 1.53462,-0.58996 2.73885,-1.46372 3.6125,-2.62055 0.87396,-1.18054 1.31043,-2.59726 1.31043,-4.24987 0,-1.65281 -0.40198,-2.98674 -1.20433,-4.00198 -0.80296,-1.03884 -1.77051,-1.8062 -2.90374,-2.30197 -1.10964,-0.49598 -2.52636,-0.99195 -4.24997,-1.48752 -1.15684,-0.35398 -2.03059,-0.63697 -2.62086,-0.84996 -0.58996,-0.23598 -1.08584,-0.53097 -1.48722,-0.88495 -0.40097,-0.37798 -0.60196,-0.83795 -0.60196,-1.38132 0,-0.56697 0.22399,-0.99195 0.67296,-1.27483 0.47198,-0.30699 1.10954,-0.45998 1.9123,-0.45998 1.01524,0 2.26657,0.24799 3.75389,0.74396 1.51102,0.49597 2.92774,1.13314 4.24987,1.9123 v 7e-4 l 2.44386,-5.17062 c -1.32212,-0.84995 -2.85694,-1.52292 -4.60404,-2.01869 -1.74711,-0.51897 -3.51801,-0.77896 -5.31231,-0.77896 z m -189.13163,0.07 v 62.91695 h 20.21149 l 0.02,-0.05 c 0,0 6.38395,-17.21535 7.2367,-18.48298 0,0 -7.3518,-1.65931 -7.14441,-13.66645 0.20799,-12.00725 9.40289,-18.11471 9.40289,-18.11471 0,0 -1.61332,9.21849 5.69238,12.62941 0,0 7.02932,2.00519 6.91403,9.0804 -0.138,7.07531 -4.54026,9.19539 -6.79883,10.16344 0.82995,1.22143 6.77573,17.26176 7.2136,18.41409 l 20.1655,0.02 v -62.91695 z m 85.42911,0.04 c -2.52636,0 -4.81643,0.55497 -6.87052,1.66461 -2.03039,1.10974 -3.6359,2.63235 -4.81634,4.56835 -1.15693,1.93609 -1.7352,4.10847 -1.7352,6.51664 0,2.43177 0.57797,4.63924 1.7352,6.62254 1.18044,1.95959 2.78595,3.506 4.81634,4.63934 2.05419,1.10964 4.34426,1.66421 6.87052,1.66421 2.52626,0 4.80504,-0.56697 6.83553,-1.69991 2.05399,-1.13323 3.6595,-2.67975 4.81633,-4.63924 1.18054,-1.95969 1.77081,-4.15547 1.77081,-6.58724 0,-2.40827 -0.58997,-4.58025 -1.77081,-6.51634 -1.15693,-1.936 -2.76234,-3.45871 -4.81633,-4.56835 -2.03049,-1.10974 -4.30927,-1.66461 -6.83553,-1.66461 z m 0.07,5.4891 c 1.22773,0 2.34927,0.31898 3.36451,0.95594 1.03885,0.63697 1.8535,1.52292 2.44377,2.65616 0.58997,1.10964 0.88495,2.33727 0.88495,3.6831 0,1.36932 -0.29498,2.62065 -0.88495,3.75389 -0.58997,1.10964 -1.40492,1.99509 -2.44377,2.65616 -1.01534,0.63796 -2.13678,0.95594 -3.36451,0.95594 -1.22773,0 -2.36097,-0.31798 -3.39981,-0.95594 -1.03875,-0.66097 -1.8769,-1.54642 -2.51437,-2.65616 -0.61396,-1.13324 -0.92095,-2.38457 -0.92095,-3.75389 0,-1.34583 0.30699,-2.57336 0.92095,-3.6831 0.61397,-1.13314 1.43992,-2.01869 2.47877,-2.65616 1.06254,-0.63796 2.20768,-0.95594 3.43541,-0.95594 z m 74.89399,0.31798 c -1.39312,0 -2.63265,0.28398 -3.71869,0.84995 -1.06245,0.56697 -1.9362,1.40473 -2.62096,2.51437 v -3.11653 h -6.30355 v 19.15985 h 6.30355 v -10.12885 c 0.11799,-1.08604 0.50797,-1.95949 1.16874,-2.62056 0.68496,-0.66096 1.54671,-1.00354 2.58555,-1.02714 0.99195,0 1.78241,0.31898 2.37257,0.95595 0.58997,0.61396 0.88496,1.46392 0.88496,2.55006 v 10.27024 h 6.26865 v -12.07664 c 0,-2.24298 -0.63796,-4.02548 -1.91259,-5.34771 -1.25123,-1.32213 -2.92744,-1.98309 -5.02873,-1.98309 z m 100.60429,7e-4 c -1.34583,0 -2.55006,0.29498 -3.6125,0.88495 -1.03885,0.58997 -1.8889,1.44032 -2.54997,2.54996 v -7e-4 -3.18702 h -6.30365 v 19.15975 h 6.30365 v -9.77457 c 0.142,-1.20413 0.67297,-2.14828 1.59372,-2.83294 0.92095,-0.70796 2.12508,-1.06244 3.6124,-1.06244 0.42498,0 0.74396,0.01 0.95595,0.04 z m 11.10719,0.03 c -1.95959,0 -3.6948,0.41298 -5.20582,1.23963 -1.48751,0.80296 -2.64435,1.95959 -3.47071,3.47061 -0.82595,1.48752 -1.23953,3.21102 -1.23953,5.17062 0,1.93599 0.40098,3.6358 1.20394,5.09962 0.82595,1.46382 1.98329,2.59705 3.47061,3.39981 1.48751,0.80296 3.21132,1.20423 5.17091,1.20423 2.03049,0 3.80099,-0.40197 5.31201,-1.20423 1.51112,-0.80296 2.64426,-1.93599 3.39981,-3.39981 l -4.63894,-2.65616 c -0.75596,1.44022 -2.00719,2.16058 -3.7543,2.16058 -1.13333,0 -2.05408,-0.42497 -2.76234,-1.27483 -0.70797,-0.84995 -1.06255,-1.97159 -1.06255,-3.36451 0,-1.36943 0.35398,-2.47887 1.06255,-3.32892 0.70796,-0.87395 1.62901,-1.31043 2.76234,-1.31043 1.60532,0 2.85675,0.66097 3.7539,1.98279 l 4.56845,-2.65585 c -0.82696,-1.44012 -1.98329,-2.55006 -3.47071,-3.32922 -1.48732,-0.80295 -3.18713,-1.20393 -5.09962,-1.20393 z m -157.89525,7e-4 v 4e-4 c -2.36097,0 -4.23796,0.89695 -5.63089,2.69145 v -2.47906 h -6.30395 v 26.02947 h 6.30395 v -9.34949 c 0.68497,0.87395 1.51112,1.54652 2.47917,2.01869 0.99194,0.44898 2.08948,0.67296 3.29352,0.67296 1.7472,0 3.28192,-0.40197 4.60414,-1.20423 1.34563,-0.80296 2.37257,-1.93599 3.08084,-3.39981 0.73196,-1.46382 1.09774,-3.16363 1.09774,-5.09962 0,-1.9597 -0.37798,-3.6832 -1.13334,-5.17062 -0.73196,-1.51102 -1.77071,-2.66795 -3.11653,-3.47061 -1.34583,-0.82595 -2.90394,-1.23963 -4.67465,-1.23963 z m 20.59588,0 c -1.9833,0 -3.7305,0.41298 -5.24152,1.23963 -1.51101,0.80296 -2.67955,1.95959 -3.5059,3.47061 -0.82596,1.48752 -1.23964,3.21102 -1.23964,5.17062 0,1.93599 0.40098,3.6358 1.20394,5.09962 0.82595,1.46382 2.00689,2.59705 3.5416,3.39981 1.53472,0.80296 3.32922,1.20423 5.38331,1.20423 1.7708,0 3.35251,-0.28398 4.74544,-0.84995 1.41662,-0.58997 2.62085,-1.44002 3.6125,-2.54966 l -3.29392,-3.29402 c -0.63696,0.63797 -1.34553,1.12174 -2.12458,1.45232 -0.75596,0.33098 -1.54662,0.49597 -2.37297,0.49597 -1.08604,0 -2.00679,-0.28298 -2.76235,-0.84995 -0.75596,-0.58997 -1.28673,-1.42832 -1.59371,-2.51436 h 13.31617 c 0.02,-0.25999 0.04,-0.63797 0.04,-1.13344 0,-3.21092 -0.83795,-5.73718 -2.51436,-7.57878 -1.67631,-1.8415 -4.07248,-2.76235 -7.189,-2.76235 z m 76.478,0 c -2.07768,0 -3.90768,0.41298 -5.4895,1.23963 -1.58191,0.80296 -2.80944,1.94799 -3.68299,3.43531 -0.84996,1.46382 -1.27523,3.16373 -1.27523,5.09972 0,1.95969 0.42497,3.6832 1.27523,5.17052 0.87395,1.46392 2.10118,2.60906 3.68299,3.43541 1.58182,0.80296 3.41182,1.20393 5.4895,1.20393 2.07769,0 3.90729,-0.40097 5.4891,-1.20393 1.58181,-0.82595 2.80945,-1.97159 3.683,-3.43541 0.87395,-1.48742 1.31043,-3.21093 1.31043,-5.17052 0,-1.93599 -0.43698,-3.6359 -1.31043,-5.09972 -0.87395,-1.48742 -2.10129,-2.63265 -3.683,-3.43531 -1.58181,-0.82595 -3.41141,-1.23963 -5.4891,-1.23963 z m 80.2603,0 c -1.98329,0 -3.73049,0.41298 -5.24151,1.23963 -1.51102,0.80296 -2.67965,1.95959 -3.50601,3.47061 -0.82595,1.48752 -1.23953,3.21102 -1.23953,5.17062 0,1.93599 0.40198,3.6358 1.20433,5.09962 0.82596,1.46382 2.00679,2.59705 3.54151,3.39981 1.53472,0.80296 3.32892,1.20423 5.3829,1.20423 1.77091,0 3.35302,-0.28398 4.74594,-0.84995 1.41663,-0.58997 2.62046,-1.44002 3.61211,-2.54966 l -3.29362,-3.29402 c -0.63797,0.63797 -1.34583,1.12174 -2.12499,1.45232 -0.75496,0.33098 -1.54621,0.49597 -2.37257,0.49597 -1.08604,0 -2.00679,-0.28298 -2.76235,-0.84995 -0.75595,-0.58997 -1.28672,-1.42832 -1.59371,-2.51436 h 13.31587 c 0.02,-0.25999 0.04,-0.63797 0.04,-1.13344 0,-3.21092 -0.83795,-5.73718 -2.51436,-7.57878 -1.67621,-1.8415 -4.07278,-2.76235 -7.18931,-2.76235 z m -67.09772,0.21199 v 12.11183 c 0,2.21928 0.61397,4.00188 1.8417,5.34771 1.25143,1.32213 2.91584,1.98309 4.99353,1.98309 2.78604,-0.05 4.82833,-1.18043 6.12676,-3.39971 v 3.11653 h 6.30395 v -19.15945 h -6.30395 v 9.45568 c 0,1.27493 -0.31898,2.31377 -0.95595,3.11653 -0.63796,0.77895 -1.51091,1.18063 -2.62055,1.20423 -0.94395,0 -1.70011,-0.30698 -2.26678,-0.92095 -0.54297,-0.61396 -0.81495,-1.46362 -0.81495,-2.54966 v -10.30583 z m -89.60499,4.21497 c 1.06245,0 1.9125,0.34298 2.54996,1.02714 0.66097,0.66096 0.99195,1.54621 0.99195,2.65585 v 3e-4 h -7.3661 c 0.21299,-1.13323 0.64897,-2.03069 1.31013,-2.69175 0.68496,-0.66096 1.52272,-0.99194 2.51436,-0.99194 z m 156.73861,0 c 1.06244,0 1.9122,0.34298 2.54966,1.02714 0.66096,0.66096 0.99195,1.54621 0.99195,2.65585 v 3e-4 h -7.3664 c 0.21299,-1.13323 0.64896,-2.03069 1.31043,-2.69175 0.68496,-0.66096 1.52271,-0.99194 2.51436,-0.99194 z m -178.92849,0.53097 c 1.22773,0 2.21958,0.44797 2.97504,1.34572 0.77895,0.87395 1.16873,2.01869 1.16873,3.43541 0,1.41663 -0.38998,2.56176 -1.16873,3.43542 -0.75596,0.87395 -1.74731,1.31042 -2.97504,1.31042 -1.20403,0 -2.18358,-0.43697 -2.93904,-1.31042 -0.75596,-0.87396 -1.13344,-2.01879 -1.13344,-3.43542 0,-1.41672 0.37798,-2.56186 1.13344,-3.43541 0.75596,-0.89695 1.73491,-1.34572 2.93904,-1.34572 z m 98.63229,0.14199 c 1.22764,0 2.21918,0.43697 2.97464,1.31043 0.77896,0.87395 1.16864,2.01879 1.16864,3.43541 0,1.44022 -0.37698,2.59706 -1.13294,3.47071 -0.75596,0.87395 -1.75901,1.31003 -3.01034,1.31003 -1.22773,0 -2.21958,-0.43698 -2.97513,-1.31003 -0.75596,-0.87395 -1.13334,-2.03049 -1.13334,-3.47071 0,-1.41662 0.37798,-2.56186 1.13334,-3.43541 0.75595,-0.87396 1.7474,-1.31043 2.97513,-1.31043 z m -69.2673,24.07028 c -0.96795,0 -1.7707,0.31898 -2.40817,0.95595 -0.61396,0.61396 -0.92095,1.41662 -0.92095,2.40826 0,0.96795 0.30699,1.77071 0.92095,2.40817 0.63697,0.63797 1.44022,0.95595 2.40817,0.95595 0.96795,0 1.7591,-0.31798 2.37297,-0.95595 0.63797,-0.63796 0.95595,-1.44022 0.95595,-2.40817 0,-0.99194 -0.31798,-1.7944 -0.95595,-2.40826 -0.61397,-0.63797 -1.40492,-0.95595 -2.37297,-0.95595 z m -69.91157,3.15143 v 24.82633 h 10.44773 c 2.64426,0 4.98143,-0.51897 7.01192,-1.55811 2.05398,-1.03884 3.6361,-2.50286 4.74584,-4.39166 1.13323,-1.8888 1.6998,-4.04898 1.6998,-6.48074 0,-2.43187 -0.55497,-4.58055 -1.66461,-6.44575 -1.10954,-1.8888 -2.66765,-3.35242 -4.67454,-4.39126 -1.98329,-1.03884 -4.27367,-1.55811 -6.87082,-1.55811 l 4e-4,-7e-4 z m 6.48145,5.27781 h 4.07237 c 1.29863,0 2.45547,0.30698 3.47071,0.92095 1.01515,0.58996 1.80601,1.42832 2.37257,2.51446 0.58997,1.08604 0.88496,2.33727 0.88496,3.75389 0,1.39303 -0.27199,2.63256 -0.81496,3.7187 -0.54297,1.08594 -1.29833,1.92409 -2.26638,2.51436 -0.96794,0.58997 -2.07798,0.88495 -3.32921,0.88495 h -4.39096 z m 48.95221,0.10499 c -2.31377,0 -4.20237,0.55497 -5.66619,1.66461 -1.46382,1.08604 -2.19578,2.59706 -2.19578,4.53315 0,1.25133 0.31899,2.26648 0.95595,3.04553 0.66097,0.77896 1.42842,1.36943 2.30208,1.77081 0.87395,0.37798 1.98299,0.76695 3.32881,1.16863 1.13334,0.30699 1.9597,0.58997 2.47917,0.84996 0.54297,0.25998 0.81495,0.62596 0.81495,1.09774 0,0.37798 -0.18899,0.67296 -0.56697,0.88595 -0.35398,0.18899 -0.83795,0.28298 -1.45182,0.28298 -1.06254,0 -2.19608,-0.20099 -3.40021,-0.60196 -1.18043,-0.42498 -2.31367,-1.01535 -3.39971,-1.77081 l -1.98319,4.07278 c 1.15703,0.89695 2.47926,1.58181 3.96668,2.05409 1.48732,0.44897 3.04543,0.67296 4.67454,0.67296 2.40837,0 4.35626,-0.54297 5.84368,-1.62931 1.51102,-1.10974 2.26638,-2.63236 2.26638,-4.56845 0,-1.27483 -0.33098,-2.30207 -0.99195,-3.08123 -0.66096,-0.80296 -1.45182,-1.39303 -2.37257,-1.7707 -0.89695,-0.40098 -2.03039,-0.80296 -3.39981,-1.20394 -1.13324,-0.30698 -1.95969,-0.58997 -2.47907,-0.84995 -0.51897,-0.25999 -0.77895,-0.60197 -0.77895,-1.02685 0,-0.40097 0.16499,-0.69696 0.49597,-0.88595 0.33098,-0.21299 0.76696,-0.31898 1.31013,-0.31898 1.58171,0 3.6122,0.64996 6.09116,1.94789 l 2.12499,-4.10807 c -1.20414,-0.73196 -2.49107,-1.28653 -3.86049,-1.66431 -1.34583,-0.37798 -2.71515,-0.56697 -4.10808,-0.56697 z m 58.06942,0.04 c -1.39302,0 -2.63296,0.28298 -3.719,0.84995 -1.06244,0.56697 -1.93589,1.40472 -2.62055,2.51446 v -3.11652 h -6.30396 v 19.16014 h 6.30396 v -10.12884 c 0.11799,-1.08604 0.50797,-1.95939 1.16863,-2.62056 0.68497,-0.66096 1.54682,-1.00354 2.58566,-1.02714 0.99195,0 1.7823,0.31898 2.37257,0.95595 0.58997,0.61396 0.88495,1.46362 0.88495,2.54966 v 10.27063 h 6.26866 v -12.07663 c 0,-2.24288 -0.63797,-4.02548 -1.9126,-5.34771 -1.25123,-1.32213 -2.92733,-1.98309 -5.02872,-1.98309 z m -29.1277,0.04 c -1.55832,0 -2.95134,0.37798 -4.17907,1.13333 -1.22774,0.75596 -2.18418,1.818 -2.86885,3.18743 -0.66096,1.36932 -0.99194,2.95114 -0.99194,4.74554 0,1.818 0.34298,3.43541 1.02714,4.85203 0.70796,1.39293 1.67611,2.47877 2.90384,3.25792 1.25143,0.75596 2.66806,1.13334 4.24987,1.13334 2.36107,0 4.17887,-0.83795 5.4539,-2.51436 v 2.05409 c 0,1.13324 -0.41298,2.03069 -1.23963,2.69175 -0.82596,0.66096 -1.94749,0.99195 -3.36412,0.99195 -1.03874,0 -2.06568,-0.165 -3.08093,-0.49598 -1.01524,-0.33098 -1.95969,-0.79095 -2.83324,-1.38102 l -2.19588,4.35576 c 1.13334,0.75596 2.44366,1.35783 3.93108,1.8064 1.48732,0.44898 3.03384,0.67296 4.63935,0.67296 2.05409,0 3.86019,-0.36598 5.4185,-1.09774 1.58191,-0.70796 2.80945,-1.7354 3.683,-3.08123 0.87395,-1.32222 1.31053,-2.86834 1.31053,-4.63904 V 647.5172 h -6.26836 v 2.33728 c -0.63696,-0.82596 -1.44022,-1.45202 -2.40817,-1.877 -0.94495,-0.44898 -2.00699,-0.67296 -3.18742,-0.67296 z m -48.82363,0.001 c -1.98329,0 -3.73039,0.41297 -5.24151,1.23923 -1.51092,0.80295 -2.67955,1.95959 -3.50591,3.47061 -0.82595,1.48752 -1.23953,3.21132 -1.23953,5.17091 0,1.936 0.40198,3.63591 1.20424,5.09973 0.82595,1.46381 2.00689,2.59695 3.5416,3.39971 1.53472,0.80295 3.32892,1.20433 5.38291,1.20433 1.7708,0 3.35261,-0.28298 4.74554,-0.84995 1.41652,-0.58997 2.62085,-1.44032 3.6124,-2.54996 l -3.29352,-3.29362 c -0.63797,0.63796 -1.34583,1.12134 -2.12498,1.45192 -0.75596,0.33098 -1.54662,0.49597 -2.37297,0.49597 -1.08605,0 -2.00679,-0.28298 -2.76235,-0.84995 -0.75596,-0.58997 -1.28673,-1.42832 -1.59372,-2.51436 h 13.31617 c 0.02,-0.25999 0.04,-0.63697 0.04,-1.13304 0,-3.21102 -0.83795,-5.73719 -2.51436,-7.57879 -1.67621,-1.84159 -4.07248,-2.76234 -7.18901,-2.76234 z m 31.27899,0.21098 v 19.16015 h 6.26826 V 647.5163 Z m -31.24299,4.21567 c 1.06244,0 1.9121,0.34198 2.54956,1.02685 0.66097,0.66096 0.99195,1.54651 0.99195,2.65615 h -7.3661 c 0.21299,-1.13324 0.64897,-2.03039 1.31043,-2.69145 0.68496,-0.66096 1.52282,-0.99195 2.51446,-0.99195 z m 50.52273,0.31799 c 1.15684,0 2.08939,0.41297 2.79765,1.23953 0.70796,0.82595 1.06254,1.91209 1.06254,3.25792 0,1.32213 -0.35398,2.39637 -1.06254,3.22272 -0.70796,0.82596 -1.64071,1.23953 -2.79765,1.23953 -1.15683,0 -2.10128,-0.41297 -2.83324,-1.23953 -0.70796,-0.82595 -1.06244,-1.90059 -1.06244,-3.22272 0,-1.32203 0.35398,-2.39637 1.06244,-3.22262 0.73196,-0.84996 1.67641,-1.27483 2.83324,-1.27483 z"
       id="path4"
       inkscape:connector-curvature="0" />
  </g>
  <g
     transform="translate(117.89092,-385.69288)"
     id="g844"
     style="fill:#000000;fill-opacity:1;stroke:#4dcf4a;stroke-width:93.7519455;stroke-miterlimit:4;stroke-dasharray:none;stroke-opacity:1" />
  <g
     inkscape:groupmode="layer"
     id="layer1"
     inkscape:label="cutkontur"
     style="display:inline"
     transform="translate(57.787325,-320.03455)">
    <path
       sodipodi:nodetypes="ccccccccsccccccccccccscccscccccccsccccscccccccsccccccsccccsccccccscsccccccsccsccccccccscccsc"
       inkscape:connector-curvature="0"
       id="cutkontur"
       d="m -346.01488,594.7171 c -2.91914,0 -5.86748,0.47397 -8.64613,1.63941 -2.75625,1.14304 -5.4208,3.09023 -7.2709,5.68029 l -0.04,0.05 -0.03,0.05 c -0.63896,0.92095 -1.16683,1.9246 -1.58681,2.96924 -4.31326,-4.02318 -10.37003,-4.20857 -13.95533,-4.22537 h -19.88671 c -0.97795,-0.14099 -1.9541,-0.21199 -2.91074,-0.21199 -3.20103,0 -6.52205,0.71396 -9.45579,2.30968 -0.39197,0.20999 -0.77595,0.43897 -1.15243,0.68196 -0.23899,-0.16299 -0.47998,-0.32098 -0.72696,-0.46998 -3.18643,-1.7077 -5.85968,-2.50986 -9.2604,-2.52166 h -13.37906 c -1.31763,-1.21023 -2.78005,-2.25947 -4.33706,-3.10303 -3.38272,-1.8448 -7.24831,-2.74095 -11.065,-2.74095 l -13.65825,-0.04 -80.62448,-4e-4 v 80.62488 l 72.10495,0.009 v 0.10799 h 19.30164 c 3.79689,0 7.61268,-0.77896 11.0259,-2.52126 0.70796,-0.35898 1.39662,-0.76396 2.06408,-1.20674 0.84396,0.66097 1.73971,1.24324 2.66896,1.72931 2.97213,1.55461 6.27945,2.21208 9.48688,2.21208 2.71515,0 5.476,-0.44198 8.08195,-1.50242 l 0.03,-0.01 0.03,-0.01 c 0.43398,-0.18099 0.86195,-0.37998 1.28373,-0.59497 0.91395,0.43298 1.8538,0.80396 2.81015,1.10704 l 0.06,0.02 0.06,0.02 c 2.34297,0.70696 4.78974,1.05044 7.2315,1.05044 1.16554,0 2.35627,-0.09 3.54401,-0.28298 h 8.78202 l 4.72754,3.15173 c 1.94779,1.29862 4.07777,2.25007 6.28565,2.91594 2.33047,0.70296 4.76574,1.05004 7.19591,1.05004 3.07773,0 6.21096,-0.56497 9.1026,-1.9064 2.51636,-1.13973 4.88333,-2.94814 6.64323,-5.21131 h 5.5904 c 1.20913,-10e-4 2.40527,-0.24999 3.51461,-0.73096 1.10404,0.47897 2.29387,0.72796 3.4973,0.73096 h 6.26896 c 4.88963,-6e-4 8.85301,-3.96438 8.85361,-8.85392 v -12.07663 c 0,-3.90789 -1.37422,-8.34035 -4.36536,-11.46178 -2.81124,-2.81114 -1.55831,-4.77963 1.63411,-7.05201 0.62197,-0.29998 1.23484,-0.63796 1.8296,-1.01574 0.39098,0.24398 0.78896,0.47497 1.19354,0.68596 l 0.05,0.02 0.05,0.02 c 2.97684,1.51061 6.27786,2.16298 9.49588,2.16298 3.21793,0 6.51935,-0.65197 9.49618,-2.16298 l 0.05,-0.02 0.05,-0.02 c 0.38098,-0.19899 0.75596,-0.41398 1.12444,-0.64197 2.75624,1.9156 6.19676,2.92244 9.28449,2.92244 h 0.08 l 0.07,-10e-4 c 0.80095,-0.01 1.61951,-0.12599 2.44076,-0.28198 h 5.80549 v 4e-4 h 29.34359 c 1.00604,0.14299 2.01529,0.21199 3.01273,0.21199 3.10683,0 6.31606,-0.63097 9.213,-2.11009 2.94904,1.47272 6.20986,2.11119 9.38968,2.11119 3.21793,0 6.51904,-0.65197 9.49578,-2.16308 l 0.05,-0.02 0.05,-0.02 c 2.89064,-1.51012 5.4832,-3.89189 7.1862,-6.74563 l 0.02,-0.03 0.02,-0.03 c 1.7333,-2.95144 2.52956,-6.37895 2.52956,-9.65417 0,-3.25762 -0.80395,-6.67623 -2.54616,-9.60897 -1.69481,-2.87354 -4.31376,-5.29351 -7.2495,-6.79473 -2.98014,-1.54591 -6.30616,-2.22488 -9.54088,-2.22488 -3.19282,0 -6.47434,0.66297 -9.42458,2.16708 -2.83495,-1.48381 -6.02687,-2.16778 -9.1071,-2.16778 v -4e-4 c -0.98995,0 -1.99089,0.07 -2.98824,0.21299 h -29.1585 -2.62786 -8.77642 -14.17462 c -1.03194,-0.14299 -2.06868,-0.21199 -3.09613,-0.21199 -1.37322,0 -2.76295,0.124 -4.13577,0.38298 l -3.31192,-2.12948 c -2.13988,-1.37583 -4.47955,-2.37377 -6.92132,-3.07153 -2.52486,-0.74496 -5.15212,-1.13234 -7.78277,-1.13234 z"
       style="color:#000000;font-style:normal;font-variant:normal;font-weight:normal;font-stretch:normal;font-size:medium;line-height:normal;font-family:sans-serif;font-variant-ligatures:normal;font-variant-position:normal;font-variant-caps:normal;font-variant-numeric:normal;font-variant-alternates:normal;font-feature-settings:normal;text-indent:0;text-align:start;text-decoration:none;text-decoration-line:none;text-decoration-style:solid;text-decoration-color:#000000;letter-spacing:normal;word-spacing:normal;text-transform:none;writing-mode:lr-tb;direction:ltr;text-orientation:mixed;dominant-baseline:auto;baseline-shift:baseline;text-anchor:start;white-space:normal;shape-padding:0;clip-rule:nonzero;display:inline;overflow:visible;visibility:visible;opacity:1;isolation:auto;mix-blend-mode:normal;color-interpolation:sRGB;color-interpolation-filters:linearRGB;solid-color:#000000;solid-opacity:1;vector-effect:none;fill:none;fill-opacity:1;fill-rule:nonzero;stroke:#ff00ff;stroke-width:0.31250647;stroke-linecap:round;stroke-linejoin:round;stroke-miterlimit:4;stroke-dasharray:none;stroke-dashoffset:0;stroke-opacity:1;color-rendering:auto;image-rendering:auto;shape-rendering:auto;text-rendering:auto;enable-background:accumulate"
       inkscape:label="cutkontur">
      <desc
         id="desc988">cutkontur</desc>
      <title
         id="title986">cutkontur</title>
    </path>
  </g>
</svg>
