<svg width="512.61" height="138.41" version="1.1" viewBox="0 0 512.61 138.41" xml:space="preserve" xmlns="http://www.w3.org/2000/svg"><g transform="matrix(1.3333 0 0 -1.3333 -102.56 774.27)"><g fill="#231f20"><path d="m189.47 537.43h9.683v-40.353h-9.683zm4.842 21.054c1.697 0 3.153-0.615 4.367-1.844 1.215-1.23 1.822-2.72 1.822-4.469 0-1.727-0.602-3.198-1.804-4.416s-2.641-1.827-4.314-1.827c-1.721 0-3.19 0.621-4.404 1.862-1.214 1.242-1.821 2.749-1.821 4.523 0 1.702 0.601 3.157 1.803 4.362 1.203 1.206 2.653 1.809 4.351 1.809"/><path d="m231.57 531.04-5.995-5.994c-2.436 2.412-4.646 3.618-6.632 3.618-1.088 0-1.94-0.231-2.553-0.692-0.616-0.461-0.923-1.035-0.923-1.72 0-0.52 0.195-0.999 0.585-1.436 0.39-0.438 1.354-1.035 2.891-1.791l3.547-1.774c3.736-1.844 6.301-3.724 7.696-5.639 1.395-1.916 2.093-4.162 2.093-6.74 0-3.429-1.259-6.288-3.778-8.582-2.518-2.293-5.894-3.441-10.125-3.441-5.628 0-10.121 2.2-13.479 6.598l5.959 6.49c1.136-1.324 2.466-2.395 3.991-3.211 1.524-0.815 2.878-1.223 4.06-1.223 1.278 0 2.306 0.308 3.086 0.923 0.781 0.614 1.171 1.324 1.171 2.127 0 1.49-1.407 2.946-4.221 4.363l-3.263 1.631c-6.243 3.145-9.364 7.083-9.364 11.812 0 3.05 1.177 5.657 3.529 7.82 2.353 2.164 5.361 3.246 9.028 3.246 2.505 0 4.863-0.551 7.075-1.65 2.21-1.1 4.085-2.678 5.622-4.735"/><path d="m276.68 528.63-8.06-4.434c-1.515 1.584-3.012 2.683-4.492 3.299-1.479 0.614-3.213 0.922-5.203 0.922-3.622 0-6.551-1.081-8.788-3.241s-3.356-4.928-3.356-8.303c0-3.283 1.077-5.963 3.232-8.039 2.155-2.078 4.983-3.117 8.487-3.117 4.332 0 7.706 1.477 10.12 4.434l7.635-5.229c-4.138-5.381-9.978-8.072-17.521-8.072-6.786 0-12.101 2.009-15.943 6.03-3.842 4.019-5.764 8.724-5.764 14.116 0 3.736 0.934 7.177 2.803 10.321 1.867 3.144 4.474 5.616 7.82 7.413 3.346 1.796 7.088 2.696 11.226 2.696 3.831 0 7.271-0.763 10.321-2.289 3.05-1.524 5.545-3.694 7.483-6.507"/><path d="m300.69 528.31c-3.008 0-5.513-1.046-7.514-3.139-2.002-2.092-3.003-4.77-3.003-8.033 0-3.359 0.989-6.078 2.969-8.158 1.976-2.081 4.481-3.12 7.513-3.12s5.555 1.05 7.567 3.156c2.013 2.103 3.02 4.81 3.02 8.122 0 3.31-0.989 5.999-2.967 8.069-1.978 2.069-4.506 3.103-7.585 3.103zm-0.16 9.116c3.642 0 7.064-0.911 10.268-2.732s5.705-4.291 7.501-7.413c1.799-3.12 2.697-6.49 2.697-10.109 0-3.641-0.904-7.046-2.715-10.213-1.809-3.17-4.273-5.645-7.393-7.431-3.122-1.786-6.561-2.678-10.322-2.678-5.532 0-10.255 1.968-14.169 5.905-3.913 3.939-5.871 8.72-5.871 14.348 0 6.028 2.211 11.053 6.633 15.073 3.878 3.5 8.336 5.25 13.371 5.25"/><path d="m326.87 536.44h9.791v-18.584c0-3.618 0.248-6.132 0.744-7.538 0.498-1.407 1.299-2.499 2.401-3.279 1.101-0.781 2.461-1.171 4.072-1.171s2.98 0.382 4.105 1.153c1.127 0.767 1.961 1.897 2.508 3.386 0.403 1.111 0.604 3.487 0.604 7.129v18.904h9.683v-16.351c0-6.739-0.533-11.349-1.595-13.831-1.301-3.027-3.217-5.35-5.746-6.97-2.532-1.62-5.746-2.43-9.649-2.43-4.23 0-7.654 0.947-10.267 2.838-2.612 1.89-4.452 4.528-5.514 7.909-0.758 2.341-1.137 6.597-1.137 12.769v16.066"/><path d="m367.22 536.44h8.298v-4.859c0.899 1.916 2.092 3.37 3.581 4.363 1.49 0.993 3.123 1.49 4.894 1.49 1.254 0 2.568-0.332 3.938-0.994l-3.014-8.334c-1.135 0.567-2.07 0.85-2.803 0.85-1.49 0-2.75-0.922-3.777-2.766-1.028-1.843-1.543-5.462-1.543-10.852l0.037-1.882v-15.605h-9.611v38.589"/><path d="m415.35 531.04-5.994-5.994c-2.436 2.412-4.647 3.618-6.633 3.618-1.088 0-1.94-0.231-2.553-0.692-0.615-0.461-0.922-1.035-0.922-1.72 0-0.52 0.194-0.999 0.584-1.436 0.391-0.438 1.356-1.035 2.891-1.791l3.547-1.774c3.736-1.844 6.302-3.724 7.695-5.639 1.396-1.916 2.094-4.162 2.094-6.74 0-3.429-1.26-6.288-3.776-8.582-2.519-2.293-5.894-3.441-10.127-3.441-5.627 0-10.121 2.2-13.478 6.598l5.959 6.49c1.135-1.324 2.465-2.395 3.99-3.211 1.525-0.815 2.879-1.223 4.061-1.223 1.277 0 2.304 0.308 3.086 0.923 0.781 0.614 1.169 1.324 1.169 2.127 0 1.49-1.406 2.946-4.22 4.363l-3.264 1.631c-6.24 3.145-9.361 7.083-9.361 11.812 0 3.05 1.176 5.657 3.527 7.82 2.354 2.164 5.361 3.246 9.027 3.246 2.506 0 4.866-0.551 7.077-1.65 2.211-1.1 4.084-2.678 5.621-4.735"/><path d="m451.66 521.97c-0.638 2.151-1.9 3.901-3.783 5.248-1.885 1.349-4.068 2.023-6.555 2.023-2.701 0-5.068-0.758-7.105-2.271-1.279-0.946-2.463-2.612-3.553-5zm9.682-7.627h-31.104c0.45-2.743 1.649-4.925 3.6-6.544 1.949-1.619 4.439-2.427 7.467-2.427 3.617 0 6.724 1.263 9.326 3.794l8.158-3.832c-2.033-2.884-4.469-5.017-7.307-6.402-2.837-1.383-6.207-2.074-10.109-2.074-6.053 0-10.982 1.909-14.789 5.728s-5.709 8.602-5.709 14.346c0 5.888 1.897 10.777 5.691 14.667 3.795 3.889 8.553 5.835 14.276 5.835 6.076 0 11.019-1.946 14.826-5.835 3.807-3.89 5.711-9.027 5.711-15.411l-0.037-1.845"/><path d="m128.79 580.7c-28.165 0-51.875-22.831-51.875-50.997 0-0.911 0.0188-52.808 0.0188-52.808l51.856 0.055c28.165 0 50.998 23.71 50.998 51.875s-22.833 51.875-50.998 51.875"/></g><path d="m129.29 560.97c-17.457 0-31.608-14.152-31.608-31.608 0-5.455 1.3821-10.586 3.8143-15.066l-5.7154-18.404 20.54 4.646c3.958-1.783 8.345-2.783 12.969-2.783 17.455 0 31.607 14.151 31.607 31.607s-14.152 31.608-31.607 31.608" fill="#fffa99"/><path d="m154.37 548.58c4.087-5.327 6.522-11.988 6.522-19.221 0-17.456-14.152-31.607-31.607-31.607-4.624 0-9.011 1-12.969 2.783l-20.54-4.646 20.914 2.473c3.749-2.186 8.007-3.641 12.605-4.123 17.36-1.826 32.914 10.77 34.739 28.13 1.066 10.151-2.802 19.679-9.664 26.211" fill="#00adef"/><path d="m148.54 554.42c4.621-4.87 7.739-11.241 8.495-18.434 1.825-17.359-10.771-32.913-28.13-34.738-4.599-0.484-9.067 0.054-13.188 1.413l-19.943-6.768 20.54 4.646c3.958-1.783 8.345-2.783 12.969-2.783 17.455 0 31.607 14.151 31.607 31.607 0 10.207-4.842 19.278-12.35 25.057" fill="#0fab4b"/><path d="m103.38 513.6c-1.952 4.708-2.789 9.956-2.219 15.382 1.825 17.361 17.376 29.955 34.738 28.132 7.21-0.759 13.592-3.889 18.467-8.529-5.779 7.529-14.863 12.387-25.085 12.387-17.457 0-31.608-14.152-31.608-31.608 0-5.455 1.3821-10.586 3.8143-15.066l-5.7154-18.404 7.6084 17.706" fill="#f1491c"/><path d="m101.49 514.29c-2.4322 4.48-3.8143 9.611-3.8143 15.066 0 17.456 14.151 31.608 31.608 31.608 7.249 0 13.923-2.447 19.257-6.551-6.534 6.883-16.076 10.766-26.244 9.697-17.361-1.824-29.955-17.378-28.131-34.739 0.5703-5.425 2.4804-10.385 5.3687-14.585l-3.7605-18.9 5.7154 18.404" fill="#e51b24"/></g></svg>
