<svg xmlns="http://www.w3.org/2000/svg" width="213" height="48" version="1.1"><path fill="#25aae1" d="m12 0h6v6h-6zm0 42h6v6h-6zm-6-36h6v6h-6zm0 30h6v6h-6zm-6-24h6v24h-6z"/><path fill="#333" d="m79.417 6a3.433 3.433 0 0 0-3.417-3.55 3.375 3.375 0 0 0-3.392 3.517 3.433 3.433 0 0 0 3.417 3.55 3.375 3.375 0 0 0 3.383-3.517m-9.408 0a6 6 0 1 1 12 0 6 6 0 0 1-12 0m21.487-0.435a1.79 1.79 0 0 0 1.371-0.406c0.377-0.319 0.597-0.778 0.605-1.264 0-1.084-0.778-1.63-2.026-1.63h-1.925v3.375l1.975-0.074zm-4.47-5.565h4.638c2.704 0 4.345 1.564 4.345 3.813 0 2.559-2.043 3.879-4.588 3.879h-1.9v3.308h-2.512zm13.983 0h7.922v2.16h-5.62v2.224h4.946v2.16h-4.946v2.305h5.698v2.151h-8zm13 0h2.284l5.274 6.779v-6.779h2.442v11h-2.11l-5.448-6.99v6.99h-2.442zm-38.698 20.232h-3.302v-2.232h9v2.232h-3.31v8.768h-2.388zm10.698-2.232h7.93v2.151h-5.633v2.233h4.958v2.151h-4.958v2.314h5.703v2.151h-8zm13.002 5.509a5.368 5.368 0 0 1 1.63-3.934 5.563 5.563 0 0 1 4.017-1.568 5.652 5.652 0 0 1 4.271 1.642l-1.52 1.722a4.032 4.032 0 0 0-2.767-1.203 3.225 3.225 0 0 0-2.29 1.001 3.112 3.112 0 0 0-0.854 2.316c-0.057 0.86 0.247 1.704 0.841 2.337a3.225 3.225 0 0 0 2.303 1.012 3.942 3.942 0 0 0 2.847-1.25l1.52 1.51a5.588 5.588 0 0 1-4.44 1.901 5.521 5.521 0 0 1-3.971-1.587 5.328 5.328 0 0 1-1.587-3.915m14.998-5.493h2.34v4.351h4.312v-4.351h2.348v11h-2.348v-4.416h-4.312v4.416h-2.34zm16 0h2.276l5.274 6.77v-6.77h2.45v11h-2.11l-5.448-6.99v6.99h-2.442zm23.417 6a3.433 3.433 0 0 0-3.417-3.55 3.375 3.375 0 0 0-3.392 3.517 3.433 3.433 0 0 0 3.417 3.55 3.375 3.375 0 0 0 3.383-3.517m-9.408 0a6 6 0 1 1 12 0 6 6 0 0 1-12 0m17-6h2.45v8.8h5.55v2.2h-8zm20.4 6a3.433 3.433 0 0 0-3.417-3.55 3.375 3.375 0 0 0-3.383 3.517 3.433 3.433 0 0 0 3.417 3.55 3.375 3.375 0 0 0 3.383-3.517m-9.4 0a6 6 0 1 1 12 0 6 6 0 0 1-12 0m16-0.484c0-1.474 0.64-2.888 1.776-3.923s2.674-1.606 4.269-1.585c1.659-0.08 3.285 0.446 4.53 1.463l-1.584 1.747a4.456 4.456 0 0 0-3.014-1.078c-1.904 0.077-3.384 1.56-3.312 3.321-0.057 0.885 0.287 1.752 0.949 2.394a3.6 3.6 0 0 0 2.542 0.99 4.298 4.298 0 0 0 2.392-0.638v-1.503h-2.554v-2.03h5.006v4.627c-1.368 1.096-3.12 1.697-4.93 1.692-1.613 0.076-3.187-0.477-4.34-1.524-1.151-1.047-1.776-2.492-1.721-3.984m18.271 1.18-4.28-6.665h2.867l2.654 4.416 2.702-4.416h2.777l-4.272 6.616v4.384h-2.448zm-134.28 12.335h8v2.2h-5.688v2.346h5.013v2.192h-5.013v4.262h-2.312zm13 6.191v-6.191h2.534v6.127c0 1.758 0.929 2.676 2.466 2.676s2.466-0.879 2.466-2.596v-6.207h2.534v6.111c0 3.275-1.943 4.889-5.017 4.889s-4.95-1.598-4.95-4.793m14.967-6.207h2.276l5.274 6.77v-6.77h2.45v11h-2.11l-5.448-6.998v6.998h-2.442zm18.23 8.836a3.067 3.067 0 0 0 2.345-0.893c0.622-0.62 0.958-1.477 0.925-2.362a3.192 3.192 0 0 0-0.909-2.396 3.091 3.091 0 0 0-2.36-0.923h-1.843v6.647l1.843-0.073zm-4.23-8.836h4.23c3.414 0 5.77 2.376 5.77 5.484 0 3.1-2.356 5.516-5.77 5.516h-4.23z"/><path fill="#25aae1" d="m36 0h6v6h-6zm6 36h6v6h-6zm-6 6h6v6h-6zm6-36h6v6h-6zm6 6h6v24h-6z"/></svg>