<svg xmlns="http://www.w3.org/2000/svg" xmlns:xlink="http://www.w3.org/1999/xlink" width="160" height="49.589" viewBox="0 0 160 49.589">
  <defs>
    <clipPath id="clip-path">
      <rect width="160" height="49.589" fill="none"/>
    </clipPath>
    <linearGradient id="linear-gradient" x1="0.297" y1="0.792" x2="0.838" y2="0.256" gradientUnits="objectBoundingBox">
      <stop offset="0" stop-color="#fff" stop-opacity="0"/>
      <stop offset="1" stop-color="#192a37"/>
    </linearGradient>
    <linearGradient id="linear-gradient-2" x1="0.727" y1="0.26" x2="0.235" y2="0.807" xlink:href="#linear-gradient"/>
  </defs>
  <g id="Artwork_2" data-name="Artwork 2" clip-path="url(#clip-path)">
    <g id="Artwork_2-2" data-name="Artwork 2">
      <path id="Path_17" data-name="Path 17" d="M49.655,24.861A24.76,24.76,0,0,1,46.6,36.731h0l-.146.291h0c-.437.728-.874,1.384-1.311,2.112h0l-.218.291h0a24.76,24.76,0,0,1-20.1,10.268H23.367A24.832,24.832,0,0,1,3.049,12.918h0l.146-.291h0a23.959,23.959,0,0,1,1.311-2.039h0l.218-.218h0a24.832,24.832,0,0,1,44.64,10.7,25.414,25.414,0,0,1,.291,3.787Z" transform="translate(0.034 -0.104)" fill="#1a2a36"/>
      <path id="Path_18" data-name="Path 18" d="M32.018,23.689h0l1.675-1.675.364-.364,1.165-1.165h0a6.554,6.554,0,0,0,1.238-3.86,7.209,7.209,0,0,0-.073-.947,6.627,6.627,0,0,0-13.108-.073,6.044,6.044,0,0,0-.073.947A6.627,6.627,0,0,0,24.3,20.266h0l3.35,3.35-1.165,1.165h0l-.8.8-3.5,3.5L5.875,12.911l-.218.218h0a23.958,23.958,0,0,0-1.311,2.039h0L4.2,15.46h0L20,31.335l-1.456,1.456L16.434,34.9h0a6.7,6.7,0,0,0-1.02,3.5,6.845,6.845,0,0,0,.073,1.02,6.627,6.627,0,0,0,13.181-.146,6.336,6.336,0,0,0,.073-.874,6.554,6.554,0,0,0-1.384-4.078h0l-1.092-1.092-1.821-1.821h0l2.039-2.039,1.456-1.456,2.039-2.039h0L46.073,42.113h0l.218-.291h0c.437-.655.874-1.384,1.311-2.112h0l.146-.291Zm-7.137,12.6a3.556,3.556,0,1,1-5.9.51l1.165-1.165,2.039-2.039Zm1.893-17.841a3.582,3.582,0,1,1,6.044.073l-1.092,1.092L29.833,21.5Z" transform="translate(-1.117 -2.792)" fill="#fff"/>
      <path id="Path_19" data-name="Path 19" d="M24.677,39.3l2.112,2.257-3.131,3.131L21.4,42.5Z" transform="translate(-5.791 -10.756)" opacity="0.8" fill="url(#linear-gradient)"/>
      <path id="Path_20" data-name="Path 20" d="M41.585,26.9,39.4,24.713,42.386,21.8l2.185,2.185Z" transform="translate(-10.683 -6)" opacity="0.8" fill="url(#linear-gradient-2)"/>
      <g id="Group_4" data-name="Group 4" transform="translate(154.759 9.779)">
        <path id="Path_21" data-name="Path 21" d="M216.621,17.7v-.364a1.092,1.092,0,0,0-.073-.437l-.218-.291h0a.51.51,0,0,0,.364-.51.655.655,0,0,0-.291-.583,1.238,1.238,0,0,0-.728-.218H214.8v2.622h.437V16.829h.583l.364.146a.51.51,0,0,1,.146.364,4.516,4.516,0,0,0,0,.51h.437Zm-.437-1.6a.364.364,0,0,1-.218.291h-.874v-.8h.947a.437.437,0,0,1,.218.51Z" transform="translate(-213.113 -14.013)" fill="#1a2a36"/>
        <path id="Path_22" data-name="Path 22" d="M217.374,14.82a2.476,2.476,0,0,0-.947-.947,2.694,2.694,0,0,0-2.622,0,2.476,2.476,0,0,0-.947.947,2.549,2.549,0,0,0,.947,3.568,2.694,2.694,0,0,0,2.622,0A2.622,2.622,0,0,0,217.374,14.82Zm-2.258,3.568a2.258,2.258,0,0,1-1.165-.291,2.185,2.185,0,0,1-.8-.8,2.194,2.194,0,0,1,0-2.185,2.185,2.185,0,0,1,.8-.8,2.476,2.476,0,0,1,2.33,0,2.185,2.185,0,0,1,.8.8,2.257,2.257,0,0,1,0,2.185,2.185,2.185,0,0,1-.8.8,2.257,2.257,0,0,1-1.165.218Z" transform="translate(-212.483 -13.533)" fill="#1a2a36"/>
      </g>
      <path id="Path_23" data-name="Path 23" d="M116.381,23.945a6.355,6.355,0,0,1,1.675,4.806v8.3h-4.224V29.407a3.787,3.787,0,0,0-.728-2.549,2.767,2.767,0,0,0-2.185-.874A3.35,3.35,0,0,0,108.37,27a4.078,4.078,0,0,0-.947,2.913v7.209H103.2v-15.8a4.224,4.224,0,0,1,4.224-4.224h0v6.991a5.607,5.607,0,0,1,2.039-1.311,7.355,7.355,0,0,1,2.622-.437A5.971,5.971,0,0,1,116.381,23.945Z" transform="translate(-28.023 -4.723)" fill="#1a2a36"/>
      <path id="Path_24" data-name="Path 24" d="M155.469,18.8V33.947h9.467v3.568H151.1V23.169A4.369,4.369,0,0,1,155.469,18.8Z" transform="translate(-41.041 -5.185)" fill="#1a2a36"/>
      <path id="Path_25" data-name="Path 25" d="M173.126,21.442a2.654,2.654,0,0,1,3.787-3.714,2.4,2.4,0,0,1,.728,1.821,2.622,2.622,0,0,1-.728,1.893,2.767,2.767,0,0,1-3.787,0Z" transform="translate(-46.827 -4.695)" fill="#1a2a36"/>
      <rect id="Rectangle_3" data-name="Rectangle 3" width="4.224" height="12.722" transform="translate(126.08 19.659)" fill="#1a2a36"/>
      <path id="Path_26" data-name="Path 26" d="M141.329,27.564a6.7,6.7,0,0,0-2.622-2.622A7.428,7.428,0,0,0,134.993,24a5.607,5.607,0,0,0-4.588,1.893V24a4.224,4.224,0,0,0-4.005,4.224v15.73h4.224V37.176a5.607,5.607,0,0,0,4.369,1.748,7.428,7.428,0,0,0,3.714-.947,6.7,6.7,0,0,0,2.622-2.622,8.489,8.489,0,0,0,0-7.792Zm-4.3,6.554a3.568,3.568,0,0,1-2.694,1.092,3.645,3.645,0,1,1,2.694-6.263,3.35,3.35,0,0,1,.728,1.02,4.952,4.952,0,0,1,.218,1.6,5.39,5.39,0,0,1-.073,1.092,3.569,3.569,0,0,1-.874,1.384Z" transform="translate(-34.328 -6.593)" fill="#1a2a36"/>
      <path id="Path_27" data-name="Path 27" d="M193.713,31.863a4.369,4.369,0,0,0-1.966-1.238l-2.913-.655-2.33-.51a.947.947,0,0,1-.728-.947,1.092,1.092,0,0,1,.655-.947,4.224,4.224,0,0,1,2.039-.364,8.447,8.447,0,0,1,4.224,1.092l1.384-2.986a8.593,8.593,0,0,0-2.549-.947A14.127,14.127,0,0,0,188.47,24a9.977,9.977,0,0,0-3.641.583,5.17,5.17,0,0,0-2.33,1.675,4.005,4.005,0,0,0-.8,2.476,3.568,3.568,0,0,0,.874,2.549,4.588,4.588,0,0,0,2.039,1.238l2.913.655a10.778,10.778,0,0,1,2.257.437.947.947,0,0,1,.728.874q0,1.311-2.694,1.311a9.9,9.9,0,0,1-2.694-.364,9.248,9.248,0,0,1-1.966-.8l-1.384,3.059a10.268,10.268,0,0,0,2.4.874,14.127,14.127,0,0,0,3.568.437,10.559,10.559,0,0,0,3.714-.583,5.17,5.17,0,0,0,2.4-1.6,3.86,3.86,0,0,0,.8-2.4,3.5,3.5,0,0,0-.947-2.549Z" transform="translate(-49.355 -6.597)" fill="#1a2a36"/>
      <path id="Path_28" data-name="Path 28" d="M94.3,31.5a7.938,7.938,0,0,0-.947-3.932,6.7,6.7,0,0,0-2.622-2.622A7.428,7.428,0,0,0,87.093,24a5.607,5.607,0,0,0-4.588,1.893V24A4.224,4.224,0,0,0,78.5,28.219v15.73h4.224V37.176a5.607,5.607,0,0,0,4.369,1.748,7.428,7.428,0,0,0,3.714-.947,6.7,6.7,0,0,0,2.622-2.622A7.938,7.938,0,0,0,94.3,31.5Zm-11.652,0h0a3.568,3.568,0,0,1,3.714-3.641,3.641,3.641,0,0,1,2.694.947,3.277,3.277,0,0,1,1.02,1.966,5.682,5.682,0,0,1,.073.655,3.714,3.714,0,0,1-1.092,2.622A3.7,3.7,0,0,1,82.651,31.5Z" transform="translate(-21.31 -6.593)" fill="#1a2a36"/>
      <path id="Path_29" data-name="Path 29" d="M210.763,34.172a2.694,2.694,0,0,1-1.675.51,1.748,1.748,0,0,1-1.311-.51,1.966,1.966,0,0,1-.51-1.384v-5.17h3.423a3.277,3.277,0,0,0-1.02-2.33h0a3.641,3.641,0,0,0-2.4-.947h0V20.7h-4.151v3.641h-.728a1.639,1.639,0,0,0,0,3.277h.655v5.243a5.1,5.1,0,0,0,1.384,3.86,5.68,5.68,0,0,0,4.005,1.311,7.792,7.792,0,0,0,1.893-.218,4.369,4.369,0,0,0,1.529-.655Z" transform="translate(-54.535 -5.701)" fill="#1a2a36"/>
    </g>
  </g>
</svg>