<svg width="188" height="67" viewBox="0 0 188 67" fill="none" xmlns="http://www.w3.org/2000/svg">
<path d="M104.054 57.9749C111.029 57.9749 113.134 56.9221 116.951 52.1843C116.951 54.9463 119.19 57.1853 121.952 57.1853H126.953V15.2039H116.425V38.6293C116.425 45.4726 112.871 49.4207 107.344 49.4207C102.211 49.4207 100.237 46.5254 100.237 40.8665V15.2039H89.7091V42.9721C89.8407 53.1056 94.5784 57.9749 104.054 57.9749Z" fill="#1F78D1"/>
<path d="M169.054 14.4164L162.264 14.4161L158.82 22.9542C158.82 22.9542 177.208 20.9468 177.208 27.7902V28.7114C177.076 30.6855 175.76 31.7383 171.812 32.0015L164.574 32.7911C154.046 33.5807 150.098 38.7133 150.098 45.1618C150.098 52.9264 155.362 57.9273 165.232 57.9273C172.075 57.9273 174.971 57.1377 177.208 52.9264C177.34 52.7948 177.471 52.5316 177.603 52.2684C177.603 54.9576 179.783 57.1377 182.472 57.1377H187.605V29.6326C187.736 21.0784 181.951 14.548 169.054 14.4164ZM177.208 39.5029C177.208 45.5566 173.523 50.5575 167.075 50.5575C161.679 50.5575 159.31 48.0571 159.31 44.2406C159.31 41.2137 161.416 38.9765 166.68 38.5817L171.681 38.1868C174.576 37.9236 176.418 37.3972 177.208 36.6076V39.5029Z" fill="#1F78D1"/>
<path d="M157.22 14.4168H154.671C148.88 14.4168 144.61 17.4351 142.9 22.1728V15.1979H132.898V48.7984C132.898 53.427 136.65 57.1792 141.279 57.1792H143.426V34.5435C143.426 25.7204 147.506 22.9624 153.789 22.9624L157.22 14.4168Z" fill="#1F78D1"/>
<path d="M16.3966 66.1735L28.4015 32.5012C18.2998 33.8188 9.07653 38.0644 1.31726 44.5061C3.22048 53.4365 8.78372 61.0494 16.3966 66.1735Z" fill="#1F78D1"/>
<path d="M54.9003 66.1735C62.6596 61.3422 68.2228 53.5829 70.2724 44.5061C62.5132 37.7716 53.2899 33.526 43.1882 32.5012L54.9003 66.1735Z" fill="#1F78D1"/>
<path d="M71.4438 37.6251V36.0147C71.4438 15.9577 55.4861 0 35.8683 0C16.2505 0 0 15.9577 0 36.0147V37.6251C10.3945 29.8659 22.8386 25.6202 35.8683 25.6202C48.6052 25.6202 61.0493 29.8659 71.4438 37.6251Z" fill="#1F78D1"/>
</svg>
