<svg xmlns="http://www.w3.org/2000/svg" enable-background="new 0 0 603.4 112.6" version="1.1" viewBox="0 0 603.4 112.6" xml:space="preserve"><style type="text/css">.st0{fill:#ec1e1e}</style><polygon points="0 .5 0 110.9 145.2 110.9 145.2 79.3 47.3 79.3 47.3 71.4 145.2 71.4 145.2 39.9 47.3 39.9 47.3 32 145.2 32 145.2 .5" class="st0"/><polygon points="305.1 .5 305.1 110.9 352.4 110.9 352.4 71.4 450.3 71.4 450.3 39.9 352.4 39.9 352.4 32 450.3 32 450.3 .5" class="st0"/><path d="M153.1,0.5h10.6v4.8h-6v8.3h4.3v5.1h-4.3v8.7h6V32h-10.6V0.5z"/><path d="M166.2,0.5h4.6v27.3h6.1V32h-10.8V0.5z"/><path d="M179.4,0.5H190v4.8h-6v8.3h4.3v5.1H184v8.7h6V32h-10.6V0.5z"/><path d="m204.8 21.2v4.3c0 1.3-0.3 2.4-0.8 3.4-0.4 0.9-1 1.7-1.8 2.3-0.9 0.7-2 1.1-3.6 1.1-1.5 0-2.7-0.4-3.6-1.1-0.9-0.6-1.4-1.5-1.8-2.3-0.5-1-0.7-2.1-0.8-3.4v-18.6c0-1.2 0.3-2.4 0.8-3.4 0.4-0.9 0.9-1.7 1.8-2.4 0.9-0.6 2.1-1.1 3.6-1.1s2.7 0.4 3.6 1.1c0.9 0.6 1.5 1.5 1.8 2.4 0.5 1 0.7 2.1 0.8 3.4v4.3h-4.3v-4.3c0-0.9-0.2-1.5-0.7-2-0.2-0.2-0.6-0.3-1.1-0.3-0.8 0-1.2 0.6-1.4 1.2-0.1 0.3-0.2 0.7-0.2 1.2v18.6c0 0.9 0.3 1.5 0.7 2 0.2 0.2 0.5 0.3 0.9 0.3 1 0 1.4-0.5 1.6-1.2 0.1-0.3 0.2-0.7 0.2-1.2v-4.3h4.3z"/><path d="M206.2,5.2V0.5h13.4v4.8h-4.4V32h-4.6V5.2H206.2z"/><path d="m229.9 32-2.4-13.3h-1.2v13.3h-4.6v-31.5h4.6c5.5 0 7.9 3.1 7.9 9.1 0 3.1-0.8 6-2.6 7.2l3 15.3h-4.7zm-3.6-17.6c0.6 0 1.5-0.1 2.2-0.7s1.2-1.8 1.2-4-0.6-3.4-1.2-4c-0.7-0.6-1.5-0.6-2.2-0.6v9.3z"/><path d="m249.4 25.5c0 1.3-0.3 2.4-0.8 3.4-0.4 0.9-1 1.7-1.8 2.3-0.9 0.7-2 1.1-3.6 1.1-1.5 0-2.7-0.4-3.6-1.1-0.9-0.6-1.4-1.5-1.8-2.3-0.5-1-0.7-2.1-0.8-3.4v-18.6c0-1.2 0.3-2.4 0.8-3.4 0.4-0.9 0.9-1.7 1.8-2.4 0.9-0.6 2.1-1.1 3.6-1.1s2.7 0.4 3.6 1.1c0.9 0.6 1.5 1.5 1.8 2.4 0.5 1 0.7 2.1 0.8 3.4v18.6zm-4.6-18.6c0-0.9-0.2-1.5-0.6-2-0.2-0.2-0.6-0.3-0.9-0.3-0.8 0-1.2 0.6-1.4 1.2-0.1 0.3-0.2 0.7-0.2 1.2v18.6c0 0.9 0.2 1.5 0.6 2 0.2 0.2 0.5 0.3 0.9 0.3 0.8 0 1.2-0.5 1.4-1.2 0.1-0.3 0.2-0.7 0.2-1.2v-18.6z"/><path d="M257.7,15.6l-0.4-1.5H257V32h-4.3V0.5h4.1l4.5,16.4l0.4,1.5h0.3V0.5h4.3V32h-4.1L257.7,15.6z"/><path d="M269.9,0.5h4.6V32h-4.6V0.5z"/><path d="m290.3 21.2v4.3c0 1.3-0.3 2.4-0.8 3.4-0.4 0.9-1 1.7-1.8 2.3-0.9 0.7-2 1.1-3.6 1.1-1.5 0-2.7-0.4-3.6-1.1-0.9-0.6-1.4-1.5-1.8-2.3-0.5-1-0.7-2.1-0.8-3.4v-18.6c0-1.2 0.3-2.4 0.8-3.4 0.4-0.9 0.9-1.7 1.8-2.4 0.9-0.6 2.1-1.1 3.6-1.1s2.7 0.4 3.6 1.1c0.9 0.6 1.5 1.5 1.8 2.4 0.5 1 0.7 2.1 0.8 3.4v4.3h-4.3v-4.3c0-0.9-0.2-1.5-0.7-2-0.2-0.2-0.6-0.3-1.1-0.3-0.8 0-1.2 0.6-1.4 1.2-0.1 0.3-0.2 0.7-0.2 1.2v18.6c0 0.9 0.3 1.5 0.7 2 0.2 0.2 0.5 0.3 0.9 0.3 1 0 1.4-0.5 1.6-1.2 0.1-0.3 0.2-0.7 0.2-1.2v-4.3h4.3z"/><path d="m163.7 44.7h-6v8.3h4.3v4.8h-4.3v13.7h-4.6v-31.6h10.6v4.8z"/><path d="m174.5 71.5-2.4-13.3h-1.2v13.3h-4.6v-31.6h4.6c5.5 0 7.9 3.1 7.9 9.1 0 3.1-0.8 6-2.6 7.2l3 15.3h-4.7zm-3.6-17.7c0.6 0 1.5-0.1 2.2-0.7s1.2-1.8 1.2-4-0.6-3.4-1.2-4c-0.7-0.6-1.5-0.6-2.2-0.6v9.3z"/><path d="m194 65c0 1.3-0.3 2.4-0.8 3.4-0.4 0.9-1 1.7-1.8 2.3-0.9 0.7-2 1.1-3.6 1.1-1.5 0-2.7-0.4-3.6-1.1-0.9-0.6-1.4-1.5-1.8-2.3-0.5-1-0.7-2.1-0.8-3.4v-18.6c0-1.2 0.3-2.4 0.8-3.4 0.4-0.9 0.9-1.7 1.8-2.4 0.9-0.6 2.1-1.1 3.6-1.1s2.7 0.4 3.6 1.1c0.9 0.6 1.5 1.5 1.8 2.4 0.5 1 0.7 2.1 0.8 3.4v18.6zm-4.6-18.6c0-0.9-0.2-1.5-0.6-2-0.2-0.2-0.6-0.3-0.9-0.3-0.8 0-1.2 0.6-1.4 1.2-0.1 0.3-0.2 0.7-0.2 1.2v18.5c0 0.9 0.2 1.5 0.6 2 0.2 0.2 0.5 0.3 0.9 0.3 0.8 0 1.2-0.5 1.4-1.2 0.1-0.3 0.2-0.7 0.2-1.2v-18.5z"/><path d="M202.3,55l-0.4-1.5h-0.3v17.9h-4.3V39.9h4.1l4.5,16.4l0.4,1.5h0.3V39.9h4.3v31.6h-4.1L202.3,55z"/><path d="m212.9 44.7v-4.8h13.4v4.8h-4.4v26.8h-4.6v-26.8h-4.4z"/><path d="M228.3,39.9h4.6v31.6h-4.6V39.9z"/><path d="m236.6 39.9h10.6v4.8h-6v8.3h4.3v5h-4.3v8.7h6v4.8h-10.6v-31.6z"/><path d="m258.3 71.5-2.4-13.3h-1.2v13.3h-4.7v-31.6h4.6c5.5 0 7.9 3.1 7.9 9.1 0 3.1-0.8 6-2.6 7.2l3 15.3h-4.6zm-3.6-17.7c0.6 0 1.5-0.1 2.2-0.7s1.2-1.8 1.2-4-0.6-3.4-1.2-4c-0.7-0.6-1.5-0.6-2.2-0.6v9.3z"/><path d="m163.7 84.1h-6v8.3h4.3v4.8h-4.3v13.7h-4.6v-31.6h10.6v4.8z"/><path d="m178.3 104.4c0 1.3-0.3 2.4-0.8 3.4-0.4 0.9-1 1.7-1.8 2.3-0.9 0.7-2 1.1-3.6 1.1-1.5 0-2.7-0.4-3.6-1.1-0.9-0.6-1.4-1.5-1.8-2.3-0.5-1-0.7-2.1-0.8-3.4v-18.6c0-1.2 0.3-2.4 0.8-3.4 0.4-0.9 0.9-1.7 1.8-2.4 0.9-0.6 2.1-1.1 3.6-1.1s2.7 0.4 3.6 1.1c0.9 0.6 1.5 1.5 1.8 2.4 0.5 1 0.7 2.1 0.8 3.4v18.6zm-4.6-18.6c0-0.9-0.2-1.5-0.6-2-0.2-0.2-0.6-0.3-0.9-0.3-0.8 0-1.2 0.6-1.4 1.2-0.1 0.3-0.2 0.7-0.2 1.2v18.6c0 0.9 0.2 1.5 0.6 2 0.2 0.2 0.5 0.3 0.9 0.3 0.8 0 1.2-0.5 1.4-1.2 0.1-0.3 0.2-0.7 0.2-1.2v-18.6z"/><path d="m194 79.3v25.1c0 1.3-0.3 2.4-0.8 3.4-0.4 0.9-1 1.7-1.8 2.3-0.9 0.7-2 1.1-3.6 1.1-1.5 0-2.7-0.4-3.6-1.1-0.9-0.6-1.4-1.5-1.8-2.3-0.5-1-0.7-2.1-0.8-3.4v-25.1h4.6v25.1c0 0.9 0.2 1.5 0.6 2 0.2 0.2 0.5 0.3 0.9 0.3 0.8 0 1.2-0.5 1.4-1.2 0.1-0.3 0.2-0.7 0.2-1.2v-25h4.7z"/><path d="M202.5,94.4l-0.4-1.5h-0.3v17.9h-4.3V79.3h4.1l4.5,16.4l0.4,1.5h0.3V79.3h4.3v31.6H207L202.5,94.4z"/><path d="m214.8 110.9v-31.6h3.7c4.3 0 6.6 0.9 7.9 3.3 1.2 2.4 1.4 6.4 1.4 12.5 0 6.2-0.2 10.1-1.4 12.5s-3.6 3.3-7.9 3.3h-3.7zm4.6-4.7c1.6 0 2.5-0.2 3-1.7 0.2-0.7 0.4-1.8 0.4-3.4v-6.1-6.1c0-1.5-0.2-2.6-0.4-3.4-0.5-1.5-1.4-1.7-3-1.7v22.4z"/><path d="m229.3 110.9 4.8-31.6h5.7l4.8 31.6h-4.6l-0.9-6.4h-4.5l-0.9 6.4h-4.4zm7.9-21.3-0.1-0.8h-0.3l-0.1 0.8-1.3 10h3.2l-1.4-10z"/><path d="m243.9 84.1v-4.8h13.4v4.8h-4.4v26.8h-4.6v-26.8h-4.4z"/><path d="M260,79.3h4.6v31.6H260V79.3z"/><path d="m280.3 104.4c0 1.3-0.3 2.4-0.8 3.4-0.4 0.9-1 1.7-1.8 2.3-0.9 0.7-2 1.1-3.6 1.1-1.5 0-2.7-0.4-3.6-1.1-0.9-0.6-1.4-1.5-1.8-2.3-0.5-1-0.7-2.1-0.8-3.4v-18.6c0-1.2 0.3-2.4 0.8-3.4 0.4-0.9 0.9-1.7 1.8-2.4 0.9-0.6 2.1-1.1 3.6-1.1s2.7 0.4 3.6 1.1c0.9 0.6 1.5 1.5 1.8 2.4 0.5 1 0.7 2.1 0.8 3.4v18.6zm-4.6-18.6c0-0.9-0.2-1.5-0.6-2-0.2-0.2-0.6-0.3-0.9-0.3-0.8 0-1.2 0.6-1.4 1.2-0.1 0.3-0.2 0.7-0.2 1.2v18.6c0 0.9 0.2 1.5 0.6 2 0.2 0.2 0.5 0.3 0.9 0.3 0.8 0 1.2-0.5 1.4-1.2 0.1-0.3 0.2-0.7 0.2-1.2v-18.6z"/><path d="m288.6 94.4-0.4-1.5h-0.3v17.9h-4.3v-31.5h4.1l4.5 16.4 0.4 1.5h0.3v-17.9h4.3v31.6h-4.1l-4.5-16.5z"/><polygon points="458.2 .5 458.2 110.9 505.5 110.9 505.5 71.4 603.4 71.4 603.4 39.9 505.5 39.9 505.5 32 603.4 32 603.4 .5" class="st0"/></svg>