<svg width="483.12" height="252.07" version="1.1" xmlns="http://www.w3.org/2000/svg"><g transform="translate(-115.58 -514.9)"><g transform="translate(59.318 219.99)" fill="none"><g transform="translate(54.188 293)"><path d="m2.189 84.694c5e-3 -2.452 0.996-4.673 2.595-6.282s3.807-2.607 6.243-2.612l30.84 8.801 30.873-8.915c2.436-4e-3 4.639 0.985 6.233 2.589s2.577 3.821 2.572 6.272l-8.859 31.069 8.745 31.037c-4e-3 2.451-0.996 4.672-2.595 6.282s-3.806 2.607-6.242 2.612c0 0-30.841-8.801-30.841-8.801l-30.873 8.915c-2.436 5e-3 -4.64-0.985-6.233-2.588-1.593-1.604-2.577-3.821-2.572-6.273l8.859-31.069-8.745-31.037z" fill="#4ad2f0"/></g><g transform="translate(54.188 293)"><path d="m63.727 9.234c1.131-2.931 3.337-5.132 5.989-6.323s5.751-1.371 8.667-0.257l32.85 24.689 41.024 3.513c2.916 1.113 5.097 3.309 6.267 5.959s1.328 5.754 0.197 8.685l-24.863 33.098s-3.791 41.142-3.791 41.142c-1.131 2.93-3.337 5.132-5.989 6.323s-5.75 1.371-8.667 0.258l-32.85-24.69-41.024-3.513c-2.916-1.113-5.098-3.309-6.267-5.959-1.17-2.65-1.327-5.754-0.196-8.685l24.863-33.097 3.79-41.143z" fill="#d0f400"/></g><g transform="translate(54.188 293)"><path d="m65.827 175.08c-0.51-1.335-0.434-2.752 0.1-3.962s1.527-2.214 2.853-2.726l18.628-1.653 14.944-11.305c1.325-0.512 2.731-0.433 3.934 0.107s2.201 1.542 2.711 2.877l1.67 18.765 11.247 15.068c0.51 1.335 0.434 2.751-0.1 3.962s-1.527 2.215-2.852 2.727l-18.628 1.653-14.944 11.305c-1.325 0.511-2.732 0.433-3.934-0.107s-2.201-1.542-2.711-2.877l-1.67-18.764-11.248-15.07z" fill="#3394ce"/></g><g transform="translate(54.188 293)"><path d="m35.575 82.806 6.292 1.795 30.873-8.915c2.436-4e-3 4.639 0.985 6.233 2.589s2.577 3.821 2.572 6.272l-4.73 16.59-35.278-3.021c-2.916-1.113-5.098-3.309-6.267-5.959-1.17-2.65-1.327-5.754-0.196-8.685-1e-3 2e-3 0.501-0.666 0.501-0.666z" fill="#6bb340"/></g><g transform="translate(54.188 293)"><path d="m182.24 121.08-0.085 18.031h23.358c4.063 0 7.357 3.294 7.357 7.357s-3.294 7.357-7.357 7.357h-23.358v91.975c0 4.515-3.66 8.174-8.174 8.174s-8.174-3.66-8.174-8.174v-91.975h-14.164c-4.063 0-7.357-3.294-7.357-7.357s3.294-7.357 7.357-7.357h13.962v-16.11c0-19.822 12.463-29.833 31.265-29.833h8.644c4.063 0 7.357 3.294 7.357 7.357s-3.294 7.357-7.357 7.357h-8.644c-11.105 1e-3 -14.63 3.987-14.63 13.198z" fill="#202d79"/></g><g transform="translate(54.188 293)"><path d="m355.09 121.08-0.085 18.031h23.358c4.063 0 7.357 3.294 7.357 7.357s-3.294 7.357-7.357 7.357h-23.358v91.975c0 4.515-3.66 8.174-8.174 8.174s-8.174-3.66-8.174-8.174v-91.975h-14.165c-4.063 0-7.357-3.294-7.357-7.357s3.294-7.357 7.357-7.357h13.962v-16.11c0-19.822 12.463-29.833 31.265-29.833h8.644c4.063 0 7.357 3.294 7.357 7.357s-3.294 7.357-7.357 7.357h-8.644c-11.103 1e-3 -14.629 3.987-14.629 13.198z" fill="#202d79"/></g><g transform="translate(54.188 293)"><path d="m402.66 187.03h66.916c-2.767-22.476-15.458-32.213-31.211-32.213-19.651 0-32.445 12.228-35.705 32.213zm35.995 51.454c17.733 0 25.347-9.427 28.229-13.146 0 0 3.535-4.626 5.499-5.205 1.793-0.52 3.782-0.369 5.56 0.577 3.228 1.716 4.673 5.471 3.593 8.833-0.468 1.793-1.401 4.061-2.95 6.524-5.313 8.034-17.115 17.804-40.222 17.804-31.579 0-51.811-20.318-51.811-55.31 0-30.331 15.947-59.032 51.811-59.032 27.191 0 44.701 19.157 46.838 50.121 0 11.645-4.845 12.094-17.925 12.094h-65.328c1.495 33.113 24.433 36.74 36.706 36.74z" fill="#202d79"/></g><g transform="translate(54.188 293)"><path d="m222 172.26c0-17.939 15.942-32.083 41.568-32.083l0.614 2e-3c22.041-7e-3 33.241 9.637 38.283 17.567 1.47 2.431 2.356 4.67 2.8 6.44 1.025 3.318-0.347 7.025-3.41 8.719-1.688 0.934-3.576 1.083-5.277 0.57-1.864-0.571-5.219-5.138-5.219-5.138-1.978-2.653-6.306-8.254-14.907-11.153-3.725-1.182-7.918-1.815-12.884-1.815-15.942 0-25.426 6.519-25.426 16.487 0 7.143 5.046 12.913 13.723 14.729 0 0 27.439 5.85 27.439 5.85 14.933 3.229 28.049 10.949 28.049 28.655 0 18.78-16.343 32.765-42.978 32.765l-1.164 0.011c-23.107 0-34.909-9.77-40.222-17.804-1.549-2.463-2.483-4.731-2.95-6.524-1.08-3.362 0.365-7.117 3.593-8.833 1.778-0.945 3.768-1.096 5.561-0.577 1.964 0.579 5.499 5.205 5.499 5.205 2.098 2.706 6.703 8.436 15.888 11.354 4.051 1.286 8.664 1.955 13.795 1.955 17.756 0 26.635-7.081 26.635-16.949 0-6.758-5.046-12.51-13.319-14.326l-28.249-5.85c-14.933-3.028-27.442-11.989-27.442-29.257z" fill="#202d79"/></g></g></g></svg>
