<svg width="66.793mm" height="20.384mm" version="1.1" viewBox="0 0 66.793 20.384" xmlns="http://www.w3.org/2000/svg"><g transform="translate(-74.422 -135.18)"><g transform="matrix(.4006 0 0 .4006 69.659 132.96)"><circle cx="37.331" cy="30.985" r="25.442" fill="#2c2c2c"/><path d="m33.235 48.484c-3.559 0-6.454-2.895-6.454-6.454 0-1.206 0.324-2.372 0.938-3.373l0.077-0.126 3.748-3.734-16.336-16.452c0-0.426 0.941-1.912 1.399-2.16l16.693 16.86 6.133-6.11-3.483-3.478-0.06-0.08c-0.787-1.082-1.168-2.288-1.168-3.688 0-3.559 2.896-6.454 6.454-6.454s6.453 2.895 6.453 6.454c0 1.537-0.521 2.922-1.547 4.119l-0.065 0.071-3.067 3.058 16.614 16.579c-0.025 0.317-0.989 1.968-1.343 2.088l-17.03-16.915-6.142 6.119 3.291 3.333c0.883 1.155 1.349 2.499 1.349 3.89-1e-3 3.558-2.896 6.453-6.454 6.453zm-3.469-8.411c-0.329 0.584-0.502 1.257-0.502 1.958 0 2.188 1.782 3.971 3.972 3.971s3.974-1.781 3.974-3.971c0-0.83-0.269-1.609-0.794-2.321l-3.122-3.15zm8.082-18.228 3.345 3.339 3.037-3.026c0.619-0.735 0.919-1.542 0.919-2.467 0-2.19-1.78-3.971-3.971-3.971s-3.972 1.781-3.972 3.971c1e-3 0.835 0.205 1.523 0.642 2.154z" fill="#fff"/><g fill="#2c2c2c"><path d="m75.301 25.808c1.53-1.693 2.958-2.438 4.997-2.438 5.236 0 7.921 4.556 7.921 9.043s-2.754 9.315-7.921 9.281c-2.144 0-3.671-0.714-4.997-2.176v7.955h-3.06v-23.627h3.06zm4.997 13.132c2.992 0 4.726-3.06 4.726-6.459 0-3.332-1.698-6.323-4.726-6.323-6.969 0-6.969 12.782 0 12.782z"/><path d="m94.17 25.808c1.122-2.057 2.89-2.71 4.896-2.71 4.861 0 6.527 3.468 6.527 7.445v10.403h-3.06v-10.403c0-2.55-0.852-4.691-3.47-4.691-2.992 0-4.896 1.802-4.896 4.691v10.403h-3.062v-24.546h3.062z"/><path d="m112.29 25.808c1.527-1.693 2.957-2.438 4.997-2.438 5.233 0 7.922 4.556 7.922 9.043s-2.754 9.315-7.922 9.281c-2.144 0-3.672-0.714-4.997-2.176v7.955h-3.062v-23.627h3.062zm4.997 13.132c2.99 0 4.726-3.06 4.726-6.459 0-3.332-1.7-6.323-4.726-6.323-6.969 0-6.969 12.782 0 12.782z"/><path d="m128.86 40.946v-24.546h3.229v21.622h12.341v2.924z"/><path d="m146.74 19.834v-3.434h3.4v3.434zm0.17 21.112v-17.372h3.061v17.372z"/><path d="m152.91 34.963h3.195c0.17 2.584 1.77 3.773 3.738 3.773 2.006 0 3.943-0.918 3.943-2.754 0-0.884-0.512-1.428-1.395-1.835-0.477-0.204-1.02-0.374-1.633-0.545-3.16-0.781-7.785-1.121-7.785-5.371 0-3.808 3.469-4.861 6.562-4.861 3.363 0 6.936 1.462 6.936 6.392h-3.229c0-2.958-1.904-3.672-3.705-3.672-1.734 0-3.332 0.646-3.332 2.142 0 0.714 0.439 1.156 1.395 1.53 0.477 0.204 1.055 0.374 1.664 0.51 0.613 0.136 1.293 0.306 1.975 0.441 2.686 0.646 5.812 1.666 5.812 5.27 0 3.944-3.807 5.474-7.139 5.474-3.5-1e-3 -6.934-2.074-7.002-6.494z"/><path d="m171.44 36.119v-9.689h-3.398v-2.55h3.398v-4.521h3.062v4.521h4.113v2.55h-4.113v9.689c0 1.224-0.035 2.753 1.562 2.753 0.309 0 0.613-0.067 0.953-0.102 0.34-0.068 0.682-0.136 1.6-0.238v2.516c-1.09 0.272-1.805 0.408-2.584 0.408-4.253 0-4.593-2.21-4.593-5.337z"/></g></g></g></svg>
