<svg xmlns="http://www.w3.org/2000/svg" viewBox="0 0 675.141 129.622" width="160" height="33"><g fill="#009ee0"><path d="M330.783 112.372c5.687 6.928 14.075 11.643 23.495 11.639h.049c.855 0 4.283-.077 6.317-.125l-.347-14.004-1.881.043c-1.689.037-3.446.074-3.984.076l-.002.002H354.311c-4.704 0-9.169-2.276-12.727-6.545-3.533-4.271-5.905-10.455-5.91-17.455V59.601h19.998V45.596h-19.998v-1.5-29.751l-14.012-.002v31.253l-5.745-.002v14.01h5.745v26.324c.012 10.156 3.372 19.457 9.121 26.444zM276.888 59.493c-5.75 6.984-9.11 16.284-9.125 26.444v38.573h14.007V85.976v-.065c.003-7.025 2.377-13.227 5.925-17.512 3.539-4.244 7.979-6.522 12.658-6.539l.122-.002c.717 0 5.544.084 8.044.128l.35-13.996-3.033-.059c-2.32-.042-4.813-.083-5.414-.081h-.051l-.027-.002c-9.399.01-17.777 4.719-23.453 11.643l-1.161-.949 1.158.951zM158.641 85.831c.431-.01.789-.018 1.101-.018a5.2 5.2 0 01.271-.01c.01 0 .049-.004.112-.004.078 0 .185 0 .693-.033 8.838-.83 16.192-6.09 20.619-13.014 4.527-6.991 6.699-15.664 6.714-24.933-.02-18.823-11.694-35.416-29.057-37.861-1.572-.158-2.662-.13-4.617-.188a399.542 399.542 0 00-3.923-.036h-.081l-.02-.002c-9.398.023-17.769 4.72-23.443 11.652-5.747 6.977-9.108 16.284-9.113 26.436v77.588h14.007V47.854c0-.013 0-.034-.002-.065.005-7.021 2.372-13.216 5.917-17.5 3.558-4.271 8.024-6.538 12.734-6.545.37 0 2.079.017 3.718.038.804.015 1.608.029 2.257.058v-.001c.321.007.599.017.777.024h.017l.037.005h.085l.085.01c8.467 1.062 16.541 10.715 16.612 23.846v.197c-.007 7.001-1.744 13.074-4.454 17.2-2.657 3.979-5.908 6.172-10.019 6.674l-.076.011h-.092c-1.364.024-9.715.041-15.658.055v14.011c3.509-.006 9.17-.014 11.226-.021 1.44-.013 2.662-.02 3.573-.02zM223.307 47.849h-.048c-9.418 0-17.808 4.702-23.495 11.645-5.747 6.984-9.11 16.284-9.117 26.441.007 10.147 3.37 19.455 9.12 26.435 5.684 6.937 14.068 11.637 23.487 11.646l.051-.001.054.001.04.003c.578-.001 2.643-.009 4.747-.021 1.105-.011 2.205-.024 3.115-.035 1.11-.031 1.283 0 2.306-.088 8.842-.826 16.194-6.078 20.626-13.012 4.527-6.988 6.696-15.654 6.711-24.926-.022-18.85-11.708-35.442-29.086-37.867l-.152-.021c-1.469-.13-2.553-.105-4.433-.161v-.001a468.401 468.401 0 00-3.926-.038zm5.703 14.086l.027-.096 1.269.15c8.479 1.086 16.551 10.763 16.591 23.906v.171c-.007 6.983-1.749 13.048-4.451 17.146l-1.25-.826 1.242.837c-2.688 4.055-6.002 6.252-10.201 6.709l-1.675.196v-.174c-2.596.034-6.815.055-7.257.055-4.708 0-9.179-2.273-12.736-6.555-3.536-4.263-5.905-10.455-5.91-17.445 0-.018-.002-.055 0-.057v-.091c.002-7.003 2.375-13.187 5.915-17.462 3.556-4.267 8.024-6.541 12.733-6.546.37 0 2.08.015 3.721.046.692.015 1.389.021 1.982.036z"></path></g><path fill="#009ee0" d="M70.716 76.435V59.267H16.84v17.168H0V124.5h87.556V76.435h-16.84zm-16.322 36.771h-21.02l3.14-16.742c-2.217-2.012-3.618-4.905-3.618-8.133 0-6.066 4.918-10.99 10.988-10.99 6.069 0 10.988 4.924 10.988 10.99 0 3.228-1.401 6.121-3.618 8.133l3.14 16.742z"></path><path fill="#009ee0" d="M.139 70.616V43.758C.141 19.592 19.723.004 43.896 0c24.17.004 43.75 19.592 43.758 43.758v26.856H75.227V43.758c-.033-17.301-14.029-31.302-31.331-31.331-17.306.029-31.301 14.03-31.33 31.331v26.858H.139zM675.141 46.708h-16.685L641.672 72.84l-16.779-26.132h-16.677l25.12 40.117-22.191 39.211h16.675l13.852-25.226 13.855 25.226h16.684l-22.193-39.211zM410.854 88.901c5.331 3.85 10.633 10.674 14.53 17.823 2.57 4.614 4.524 15.396 5.736 19.312h15.731c-1.936-8.752-6.562-25.293-13.308-35.018-3.839-5.441-8.333-10.499-13.688-14.424h-.001c-.466-.34-.968-.674-1.488-1.02l-1.289-.857.896-1.26a76.9 76.9 0 003.238-4.984c9.349-16.13 15.41-43.042 17.209-53.346l-6.088-.842h-9.246c-1.318 6.578-4.812 25.311-9.518 36.321-2.722 6.458-5.895 11.405-8.933 15.264-1.327 1.729-2.587 2.948-3.606 3.717l-.397.297-.499.002-5.988.013c-2.562.003-4.85.011-6.192.022l-1.514.012V14.286h-15.245v111.75h15.245V85.263l1.512.012c1.14.009 2.97.013 5.038.019 2.702.006 5.389.017 5.733.015 1.434 0 4.472.021 4.472.021l.341.073c2.295.48 4.736 1.615 7.319 3.498zM575.979 129.472c8.801-.88 16.157-6.483 20.608-13.931 4.543-7.502 6.729-16.812 6.745-26.766-.018-20.255-11.786-38.044-29.11-40.612l-.132-.021c-1.472-.143-2.554-.115-4.439-.174v-.001a568.9 568.9 0 00-3.924-.041h-.061l-.025-.002c-9.366.014-17.731 5.021-23.429 12.461-5.762 7.488-9.141 17.478-9.146 28.388.005 10.904 3.384 20.905 9.147 28.389 5.707 7.448 14.096 12.463 23.49 12.459h.022c.414 0 2.601-.006 4.84-.021 1.103-.011 2.202-.026 3.109-.036 1.118-.034 1.281 0 2.305-.092zm-10.254-15.044c-4.748 0-9.227-2.453-12.769-7.018-3.521-4.543-5.874-11.139-5.879-18.586 0-.007-.002-.029 0-.103.006-7.456 2.357-14.035 5.884-18.597 3.54-4.547 8.016-6.999 12.766-7.011.373 0 2.081.02 3.724.054.609.013 1.219.02 1.762.031l.015-.126 1.509.19c8.543 1.183 16.526 11.489 16.588 25.448l.001.002v.15c-.008 7.463-1.742 13.932-4.422 18.297l-1.277-.787 1.268.803c-2.673 4.312-5.99 6.668-10.226 7.164l-1.688.213v-.188c-2.598.04-6.815.064-7.256.064zM484.453 61.854c.019 0 .049-.001.158.018l.129.002c.295.008.833.018 1.764.027 1.572.004 3.138.028 4.329.048v-.144l1.64.153c8.562.893 16.791 10.623 16.861 23.892v.088c0 .718-.05 30.79-.065 40.101h14.014c.012-9.348.061-39.33.061-40.101-.023-18.835-11.693-35.419-29.062-37.871-.906-.087-.863-.057-1.521-.088v-.001a425.186 425.186 0 00-8.456-.125h-.067l-.019-.003c-9.405.013-17.778 4.713-23.458 11.647-5.75 6.982-9.108 16.281-9.114 26.44 0 .785.067 30.712.088 40.102h14.009c-.021-9.365-.087-39.369-.087-40.072 0-.01-.003-.03-.003-.062.005-7.021 2.378-13.219 5.915-17.496 3.558-4.272 8.024-6.547 12.736-6.554l.119.002c.012-.003.018-.003.029-.003zM420.74 75.383v.002-.002z"></path></svg>
