<svg width="93" height="30" version="1.1" xmlns="http://www.w3.org/2000/svg" xmlns:xlink="http://www.w3.org/1999/xlink"><path d="m27.493 22.936c-0.569-0.13-1.173-0.213-1.783-0.213-1.045 0-1.995 0.182-2.696 0.473-0.078 0.039-0.132 0.12-0.132 0.211 0 0.034 7e-3 0.068 0.021 0.096 0.082 0.24-0.054 0.499-0.732 0.65-1.006 0.22-1.641 1.259-2.004 1.602-0.427 0.405-1.631 0.654-1.45 0.411 0.142-0.187 0.684-0.776 1.013-1.412 0.296-0.568 0.559-0.73 0.92-1.273 0.107-0.159 0.518-0.718 0.638-1.16 0.134-0.432 0.089-0.974 0.141-1.197 0.074-0.322 0.377-1.019 0.4-1.415 0.013-0.221-0.931 0.32-1.379 0.32s-0.885-0.269-1.285-0.287c-0.495-0.024-0.814 0.381-1.263 0.309-0.255-0.04-0.472-0.265-0.918-0.281-0.637-0.024-1.416 0.353-2.877 0.307-1.438-0.047-2.766-1.818-2.947-2.099-0.213-0.329-0.473-0.329-0.755-0.069-0.283 0.257-0.633 0.054-0.731-0.119-0.189-0.33-0.693-1.293-1.474-1.496-1.08-0.28-1.627 0.598-1.556 1.295 0.072 0.709 0.531 0.908 0.744 1.285 0.211 0.376 0.32 0.62 0.718 0.787 0.284 0.118 0.389 0.292 0.305 0.524-0.074 0.202-0.368 0.249-0.563 0.258-0.411 0.02-0.699-0.092-0.91-0.226-0.244-0.157-0.444-0.373-0.656-0.74-0.248-0.406-0.637-0.582-1.09-0.582-0.216 0-0.419 0.057-0.598 0.148-0.71 0.371-1.556 0.589-2.466 0.589l-1.028 1e-3c1.969 5.837 7.492 10.039 13.997 10.039 5.195 0 9.764-2.68 12.396-6.736" fill="#fff"/><path d="m27.493 22.938c-0.569-0.132-1.173-0.214-1.783-0.214-1.045 0-1.995 0.182-2.696 0.473-0.078 0.039-0.132 0.119-0.132 0.211 0 0.033 7e-3 0.068 0.021 0.095 0.082 0.241-0.054 0.501-0.732 0.651-1.006 0.221-1.641 1.258-2.004 1.601-0.427 0.406-1.631 0.655-1.45 0.413 0.142-0.189 0.684-0.778 1.013-1.414 0.296-0.567 0.559-0.73 0.92-1.272 0.107-0.159 0.518-0.719 0.638-1.16 0.134-0.433 0.089-0.974 0.141-1.197 0.074-0.322 0.377-1.019 0.4-1.414 0.013-0.223-0.931 0.318-1.379 0.318s-0.885-0.268-1.285-0.286c-0.495-0.025-0.814 0.381-1.263 0.309-0.255-0.04-0.472-0.265-0.918-0.282-0.637-0.023-1.416 0.354-2.877 0.307-1.438-0.047-2.766-1.816-2.947-2.097-0.213-0.331-0.473-0.331-0.755-0.071-0.283 0.258-0.633 0.055-0.731-0.118-0.189-0.331-0.693-1.294-1.474-1.497-1.08-0.28-1.627 0.598-1.556 1.296 0.072 0.708 0.531 0.907 0.744 1.284 0.211 0.376 0.32 0.621 0.718 0.788 0.284 0.117 0.389 0.292 0.305 0.524-0.074 0.202-0.368 0.249-0.563 0.258-0.411 0.019-0.699-0.092-0.91-0.228-0.244-0.154-0.444-0.371-0.656-0.739-0.248-0.405-0.637-0.582-1.09-0.582-0.216 0-0.419 0.058-0.598 0.148-0.71 0.371-1.556 0.59-2.466 0.59h-1.028c-0.5-1.481-0.77-3.068-0.77-4.717 0-8.152 6.611-14.759 14.767-14.759 8.154 0 14.766 6.607 14.766 14.759 0 2.958-0.871 5.71-2.37 8.022"/><path d="m18.348 21.584c0.076 0.073 0.207 0.322 0.047 0.639-0.09 0.168-0.187 0.285-0.359 0.423-0.209 0.167-0.614 0.359-1.17 5e-3 -0.3-0.189-0.319-0.253-0.732-0.199-0.295 0.038-0.412-0.261-0.307-0.508 0.107-0.247 0.542-0.447 1.085-0.129 0.245 0.143 0.625 0.447 0.957 0.177 0.139-0.109 0.222-0.183 0.413-0.405 9e-3 -9e-3 0.021-0.014 0.035-0.014 0.012 0 0.023 4e-3 0.031 0.011"/><path d="m13.947 7.185c-1.705 0.123-1.883 0.307-2.202 0.646-0.45 0.481-1.044-0.621-1.044-0.621-0.357-0.075-0.788-0.649-0.555-1.184 0.23-0.53 0.654-0.372 0.786-0.207 0.161 0.201 0.506 0.53 0.954 0.518s0.964-0.106 1.685-0.106c0.73 0 1.22 0.272 1.247 0.507 0.025 0.199-0.059 0.387-0.871 0.447m1.792-2.817h-8e-3c-0.026 0-0.047-0.02-0.047-0.044 0-0.018 0.011-0.034 0.027-0.041 0.331-0.174 0.824-0.314 1.388-0.37 0.169-0.018 0.335-0.028 0.494-0.028h0.085c0.947 0.022 1.704 0.398 1.693 0.84-0.012 0.442-0.787 0.783-1.735 0.763-0.305-8e-3 -0.593-0.052-0.84-0.124-0.031-7e-3 -0.051-0.032-0.051-0.062 0-0.029 0.02-0.054 0.052-0.062 0.589-0.136 0.988-0.36 0.96-0.571-0.038-0.279-0.809-0.431-1.725-0.339-0.101 0.01-0.198 0.023-0.293 0.038m7.69 6.621c-0.146 0.49-0.353 1.117-1.277 1.591-0.135 0.069-0.185-0.044-0.124-0.15 0.35-0.594 0.411-0.742 0.513-0.975 0.141-0.343 0.217-0.83-0.066-1.844-0.555-1.997-1.715-4.668-2.556-5.533-0.813-0.836-2.285-1.072-3.617-0.73-0.49 0.125-1.449 0.623-3.227 0.223-3.077-0.693-3.533 0.847-3.709 1.518-0.178 0.671-0.602 2.578-0.602 2.578-0.141 0.778-0.326 2.128 4.453 3.039 2.226 0.423 2.338 0.999 2.438 1.412 0.177 0.741 0.459 1.165 0.777 1.377s0 0.388-0.353 0.423c-0.947 0.099-4.452-0.906-6.526-2.083-1.696-1.036-1.724-1.968-1.336-2.76-2.562-0.277-4.485 0.24-4.833 1.453-0.599 2.08 4.576 5.634 10.469 7.418 6.184 1.871 12.544 0.564 13.251-3.321 0.321-1.765-1.166-3.071-3.675-3.636" fill="#e93442"/><g id="a"><path d="m29.714 22.149h0.133l0.201 0.33h0.13l-0.218-0.336c0.113-0.014 0.198-0.073 0.198-0.209 0-0.151-0.089-0.217-0.268-0.217h-0.291v0.762h0.115v-0.33zm0-0.098v-0.237h0.157c0.079 0 0.165 0.019 0.165 0.112 0 0.118-0.086 0.125-0.184 0.125h-0.138z"/><path d="m30.596 22.099c0 0.411-0.334 0.745-0.746 0.745s-0.747-0.334-0.747-0.745 0.335-0.747 0.747-0.747 0.746 0.336 0.746 0.747m-0.746-0.614c-0.34 0-0.615 0.274-0.615 0.615 0 0.337 0.275 0.611 0.615 0.611 0.338 0 0.613-0.274 0.613-0.611 0-0.341-0.275-0.615-0.613-0.615"/></g><g><path d="m37.39 15.846c0-1.354-0.029-2.349-0.083-3.249h2.214l0.096 1.921h0.072c0.498-1.424 1.678-2.15 2.769-2.15 0.249 0 0.395 9e-3 0.601 0.056v2.408c-0.24-0.048-0.464-0.073-0.772-0.073-1.218 0-2.064 0.775-2.293 1.934-0.042 0.225-0.066 0.496-0.066 0.771v5.243h-2.559l0.021-6.861z"/><path d="m46.147 18.34c0.067 1.832 1.486 2.634 3.124 2.634 1.176 0 2.019-0.185 2.791-0.468l0.379 1.759c-0.865 0.367-2.066 0.64-3.534 0.64-3.285 0-5.21-2.027-5.21-5.125 0-2.791 1.693-5.43 4.947-5.43 3.29 0 4.36 2.703 4.36 4.916 0 0.476-0.042 0.856-0.09 1.094l-6.767-0.02zm4.448-1.781c0.012-0.937-0.396-2.464-2.109-2.464-1.575 0-2.23 1.429-2.345 2.464h4.454z"/><path d="m61.47 18.324c0 0.268-0.02 0.518-0.078 0.746-0.257 1.107-1.163 1.819-2.209 1.819-1.61 0-2.532-1.357-2.532-3.214 0-1.876 0.913-3.329 2.56-3.329 1.151 0 1.975 0.812 2.2 1.796 0.044 0.207 0.059 0.463 0.059 0.667v1.515zm2.556-9.621-2.556-0.721v5.704h-0.042c-0.453-0.747-1.451-1.317-2.836-1.317-2.433 0-4.551 2.012-4.535 5.399 0 3.108 1.913 5.167 4.329 5.167 1.459 0 2.681-0.695 3.285-1.828h0.045l0.115 1.601h2.28c-0.047-0.688-0.085-1.8-0.085-2.835v-11.17z"/><path d="m70.79 12.357c-0.771 0-1.462 0.222-2.041 0.58-0.602 0.352-1.091 0.897-1.383 1.459h-0.041v-4.731l-1.001-0.296v13.339h1.001v-6.188c0-0.411 0.031-0.696 0.137-0.997 0.432-1.26 1.619-2.292 3.054-2.292 2.072 0 2.79 1.661 2.79 3.483v5.994h1.001v-6.103c0-3.769-2.558-4.248-3.517-4.248"/><path d="m83.293 20.304c0 0.801 0.032 1.628 0.148 2.403h-0.922l-0.148-1.449h-0.047c-0.491 0.78-1.619 1.68-3.228 1.68-2.037 0-2.986-1.433-2.986-2.781 0-2.335 2.064-3.743 6.183-3.699v-0.27c0-1.002-0.195-2.998-2.591-2.983-0.886 0-1.809 0.237-2.542 0.754l-0.318-0.727c0.926-0.627 2.055-0.875 2.971-0.875 2.921 0 3.48 2.192 3.48 4v3.947zm-1-3.005c-2.206-0.063-5.117 0.271-5.117 2.7 0 1.454 0.96 2.108 2.015 2.108 1.687 0 2.647-1.044 2.997-2.029 0.072-0.215 0.105-0.433 0.105-0.607v-2.172z"/><path d="m87.28 10.359v2.229h2.887v0.812h-2.887v6.577c0 1.287 0.399 2.093 1.488 2.093 0.521 0 0.891-0.068 1.15-0.159l0.121 0.775c-0.327 0.138-0.786 0.243-1.397 0.243-0.739 0-1.352-0.232-1.748-0.716-0.458-0.532-0.615-1.381-0.615-2.414v-6.399h-1.708v-0.812h1.708v-1.86l1.001-0.369z"/></g><use transform="translate(61.718 .0205)" width="93" height="30" xlink:href="#a"/></svg>
