<svg xmlns="http://www.w3.org/2000/svg" width="512.15" height="70.7" version="1.1" viewBox="0 0 512.15 70.7" xml:space="preserve"><style type="text/css">.st0,.st1{fill:#4e2817}.st1{fill-rule:evenodd;clip-rule:evenodd}.st2{fill:#f26922}</style><linearGradient id="a" x1="330.31" x2="331.01" y1="115.72" y2="115.02" gradientUnits="userSpaceOnUse"><stop offset="0" stop-color="#1EAB4B"/><stop offset=".983" stop-color="#19361A"/></linearGradient><g fill="#4e2817"><path d="m102.45 65.8c-7.2 0-13.8-0.8-19.6-6.6l7.5-7.5c3.8 3.8 8.7 4.3 12.3 4.3 4 0 8.1-1.3 8.1-4.8 0-2.3-1.2-3.9-4.9-4.2l-7.2-0.7c-8.3-0.8-13.4-4.4-13.4-12.9 0-9.5 8.4-14.7 17.8-14.7 7.2 0 13.2 1.2 17.6 5.4l-7.1 7.2c-2.7-2.4-6.7-3.1-10.7-3.1-4.6 0-6.5 2.1-6.5 4.4 0 1.7 0.7 3.6 4.8 4l7.2 0.7c9.1 0.9 13.7 5.7 13.7 13.5 0 10.2-8.7 15-19.6 15z" class="st0"/><path d="m142.05 65.3c-9.4 0-13.3-6.6-13.3-13.2v-22.8h-4.9v-8.7h4.9v-13.6h11.5v13.6h8.1v8.7h-8.1v22.1c0 2.6 1.2 4.2 4 4.2h4.2v9.7z" class="st0"/><path d="m153.45 11.4v-9.4h11.8v9.4zm0.2 53.9v-46h11.5v46z" class="st0"/><path d="m191.05 65.8c-9.2 0-20.6-4.9-20.6-23.6 0-18.6 11.4-23.5 20.6-23.5 6.4 0 11.1 1.9 15.2 6.2l-7.8 7.8c-2.4-2.6-4.4-3.6-7.4-3.6-2.7 0-4.9 1-6.5 3-1.8 2.2-2.6 5.3-2.6 10.2s0.8 8 2.6 10.3c1.7 2 3.8 3 6.5 3 3 0 5-1.1 7.4-3.6l7.8 7.7c-4.1 4.1-8.8 6.1-15.2 6.1z" class="st0"/><path d="m237.95 65.3-11.3-19.2-4.9 5.5v13.7h-11.5v-62.9h11.5v35.7l15.3-18.8h13.9l-16.4 18.6 17.7 27.5h-14.3z" class="st0"/><path d="m261.75 45.8c0 5.9 3.6 10.2 10.1 10.2 5 0 7.5-1.4 10.4-4.3l7 6.8c-4.7 4.7-9.2 7.2-17.5 7.2-10.9 0-21.3-4.9-21.3-23.6 0-15 8.1-23.5 20.1-23.5 12.8 0 20.1 9.4 20.1 22v5.1h-28.9zm16.5-12.8c-1.2-2.7-3.8-4.8-7.7-4.8s-6.5 2-7.7 4.8c-0.7 1.7-1 2.9-1.1 4.9h17.5c-0.1-2-0.3-3.2-1-4.9z" class="st0"/><path d="m321.05 31.8c-1.8-1.8-3.3-2.7-6.1-2.7-3.5 0-7.4 2.7-7.4 8.5v27.7h-11.5v-46h11.2v4.4c2.2-2.7 6.6-4.9 11.6-4.9 4.5 0 7.7 1.1 10.9 4.3z" class="st0"/><path fill-rule="evenodd" d="m47.449 70.4c-0.7 0.3-1.6 0.2-2.5 0.3-0.8 0-1.9 0-2.4-0.4-0.3-0.2-0.3-0.7-0.3-1s0.1-0.8 0.1-1.1c0.1-0.4 0.2-1 0-1.3s-0.9-0.2-1.3-0.4-0.5-0.8-0.6-1.4c0-0.2-0.2-0.4-0.2-0.5-0.1-0.9 0.2-2.2 0.4-3.1 0.2-1 0.5-1.9 0.7-2.9 0.3-1.4 0.3-3 0.2-4.5 0-0.8-0.2-1.4 0-2 0.1-0.6 0.4-1.1 0.5-1.7v-0.6c0-0.2 0.1-0.3 0.1-0.5 0-0.4-0.1-0.9-0.1-1.4-0.1-1.3 0-3.2 0.1-4.3 0-0.4 0.2-0.8-0.1-1-1.4 0-2.6 0.2-3.9 0.4-3.4 0.4-7.8 0.5-11.1-0.2-0.3-0.1-0.6-0.1-0.9-0.1-2.4-0.5-4.5-1.6-6.2-2.9-0.3-0.2-0.6-0.4-0.9-0.7-0.3-0.2-0.6-0.5-0.9-0.7-1.3-0.6-3.1 0.1-3.7 1-0.2 0.3-0.4 0.8-0.6 1.2s-0.4 0.8-0.5 1.2c-0.9 2-1.9 4-2.8 6-0.5 1.2-1.1 2.5-1.5 3.8-0.8 2.8-0.1 6.5 0.6 9.2 0.1 0.2 0.2 0.5 0.3 0.8 0.2 0.6 0.6 1.5 1.1 1.9 0.3 0.2 0.7 0.4 1 0.6 0.4 0.3 0.6 0.9 0.9 1.5 0.1 0.2 0.3 0.5 0.4 0.8 0.3 0.6 0.5 1.1-0.2 1.5-0.5 0.3-1.3 0.3-2 0.4-0.3 0.1-0.2 0.5-0.4 0.7-0.1 0.1-0.6 0.3-0.8 0.4-0.9 0.3-2.5 0.3-3.2 0-0.4-0.1-0.8-0.4-0.9-0.7-0.2-0.6 0.3-1.3-0.1-1.7-0.2-0.2-0.6-0.2-0.9-0.3-0.5-0.2-0.9-0.7-1.2-1.2-0.5-1.4-0.2-3.5-0.3-5.2 0-0.5-0.1-1-0.1-1.6 0-1-0.3-2-0.4-3-0.1-0.5-0.2-0.9-0.3-1.3-0.2-0.7-0.3-1.5-0.5-2.2-0.2-0.8-0.2-1.6 0-2.2 0.1-0.2 0.3-0.4 0.4-0.6 0.2-0.4 0.2-0.8 0.2-1.2-0.1-0.2-0.6 0-0.7-0.2-0.3-2.2-0.6-4.3-0.8-6.6-0.1-0.8-0.1-1.5-0.1-2.3-0.1-1.5 0-3.1-0.2-4.6l-0.3-2.1c-0.3-2-0.8-4.5-0.4-6.6 0.3-1.3 0.7-2.4 1.5-3.4 0.5-0.7 1.1-1.3 1.7-2 0.6-0.6 1.3-1.2 2-1.7 0.5-0.3 1-0.7 1.5-1 1.1-0.5 2.6-1 4.2-1.1 1.6-0.1 3.4-0.1 4.9 0.2s3 0.5 4.5 0.8c1.4 0.3 2.8 0.7 4.2 1 0.2 0 0.3 0.2 0.5 0.2 0.4 0.1 0.9 0.1 1.4 0.3 1.3 0.3 2.9 0.5 4.5 0.5 1.7 0 3.2 0 4.6-0.4 0.2-0.1 0.4-0.2 0.6-0.2 0.2-0.1 0.5-0.1 0.7-0.1 0.1 0 0.3-0.2 0.4-0.3 0.8-0.4 1.5-0.8 2.2-1.3 0.6-0.4 1-0.7 1.8-1 0.3-0.1 0.7-0.3 1-0.4 0.7-0.2 1.5-0.4 2-0.8 0.9-0.5 1.5-1.3 2.2-2 0.7-0.6 1.5-1.3 2.3-1.9 1.6-1.3 3.2-2.4 4.7-3.6 0.8-0.6 1.6-1.2 2.5-1.7 1.7-1 3.5-2.1 6-2.3 1-0.1 2-0.1 3 0 0.3 0 0.6 0.2 0.9 0.1s0.5-0.5 0.6-0.8c0.4-0.7 0.6-1.1 1-1.9 0.2-0.5 0.1-1 0.6-1s0.4 1.3 0.4 1.8c0 0.6-0.1 1.4 0 1.8 0.1 0.3 0.5 0.7 0.9 0.7 0.3 0 0.5-0.2 0.7-0.4 0.3-0.2 0.5-0.2 0.7-0.4 0.4-0.3 0.9-0.8 1.3-1.2 0.3-0.3 0.9-1.2 1.4-1.1 1 0.1 0 1.6-0.2 2-0.5 1.1-1 2-1.6 3-0.2 0.4-0.8 1-0.8 1.5 0 0.3 0.3 0.5 0.4 0.9 0.1 0.2 0.1 0.3 0.2 0.5 0.3 0.8 0.6 1.9 0.9 2.8 0.2 0.8 0.4 1.6 0.7 2.3s0.7 1.4 1 2.2c0.1 0.2 0.1 0.4 0.2 0.6 0.6 1.6 1.2 3.4 2 5 0.3 0.6 0.7 1.4 0.7 2.3 0 1-0.5 1.5-1 2.3-0.2 0.4-0.6 1-1 1.1-0.3 0.1-0.6 0-0.9 0-0.4 0.1-0.7 0.3-1 0.3-0.9 0.1-1.8-0.6-2-1.3-0.1-0.2 0-0.5-0.1-0.8-0.2-1.1-0.8-1.6-1.5-2.4-0.5-0.5-0.9-0.8-1.5-1.1-0.9-0.5-1.8-0.7-2.8-1.2-0.3-0.2-0.8-0.4-1.1-0.3-0.5 0.1-1 0.9-1.4 1.4-2.4 3.2-4.6 6.5-6.9 9.6-1.6 2.1-3.2 4.2-4.5 6.5-0.3 0.6-0.5 1.3-0.8 2-0.2 0.7-0.4 1.4-0.6 2.2-0.9 2.6-1.2 5.8-2 8.5-0.1 0.3-0.1 0.6-0.2 0.9-0.4 1.4-0.8 3-1.2 4.5-0.3 1.1-0.4 2.6-0.5 4 0 1.4-0.1 3.3 0.4 4.1 0.3 0.5 1.2 0.6 1.5 1.1 0.2 0.3 0.4 1 0.7 1.4 0.2 0.3 0.7 0.9 0.6 1.4 0 0.3-0.3 0.6-0.6 0.7s-0.7 0.1-1 0.2c0 0.4 0.1 0.8-0.2 1z" class="st1" clip-rule="evenodd"/></g><g fill="#f26922"><path d="m381.35 18.7c-5.7 0-9.9 1.8-13.8 5.8-2.9-4-7.1-5.8-12.2-5.8-4.2 0-8.5 1.7-11.5 4.8v-4.2h-11.2v46h11.5v-27.8c0-6.3 4.1-8.4 7.7-8.4s7.6 2.1 7.6 8.4v27.8h11.5v-28.1c0-6 4.2-8.1 7.7-8.1 3.6 0 7.6 2.1 7.6 8.4v27.8h11.5v-29.4c0-5-1.3-9.4-5-13.1-2.7-2.6-6.8-4.1-11.4-4.1z" class="st2"/><path d="m431.25 47.1c0 6.3-4.1 8.4-7.7 8.4s-7.6-2.1-7.6-8.4v-27.9h-11.5v29.5c0 5 1 9.4 4.7 13.1 2.6 2.6 6.3 4.1 10.9 4.1 4.2 0 8.5-1.6 11.5-4.8v4.2h11.2v-46h-11.5z" class="st2"/><path d="m461.55 51.4v-49h-11.5v49.7c0 6.5 4 13.2 13.4 13.2h6.5v-9.7h-4.4c-2.9 0-4-1.4-4-4.2z" class="st2"/><path d="m512.15 40.7c0-12.6-7.2-22-20.1-22-11.9 0-20.1 8.5-20.1 23.5 0 18.6 10.4 23.6 21.3 23.6 8.3 0 12.8-2.6 17.5-7.2l-7-6.8c-2.9 2.9-5.4 4.3-10.4 4.3-6.5 0-10.1-4.3-10.1-10.2h28.8v-5.2zm-28.8-2.7c0.1-2 0.4-3.3 1.1-4.9 1.2-2.7 3.8-4.8 7.7-4.8s6.4 2 7.7 4.8c0.7 1.7 1 2.9 1.1 4.9z" class="st2"/></g></svg>