<!DOCTYPE svg  PUBLIC '-//W3C//DTD SVG 20010904//EN'  'http://www.w3.org/TR/2001/REC-SVG-20010904/DTD/svg10.dtd'>
<svg width="4478pt" height="1002pt" version="1.0" viewBox="0 0 4478 1002" xmlns="http://www.w3.org/2000/svg"><g transform="translate(0 1002) scale(.1 -.1)"><path d="m4735 10004c-338-60-630-216-867-462-307-321-463-757-427-1200 21-272 101-508 245-729 496-764 1531-944 2259-393 752 570 823 1687 150 2355-233 231-520 376-850 430-115 19-401 18-510-1z"/><path d="m1456 8528c-254-256-434-475-623-758-442-662-712-1403-809-2220-21-178-30-747-15-936 61-756 270-1440 638-2094 85-150 289-456 398-595 454-582 1034-1060 1685-1390 541-273 1070-433 1695-511 173-22 785-31 980-15 1044 87 2007 484 2820 1162 146 122 420 394 554 549 683 791 1087 1731 1197 2785 25 237 25 743 0 980-106 1013-478 1911-1115 2690-110 134-495 535-515 535-6 0-205-194-443-432l-432-432 129-123c216-206 376-399 545-653 330-497 521-1019 601-1645 23-173 26-641 6-810-76-650-278-1209-622-1720-254-378-604-733-985-1e3 -926-648-2111-840-3210-520-893 261-1668 856-2160 1659-681 1111-733 2511-139 3676 197 386 499 781 827 1080l59 53-433 433c-239 239-438 434-443 434s-91-82-190-182z"/><path d="m11654 8108c3-13 313-905 690-1983l684-1960h337 337l427 1363c234 749 428 1357 431 1350 2-7 196-620 430-1363l426-1350 336-3 336-2 20 57c11 32 322 923 691 1980s671 1925 671 1928-218 5-484 5h-483l-45-127c-24-71-199-577-389-1125-189-549-347-998-350-998s-160 506-349 1125l-344 1125h-467-467l-19-62c-363-1184-679-2195-684-2185-4 7-179 515-390 1130l-383 1117h-484-484l6-22z"/><path d="m17930 6145v-1985h450 450v1985 1985h-450-450v-1985z"/><path d="m19790 6145v-1985h450 450v560 561l192 214c106 118 195 215 198 214 3 0 263-349 579-775l574-774h524c419 0 523 3 516 13-6 6-212 296-458 642-247 347-594 834-773 1084-178 250-326 459-328 465s349 404 781 884c432 479 785 874 785 877s-249 5-552 5h-553l-1480-1610-3 805-2 805h-450-450v-1985z"/><path d="m23820 6145v-1985h450 450v1985 1985h-450-450v-1985z"/><path d="m25680 6145v-1985h450 450l2 1227 3 1227 1050-2134 268 2 268 3 1054 2130 3-1227 2-1228h450 450v1985 1985h-602l-603-1-510-1084-510-1085-22 48c-12 26-240 513-507 1082l-486 1035-605 3-605 2v-1985z"/><path d="m31080 6145v-1985h1465 1465v395 395h-1015-1015v405 405h885 885v380 380h-885-885v405 405h985 985v400 400h-1435-1435v-1985z"/><path d="m34790 6144v-1985l878 4c949 4 935 3 1230 62 271 55 576 182 771 322 254 183 467 464 588 776 93 241 136 504 136 832 1 233-9 343-48 531-147 709-657 1202-1415 1368-308 67-461 76-1377 76h-763v-1986zm1710 1182c490-75 792-305 923-704 54-162 70-278 70-482 0-280-50-496-157-678-69-117-220-269-331-333-253-146-429-179-962-179h-353v1201 1202l353-6c246-4 383-10 457-21z"/><path d="m39150 6145v-1985h450 450v1985 1985h-450-450v-1985z"/><path d="m42189 8083c-11-27-396-917-855-1979s-834-1934-834-1938c0-3 214-5 476-4l477 3 181 422 181 423h826 827l105-242c57-134 140-325 182-425l78-183h475 474l-5 21c-3 12-387 905-854 1985l-848 1964h-433-433l-20-47zm457-2281c-263-1-481-1-483 2-2 2 106 255 239 563l243 560 240-561 241-561-480-3z"/><path d="m2837 7188c-90-90-197-206-238-258-356-449-560-920-652-1500-18-116-21-177-21-435 0-325 10-427 69-690 219-977 918-1792 1863-2171 199-80 495-161 655-180l57-7v1924 1924l-777 777c-428 428-781 778-785 778-5 0-81-73-171-162z"/><path d="m6202 6577-772-772v-1928-1927h23c12 0 88 13 168 30 938 190 1748 825 2159 1694 200 422 293 840 293 1321 0 249-14 394-59 619-97 488-320 952-646 1349-76 92-369 387-385 387-4 0-356-348-781-773z"/><path d="m24885 2674c-210-34-390-156-445-301-78-206-30-441 113-556 96-78 186-116 422-177 264-69 342-107 377-187 44-99 2-202-105-257-80-41-215-48-337-17-105 26-223 84-317 155l-72 54-192-228 28-25c55-50 206-145 280-175 134-56 214-72 385-77 123-4 172-2 230 11 189 42 344 161 399 306 67 176 33 403-76 514-91 92-211 148-460 214-266 71-341 108-376 186-56 124 17 245 170 277 73 15 205 6 301-21 86-24 210-82 236-111 9-10 20-19 24-19s42 50 85 111c58 83 76 116 69 127-28 44-220 136-362 173-76 20-306 34-377 23z"/><path d="m27798 2665c-260-44-489-200-627-430-115-190-148-492-81-733 64-230 241-436 467-542 130-62 197-74 408-74l190-1 97 34c54 18 133 55 175 81 82 50 213 163 213 184 0 6-42 54-94 105-86 86-96 93-113 80-10-7-38-30-63-50-148-121-327-170-509-139-225 38-428 236-476 465-45 215 9 409 155 555 124 124 263 180 444 180 174-1 282-39 420-151l76-61 64 69c34 37 78 85 97 107l33 39-59 55c-128 120-284 198-450 227-104 18-260 18-367 0z"/><path d="m12980 1771v-871h378c400 0 485 7 628 51 340 105 537 371 560 757 26 432-173 748-546 871-149 49-193 53-617 58l-403 5v-871zm839 560c285-72 420-254 421-567 0-293-132-476-402-555-63-19-106-22-315-26l-243-5v592 593l228-6c186-4 242-9 311-26z"/><path d="m16050 1770v-870h625 625v140 140h-475-475v225 225h415 415v135 135h-415-415v225 225h460 460v145 145h-610-610v-870z"/><path d="m18783 2073c4-623 6-639 68-788 76-181 245-325 449-382 50-13 102-18 225-18 140 0 169 3 235 23 214 67 371 210 445 405 51 136 55 194 55 783v544h-149-150l-4-547c-4-596-3-591-62-708-34-66-114-146-181-179-73-36-173-51-259-37-178 27-301 146-350 336-13 49-15 147-15 597v538h-156-155l4-567z"/><path d="m21670 2500v-140h265 265v-730-730h150 150v730 730h265 265v140 140h-680-680v-140z"/><path d="m30130 1770v-870h150 150v350 350h425 425v-350-350h150 150v870 870h-150-150v-375-375h-425-425v375 375h-150-150v-870z"/><path d="m33190 1770v-870h545 545v140 140h-395-395v730 730h-150-150v-870z"/><path d="m36231 2598c-10-24-179-407-376-853-197-445-360-818-362-828-5-16 5-17 157-15l162 3 84 190 83 190h431 431l168-380 164-3 165-2-383 867-382 868-162 3-161 2-19-42zm327-670c78-178 144-331 148-340 6-17-12-18-296-18s-302 1-296 18c23 60 291 662 296 662 3 0 70-145 148-322z"/><path d="m38700 1770v-870h150 150l2 619 3 619 960-1238h168 167v870 870h-150-150l-2-641-3-642-499 642-499 641h-148-149v-870z"/><path d="m41910 1771v-871h378c400 0 485 7 628 51 340 105 537 371 560 757 26 432-173 748-546 871-149 49-193 53-617 58l-403 5v-871zm839 560c285-72 420-254 421-567 0-293-132-476-402-555-63-19-106-22-315-26l-243-5v592 593l228-6c186-4 242-9 311-26z"/></g></svg>
