<svg xmlns="http://www.w3.org/2000/svg" viewBox="0 0 144 144" enable-background="new 0 0 144 144"><path d="M72 60.601c-6.295 0-11.399 5.103-11.399 11.399 0 5.487 3.878 10.066 9.042 11.152v60.789c.784.025 1.567.059 2.357.059s1.573-.034 2.357-.06v-60.788c5.164-1.086 9.042-5.665 9.042-11.152 0-6.295-5.104-11.399-11.399-11.399zm72 11.399c0-39.765-32.235-72-72-72s-72 32.235-72 72c0 37.374 28.478 68.091 64.918 71.65l.001-.014c-.18-29.263-17.819-51.864-25.137-59.991v-.002s-3.006-3.604-1.303-7.924l13.328-33.805s2.466-6.249 7.945-6.249h24.496c5.479 0 7.945 6.249 7.945 6.249l13.328 33.805c1.703 4.32-1.303 7.924-1.303 7.924v.002c-7.318 8.127-24.958 30.729-25.137 59.991l.001.014c36.44-3.559 64.918-34.276 64.918-71.65z"/></svg>