<?xml version="1.0" encoding="UTF-8" standalone="no"?>
<svg
   xmlns:dc="http://purl.org/dc/elements/1.1/"
   xmlns:cc="http://creativecommons.org/ns#"
   xmlns:rdf="http://www.w3.org/1999/02/22-rdf-syntax-ns#"
   xmlns:svg="http://www.w3.org/2000/svg"
   xmlns="http://www.w3.org/2000/svg"
   xmlns:sodipodi="http://sodipodi.sourceforge.net/DTD/sodipodi-0.dtd"
   xmlns:inkscape="http://www.inkscape.org/namespaces/inkscape"
   viewBox="-497 263.9 273 264"
   enable-background="new -497 263.9 273 264"
   version="1.1"
   id="svg4567"
   sodipodi:docname="opensourcedesign-logo.svg"
   inkscape:version="0.92.1 r15371">
  <metadata
     id="metadata4573">
    <rdf:RDF>
      <cc:Work
         rdf:about="">
        <dc:format>image/svg+xml</dc:format>
        <dc:type
           rdf:resource="http://purl.org/dc/dcmitype/StillImage" />
      </cc:Work>
    </rdf:RDF>
  </metadata>
  <defs
     id="defs4571" />
  <sodipodi:namedview
     pagecolor="#ffffff"
     bordercolor="#666666"
     borderopacity="1"
     objecttolerance="10"
     gridtolerance="10"
     guidetolerance="10"
     inkscape:pageopacity="0"
     inkscape:pageshadow="2"
     inkscape:window-width="1364"
     inkscape:window-height="720"
     id="namedview4569"
     showgrid="false"
     inkscape:zoom="2.0378788"
     inkscape:cx="136.5"
     inkscape:cy="132"
     inkscape:window-x="0"
     inkscape:window-y="23"
     inkscape:window-maximized="1"
     inkscape:current-layer="svg4567" />
  <rect
     style="fill:#ffffff;fill-opacity:1;stroke:#747373;stroke-width:0;stroke-miterlimit:1.41420996;stroke-dasharray:none;stroke-opacity:1"
     id="rect4575"
     width="272.8327"
     height="264.98141"
     x="-497.49069"
     y="262.88144" />
  <path
     d="m -359.54392,273.18533 c -66.46167,0 -120.31854,53.85688 -120.31854,120.31856 0,51.30065 32.08495,95.02079 77.30357,112.38545 l 0.0881,-0.17629 c 0,0 24.41629,-65.84465 27.67767,-70.69265 0,0 -28.1184,-6.34648 -27.32508,-52.27026 0.79331,-45.92378 35.96334,-69.28233 35.96334,-69.28233 0,0 -6.17019,35.25819 21.77192,48.30372 0,0 26.88438,7.66864 26.44364,34.7293 -0.52888,27.06065 -17.36465,35.17004 -26.00291,38.87215 3.17323,4.6717 25.91477,66.02094 27.58953,70.42821 45.21864,-17.36465 77.3036,-61.08479 77.3036,-112.38545 -0.1763,-66.28538 -54.03317,-120.23041 -120.49485,-120.23041 z"
     id="path4565"
     inkscape:connector-curvature="0"
     style="stroke-width:0.88145453" />
</svg>
