<svg xmlns="http://www.w3.org/2000/svg" xmlns:svg="http://www.w3.org/2000/svg" id="svg2" width="2231.3" height="273" enable-background="new -497 263.9 273 264" version="1.1" viewBox="-497 263.9 2231.346 273"><metadata id="metadata44"/><path id="path4" fill="#fff" fill-opacity="1" d="m-224 263.9-273 0.00001v273l87.7 0.00001 0.1-0.2s27.7-74.7 31.4-80.2c0 0-31.9-7.2-31-59.3s40.8-78.6 40.8-78.6-7 40 24.7 54.8c0 0 30.5 8.7 30 39.4-0.6 30.7-19.7 39.9-29.5 44.1 3.6 5.3 29.4 74.9 31.3 79.9l87.5 0.1z"/><g id="g6" fill="#fff" fill-opacity="1"><path id="path8" fill="#fff" fill-opacity="1" d="m-104.81 330.12q20.063 0 36.188 8.8125 16.312 8.8125 25.5 24.188 9.375 15.375 9.375 34.5 0 19.312-9.375 34.875-9.1875 15.562-25.5 24.562-16.125 9-36.188 9-20.062 0-36.375-8.8125-16.125-9-25.5-24.562-9.1875-15.75-9.1875-35.062 0-19.125 9.1875-34.5 9.375-15.375 25.5-24.188 16.312-8.8125 36.375-8.8125zm0.375 29.062q-9.75 0-18.188 5.0625-8.25 5.0625-13.125 14.062-4.875 8.8125-4.875 19.5 0 10.875 4.875 19.875 5.0625 8.8125 13.312 14.062 8.25 5.0625 18 5.0625t17.813-5.0625q8.25-5.25 12.938-14.062 4.6875-9 4.6875-19.875 0-10.688-4.6875-19.5-4.6875-9-12.938-14.062-8.0625-5.0625-17.813-5.0625z"/><path id="path10" fill="#fff" fill-opacity="1" d="m47.567 361.06q14.062 0 24.75 6.5625 10.688 6.375 16.5 18.375 6 11.812 6 27.375 0 15.375-5.8125 27-5.625 11.625-16.312 18-10.5 6.375-24.375 6.375-9.5625 0-17.438-3.5625-7.6875-3.75-13.125-10.688v49.5h-33.375v-137.81h33.375v13.125q11.062-14.25 29.812-14.25zm-8.25 76.688q9.75 0 15.75-6.9375 6.1875-6.9375 6.1875-18.188t-6.1875-18.188q-6-7.125-15.75-7.125-9.5625 0-15.562 7.125-6 6.9375-6 18.188t6 18.188q6 6.9375 15.562 6.9375z"/><path id="path12" fill="#fff" fill-opacity="1" d="m156.61 361.06q24.75 0 38.062 14.625t13.312 40.125q0 3.9375-0.1875 6h-70.5q2.4375 8.625 8.4375 13.312 6 4.5 14.625 4.5 6.5625 0 12.562-2.625 6.1875-2.625 11.25-7.6875l17.438 17.438q-7.875 8.8125-19.125 13.5-11.062 4.5-25.125 4.5-16.312 0-28.5-6.375t-18.75-18q-6.375-11.625-6.375-27 0-15.562 6.5625-27.375 6.5625-12 18.562-18.375 12-6.5625 27.75-6.5625zm18.938 42.938q0-8.8125-5.25-14.062-5.0625-5.4375-13.5-5.4375-7.875 0-13.312 5.25-5.25 5.25-6.9375 14.25h39z"/><path id="path14" fill="#fff" fill-opacity="1" d="m292.08 360.87q16.688 0 26.625 10.5 10.125 10.5 10.125 28.312v63.938h-33.188v-54.375q0-8.625-4.6875-13.5-4.6875-5.0625-12.562-5.0625-8.25 0.1875-13.688 5.4375-5.25 5.25-6.1875 13.875v53.625h-33.375v-101.44h33.375v16.5q5.4375-8.8125 13.875-13.312 8.625-4.5 19.688-4.5z"/><path id="path16" fill="#fff" fill-opacity="1" d="m483.79 371.74q-10.5-6.1875-22.5-10.125-11.812-3.9375-19.875-3.9375-6.375 0-10.125 2.4375-3.5625 2.25-3.5625 6.75 0 4.3125 3.1875 7.3125 3.1875 2.8125 7.875 4.6875 4.6875 1.6875 13.875 4.5 13.688 3.9375 22.5 7.875 9 3.9375 15.375 12.188 6.375 8.0625 6.375 21.188 0 13.125-6.9375 22.5-6.9375 9.1875-19.125 13.875-12 4.6875-26.812 4.6875-16.312 0-32.625-5.625-16.125-5.8125-27.938-15.75l13.312-26.812q9.9375 8.8125 23.438 14.438 13.688 5.625 24.188 5.625 7.6875 0 12-2.8125 4.5-2.8125 4.5-8.25 0-4.5-3.375-7.5-3.1875-3-8.25-4.6875-4.875-1.875-13.875-4.3125-13.5-3.75-22.312-7.5-8.8125-3.9375-15.188-11.625-6.1875-7.875-6.1875-20.812 0-12.188 6.375-21.375 6.5625-9.1875 18.375-14.062 12-5.0625 27.75-5.0625 14.25 0 28.125 4.125 13.875 3.9375 24.375 10.688l-12.938 27.375z"/><path id="path18" fill="#fff" fill-opacity="1" d="m561.51 361.06q16.5 0 29.062 6.5625 12.562 6.375 19.5 18.188 6.9375 11.625 6.9375 27 0 15.562-6.9375 27.375-6.9375 11.625-19.5 18.188-12.562 6.375-29.062 6.375t-29.062-6.375q-12.562-6.5625-19.5-18.188-6.75-11.812-6.75-27.375 0-15.375 6.75-27 6.9375-11.812 19.5-18.188 12.562-6.5625 29.062-6.5625zm0 27q-9.75 0-15.75 6.9375t-6 18.188q0 11.438 6 18.375 6 6.9375 15.75 6.9375 9.9375 0 15.938-6.9375 6-6.9375 6-18.375 0-11.25-6.1875-18.188-6-6.9375-15.75-6.9375z"/><path id="path20" fill="#fff" fill-opacity="1" d="m733.2 362.18v101.44h-33.375v-16.5q-10.312 17.625-32.438 18-16.5 0-26.438-10.5-9.75-10.688-9.75-28.312v-64.125h33.375v54.562q0 8.625 4.3125 13.5 4.5 4.875 12 4.875 8.8125-0.1875 13.875-6.375 5.0625-6.375 5.0625-16.5v-50.062h33.375z"/><path id="path22" fill="#fff" fill-opacity="1" d="m792.09 379.06q5.25-8.8125 13.5-13.5 8.4375-4.6875 19.125-4.6875v30.562q-1.6875-0.1875-5.0625-0.1875-11.812 0-19.125 5.625-7.3125 5.4375-8.4375 15v51.75h-33.375v-101.44h33.375v16.875z"/><path id="path24" fill="#fff" fill-opacity="1" d="m904.71 399.12q-7.125-10.5-19.875-10.5-9 0-14.625 6.9375-5.625 6.75-5.625 17.625 0 11.062 5.625 17.812t14.625 6.75q13.875 0 19.875-11.438l24.562 14.062q-6 11.625-18 18t-28.125 6.375q-15.562 0-27.375-6.375-11.812-6.375-18.375-18-6.375-11.625-6.375-27 0-15.562 6.5625-27.375 6.5625-12 18.375-18.375 12-6.5625 27.562-6.5625 15.188 0 27 6.375 11.812 6.1875 18.375 17.625l-24.188 14.062z"/><path id="path26" fill="#fff" fill-opacity="1" d="m986.44 361.06q24.75 0 38.062 14.625t13.312 40.125q0 3.9375-0.1875 6h-70.5q2.4375 8.625 8.4375 13.312 6 4.5 14.625 4.5 6.5625 0 12.562-2.625 6.1875-2.625 11.25-7.6875l17.438 17.438q-7.875 8.8125-19.125 13.5-11.062 4.5-25.125 4.5-16.312 0-28.5-6.375t-18.75-18q-6.375-11.625-6.375-27 0-15.562 6.5625-27.375 6.5625-12 18.562-18.375 12-6.5625 27.75-6.5625zm18.938 42.938q0-8.8125-5.25-14.062-5.0625-5.4375-13.5-5.4375-7.875 0-13.312 5.25-5.25 5.25-6.9375 14.25h39z"/><path id="path28" fill="#fff" fill-opacity="1" d="m1153.3 332.18q20.625 0 36.375 8.25 15.938 8.25 24.75 23.25 8.8125 14.812 8.8125 34.125 0 19.312-9 34.312-8.8125 15-25.125 23.25-16.125 8.25-37.125 8.25h-55.312v-131.44h56.625zm0.9375 103.69q9.9375 0 17.625-4.6875t12-13.312q4.3125-8.625 4.3125-19.688 0-11.25-4.6875-19.875-4.5-8.625-12.562-13.312-8.0625-4.875-18.375-4.875h-21.562v75.75h23.25z"/><path id="path30" fill="#fff" fill-opacity="1" d="m1284.9 361.06q24.75 0 38.062 14.625t13.312 40.125q0 3.9375-0.1875 6h-70.5q2.4375 8.625 8.4375 13.312 6 4.5 14.625 4.5 6.5625 0 12.562-2.625 6.1875-2.625 11.25-7.6875l17.438 17.438q-7.875 8.8125-19.125 13.5-11.062 4.5-25.125 4.5-16.312 0-28.5-6.375t-18.75-18q-6.375-11.625-6.375-27 0-15.562 6.5625-27.375 6.5625-12 18.562-18.375 12-6.5625 27.75-6.5625zm18.938 42.938q0-8.8125-5.25-14.062-5.0625-5.4375-13.5-5.4375-7.875 0-13.312 5.25-5.25 5.25-6.9375 14.25h39z"/><path id="path32" fill="#fff" fill-opacity="1" d="m1421.1 394.24q-19.688-10.312-32.25-10.312-4.3125 0-6.9375 1.6875-2.625 1.5-2.625 4.6875 0 3.375 4.125 5.4375t13.125 4.5q10.875 3.1875 18 6.375 7.3125 3 12.562 9.375 5.25 6.1875 5.25 16.312 0 15.375-12 24.188-11.812 8.625-30.938 8.625-12.938 0-24.75-3.5625-11.812-3.75-21-10.875l10.5-21.562q8.625 6 18 9.375 9.5625 3.1875 18 3.1875 4.875 0 7.6875-1.5 3-1.6875 3-4.6875 0-3.75-4.3125-5.8125-4.125-2.0625-13.125-4.5-10.688-3.1875-17.625-6.1875-6.9375-3.1875-12.188-9.375-5.0625-6.1875-5.0625-16.125 0-15.375 11.625-24 11.625-8.8125 30-8.8125 11.062 0 21.75 3 10.875 3 20.438 8.8125l-11.25 21.75z"/><path id="path34" fill="#fff" fill-opacity="1" d="m1450.5 362.18h33.188v101.44h-33.188v-101.44zm16.312-46.688q7.6875 0 12.562 5.0625 5.0625 4.875 5.0625 12.75 0 7.6875-5.0625 12.75-4.875 5.0625-12.562 5.0625-7.6875 0-12.75-5.0625-4.875-5.0625-4.875-12.75 0-7.875 4.875-12.75 5.0625-5.0625 12.75-5.0625z"/><path id="path36" fill="#fff" fill-opacity="1" d="m1606.2 362.18v92.438q0 14.062-6.9375 24.562-6.9375 10.688-19.5 16.312-12.375 5.8125-28.688 5.8125-12.75 0-24.562-3.5625t-20.812-9.5625l11.625-23.062q6.9375 4.6875 15 7.3125t16.312 2.625q11.25 0 17.812-5.25 6.5625-5.25 6.5625-14.25v-10.875q-10.125 13.312-28.875 13.312-12.562 0-22.5-6-9.75-6.1875-15.375-17.25-5.4375-11.25-5.4375-25.688 0-14.25 5.25-25.125 5.4375-10.875 15.188-16.875 9.75-6 22.125-6 9.375 0 16.875 3.5625 7.6875 3.375 12.75 9.9375v-12.375h33.188zm-53.625 71.438q9.1875 0 14.812-6.5625 5.625-6.5625 5.625-17.062 0-10.688-5.625-17.25-5.625-6.5625-14.812-6.5625-9.1875 0-15 6.75-5.625 6.5625-5.625 17.062t5.625 17.062q5.8125 6.5625 15 6.5625z"/><path id="path38" fill="#fff" fill-opacity="1" d="m1697.6 360.87q16.688 0 26.625 10.5 10.125 10.5 10.125 28.312v63.938h-33.188v-54.375q0-8.625-4.6875-13.5-4.6875-5.0625-12.562-5.0625-8.25 0.1875-13.688 5.4375-5.25 5.25-6.1875 13.875v53.625h-33.375v-101.44h33.375v16.5q5.4375-8.8125 13.875-13.312 8.625-4.5 19.688-4.5z"/></g></svg>