<svg xmlns="http://www.w3.org/2000/svg" xmlns:svg="http://www.w3.org/2000/svg" id="svg4744" width="367.538" height="238.161" version="1.1" viewBox="0 0 97.245 63.013"><metadata id="metadata4741"/><g id="layer1" transform="translate(-59.062633,-61.233895)"><path id="path4630" fill="#000" fill-opacity="1" fill-rule="nonzero" stroke="none" stroke-width=".412" d="M 135.4136,102.85056 111.38625,61.233895 100.23826,80.542629 95.462373,72.270224 77.806716,102.85056 h 9.552183 15.466111 c 0.22826,-0.61599 2.9139,-7.838121 3.28638,-8.391891 0,0 -3.35643,-0.757732 -3.26166,-6.239846 0.0948,-5.482115 4.29298,-8.27034 4.29298,-8.27034 0,0 -0.73672,4.208921 2.5987,5.766001 0,0 3.20933,0.915537 3.157,4.145886 -0.0634,3.230349 -2.07293,4.198211 -3.10426,4.640323 0.36918,0.543059 2.95305,7.502727 3.27196,8.349867 h 0.0515 z"/><path id="path4634" fill="#000" fill-opacity="1" fill-rule="nonzero" stroke="none" stroke-width=".412" d="m 60.664621,111.6938 c 0,1.21673 0.979405,2.16606 2.136397,2.16606 1.156991,0 2.096428,-0.94933 2.096428,-2.16606 0,-1.21632 -0.939437,-2.14588 -2.096428,-2.14588 -1.166881,0 -2.136397,0.92956 -2.136397,2.14588 m 5.834813,0 c 0,1.99795 -1.601988,3.53072 -3.718195,3.53072 -2.116618,0 -3.718606,-1.52287 -3.718606,-3.53072 0,-2.01732 1.601988,-3.51094 3.718606,-3.51094 2.116207,0 3.718195,1.50352 3.718195,3.51094"/><path id="path4638" fill="#000" fill-opacity="1" fill-rule="nonzero" stroke="none" stroke-width=".412" d="m 71.473261,112.47518 c 0,-0.85043 -0.533996,-1.46354 -1.315213,-1.46354 -0.781216,0 -1.325101,0.60322 -1.325101,1.46354 0,0.88011 0.543885,1.47343 1.325101,1.47343 0.781217,0 1.315213,-0.60321 1.315213,-1.47343 m 1.542655,0.0494 c 0,1.61188 -0.978993,2.68977 -2.472204,2.68977 -0.742073,0 -1.325513,-0.29667 -1.710765,-0.83067 v 2.69017 h -1.522878 v -7.23943 h 1.522878 v 0.78121 c 0.375775,-0.534 0.959216,-0.83066 1.681098,-0.83066 1.493212,0 2.501871,1.09765 2.501871,2.73961"/><path id="path4642" fill="#000" fill-opacity="1" fill-rule="nonzero" stroke="none" stroke-width=".412" d="m 77.258218,112.05973 c -0.01977,-0.70211 -0.474663,-1.157 -1.176769,-1.157 -0.67244,0 -1.127737,0.45489 -1.246403,1.157 z m 1.42399,0.89988 h -3.817495 c 0.177998,0.67244 0.692217,1.06799 1.374546,1.06799 0.50474,0 0.978992,-0.19777 1.34529,-0.56366 l 0.800994,0.81089 c -0.534408,0.59333 -1.315213,0.93984 -2.274427,0.93984 -1.701289,0 -2.779169,-1.08777 -2.779169,-2.70005 0,-1.64155 1.117848,-2.72973 2.739201,-2.72973 1.869398,0 2.739615,1.23651 2.61106,3.17472"/><path id="path4646" fill="#000" fill-opacity="1" fill-rule="nonzero" stroke="none" stroke-width=".412" d="m 84.763786,111.81247 v 3.34283 h -1.522878 v -2.89784 c 0,-0.67243 -0.395552,-1.08776 -1.048214,-1.08776 -0.761852,0.009 -1.216324,0.58343 -1.216324,1.36465 v 2.62095 h -1.52329 v -5.32059 h 1.52329 v 0.92954 c 0.375775,-0.66254 1.008659,-0.97899 1.838907,-0.98888 1.187071,0 1.948509,0.79111 1.948509,2.0371"/><path id="path4650" fill="#000" fill-opacity="1" fill-rule="nonzero" stroke="none" stroke-width=".412" d="m 91.00301,109.4984 c -0.524107,0 -0.880104,0.18789 -0.880104,0.56366 0,1.27566 3.688529,0.56367 3.679051,3.05606 0,1.35477 -1.176769,2.08654 -2.709947,2.08654 -1.137213,0 -2.27484,-0.4351 -3.055644,-1.09766 l 0.622995,-1.27606 c 0.711995,0.63329 1.720654,1.03873 2.452427,1.03873 0.642773,0 1.028437,-0.23733 1.028437,-0.66296 0,-1.30492 -3.688529,-0.54347 -3.688529,-2.99631 0,-1.25589 1.077881,-2.04699 2.679869,-2.04699 0.969104,0 1.93862,0.29626 2.630425,0.75114 l -0.603217,1.29585 c -0.731773,-0.43511 -1.601988,-0.712 -2.155763,-0.712"/><path id="path4654" fill="#000" fill-opacity="1" fill-rule="nonzero" stroke="none" stroke-width=".412" d="m 95.699994,112.51462 c 0,0.87021 0.543885,1.46354 1.33499,1.46354 0.781628,0 1.325513,-0.59333 1.325513,-1.46354 0,-0.87022 -0.543885,-1.46355 -1.325513,-1.46355 -0.791105,0 -1.33499,0.59333 -1.33499,1.46355 m 4.18338,-0.0197 c 0,1.62217 -1.147102,2.71983 -2.84839,2.71983 -1.710765,0 -2.857867,-1.09766 -2.857867,-2.71983 0,-1.63166 1.147102,-2.70995 2.857867,-2.70995 1.701288,0 2.84839,1.07829 2.84839,2.70995"/><path id="path4658" fill="#000" fill-opacity="1" fill-rule="nonzero" stroke="none" stroke-width=".412" d="m 105.70789,109.83463 v 5.32059 h -1.51299 v -0.93944 c -0.3663,0.67244 -0.97899,0.99877 -1.77999,0.99877 -1.17718,0 -1.91843,-0.78122 -1.91843,-2.0371 v -3.34282 h 1.52288 v 2.90772 c 0,0.67202 0.38525,1.07788 0.99877,1.07788 0.73177,-0.009 1.17677,-0.58345 1.17677,-1.35477 v -2.63083 z"/><path id="path4662" fill="#000" fill-opacity="1" fill-rule="nonzero" stroke="none" stroke-width=".412" d="m 110.227,109.77525 v 1.43388 c -1.08819,-0.0989 -1.76022,0.48454 -1.76022,1.38484 v 2.5612 h -1.52329 v -5.32059 h 1.52329 v 0.95922 c 0.36547,-0.65266 0.96869,-1.00866 1.76022,-1.01855"/><path id="path4666" fill="#000" fill-opacity="1" fill-rule="nonzero" stroke="none" stroke-width=".412" d="m 113.15387,111.08078 c -0.74166,0 -1.26576,0.57354 -1.26576,1.42399 0,0.86033 0.5241,1.44376 1.26576,1.44376 0.54389,0 0.96952,-0.20724 1.23611,-0.62299 l 1.04862,0.71199 c -0.445,0.74207 -1.27607,1.17719 -2.36343,1.17719 -1.61229,0 -2.71035,-1.08778 -2.71035,-2.70007 0,-1.63165 1.09806,-2.72972 2.72972,-2.72972 1.01855,0 1.82985,0.40586 2.3041,1.11785 l -1.02844,0.74166 c -0.28637,-0.356 -0.69221,-0.57355 -1.21633,-0.56366"/><path id="path4670" fill="#000" fill-opacity="1" fill-rule="nonzero" stroke="none" stroke-width=".412" d="m 119.4531,112.05973 c -0.0197,-0.70211 -0.47466,-1.157 -1.17678,-1.157 -0.67243,0 -1.12773,0.45489 -1.2464,1.157 z m 1.42399,0.89988 h -3.8175 c 0.178,0.67244 0.69222,1.06799 1.37455,1.06799 0.50474,0 0.97899,-0.19777 1.34529,-0.56366 l 0.80099,0.81089 c -0.53441,0.59333 -1.31521,0.93984 -2.27443,0.93984 -1.70129,0 -2.77916,-1.08777 -2.77916,-2.70005 0,-1.64155 1.11784,-2.72973 2.73919,-2.72973 1.86941,0 2.73961,1.23651 2.61107,3.17472"/><path id="path4674" fill="#000" fill-opacity="1" fill-rule="nonzero" stroke="none" stroke-width=".412" d="m 129.39056,111.70365 c 0,-1.27566 -0.88999,-2.15576 -2.07706,-2.15576 h -1.34488 v 4.29216 h 1.41452 c 1.15699,0 2.00742,-0.87064 2.00742,-2.1364 m 1.59211,-0.009 c 0,2.03752 -1.51299,3.46151 -3.69842,3.46151 h -2.87806 v -6.92259 h 2.93698 c 2.14629,0 3.6395,1.4141 3.6395,3.46108"/><path id="path4678" fill="#000" fill-opacity="1" fill-rule="nonzero" stroke="none" stroke-width=".412" d="m 135.215,112.05973 c -0.0197,-0.70211 -0.47466,-1.157 -1.17677,-1.157 -0.67244,0 -1.12773,0.45489 -1.2464,1.157 z m 1.42399,0.89988 h -3.81749 c 0.178,0.67244 0.69221,1.06799 1.37454,1.06799 0.50474,0 0.97899,-0.19777 1.34529,-0.56366 l 0.80099,0.81089 c -0.5344,0.59333 -1.31521,0.93984 -2.27442,0.93984 -1.70129,0 -2.77917,-1.08777 -2.77917,-2.70005 0,-1.64155 1.11785,-2.72973 2.7392,-2.72973 1.8694,0 2.73962,1.23651 2.61106,3.17472"/><path id="path4682" fill="#000" fill-opacity="1" fill-rule="nonzero" stroke="none" stroke-width=".412" d="m 139.14016,110.8828 c -0.356,0 -0.61311,0.11866 -0.61311,0.39554 0,0.801 2.80843,0.39556 2.79895,2.27485 0,1.08776 -0.95921,1.66132 -2.16606,1.66132 -0.86033,0 -1.70088,-0.25711 -2.3045,-0.74166 l 0.49443,-1.02844 c 0.55418,0.42521 1.26619,0.66255 1.84962,0.66255 0.38567,0 0.67244,-0.12855 0.67244,-0.41533 0,-0.85085 -2.75939,-0.39555 -2.75939,-2.26496 0,-1.09765 0.93944,-1.66132 2.09685,-1.66132 0.73177,0 1.48373,0.21756 2.07665,0.59333 l -0.52371,1.03875 c -0.58343,-0.32675 -1.17717,-0.51463 -1.62217,-0.51463"/><path id="path4686" fill="#000" fill-opacity="1" fill-rule="nonzero" stroke="none" stroke-width=".412" d="m 143.61019,108.32146 c 0,0.43512 -0.30655,0.76145 -0.74207,0.76145 -0.4347,0 -0.74166,-0.32633 -0.74166,-0.76145 0,-0.445 0.30696,-0.76143 0.74166,-0.76143 0.43552,0 0.74207,0.31643 0.74207,0.76143 m 0.0197,6.8336 h -1.52288 v -5.32061 h 1.52288 z"/><path id="path4690" fill="#000" fill-opacity="1" fill-rule="nonzero" stroke="none" stroke-width=".412" d="m 148.32724,112.34663 c 0,-0.82077 -0.50474,-1.38443 -1.24599,-1.38443 -0.74166,0 -1.2464,0.57355 -1.25629,1.38443 0.009,0.81088 0.50433,1.37455 1.25629,1.37455 0.74125,0 1.24599,-0.56367 1.24599,-1.37455 m 1.51299,-2.51217 v 4.82615 c 0,1.51341 -1.13722,2.47262 -2.83851,2.47262 -0.89946,0 -1.70086,-0.28678 -2.31398,-0.70211 l 0.56366,-1.0684 c 0.48456,0.34652 1.04822,0.53441 1.65144,0.53441 0.87021,0 1.4244,-0.46519 1.4244,-1.18707 v -0.60322 c -0.356,0.49444 -0.90029,0.77174 -1.6024,0.77174 -1.37454,0 -2.32387,-1.02885 -2.32387,-2.5715 0,-1.50352 0.92996,-2.52207 2.28472,-2.52207 0.72189,-0.009 1.27525,0.2773 1.64155,0.77133 v -0.72188 z"/><path id="path4694" fill="#000" fill-opacity="1" fill-rule="nonzero" stroke="none" stroke-width=".412" d="m 156.30719,111.81247 v 3.34283 h -1.52288 v -2.89784 c 0,-0.67243 -0.39556,-1.08776 -1.04822,-1.08776 -0.76184,0.009 -1.21633,0.58343 -1.21633,1.36465 v 2.62095 h -1.52329 v -5.32059 h 1.52329 v 0.92954 c 0.37579,-0.66254 1.00866,-0.97899 1.83892,-0.98888 1.18706,0 1.94851,0.79111 1.94851,2.0371"/><path id="path4698" fill="#000" fill-opacity="1" fill-rule="nonzero" stroke="none" stroke-width=".412" d="m 79.956586,118.55371 c -0.815827,0 -1.350648,0.32633 -1.350648,0.87022 0,1.65019 3.571923,0.78864 3.562857,3.09149 0,1.05192 -0.933668,1.73178 -2.293792,1.73178 -0.924605,0 -1.831492,-0.39885 -2.429765,-0.96992 l 0.326331,-0.62588 c 0.589621,0.56242 1.396383,0.88875 2.112499,0.88875 0.915951,0 1.48703,-0.37165 1.48703,-0.98846 0.0091,-1.69511 -3.56327,-0.7977 -3.56327,-3.07337 0,-0.99712 0.879693,-1.63165 2.194081,-1.63165 0.734657,0 1.487031,0.23568 2.012787,0.5892 l -0.308202,0.6436 c -0.571491,-0.37166 -1.242282,-0.52576 -1.749908,-0.52576"/><path id="path4702" fill="#000" fill-opacity="1" fill-rule="nonzero" stroke="none" stroke-width=".412" d="m 87.697922,119.4512 v 4.76888 h -0.707051 v -1.0787 c -0.317266,0.74331 -0.951799,1.09683 -1.812949,1.10589 -1.115377,0 -1.786168,-0.70745 -1.786168,-1.85867 v -2.9374 h 0.707051 v 2.7561 c 0,0.85209 0.498973,1.36012 1.323865,1.36012 0.988057,-0.0186 1.568201,-0.74371 1.568201,-1.7771 v -2.33912 z"/><path id="path4706" fill="#000" fill-opacity="1" fill-rule="nonzero" stroke="none" stroke-width=".412" d="M 97.315908,121.28262 V 124.22 h -0.707051 v -2.75609 c 0,-0.86116 -0.49856,-1.36878 -1.323865,-1.36878 -0.988056,0.0272 -1.559136,0.74331 -1.559136,1.77669 V 124.22 h -0.716117 v -2.75609 c 0,-0.86116 -0.489908,-1.36878 -1.323865,-1.36878 -0.978993,0.0272 -1.568614,0.74331 -1.568614,1.77669 V 124.22 h -0.697985 v -4.76888 h 0.697985 v 1.07912 c 0.317679,-0.74372 0.961277,-1.09725 1.822429,-1.10631 0.897821,0 1.514224,0.45323 1.713648,1.24228 0.299137,-0.83437 0.969929,-1.23322 1.885881,-1.24228 1.114963,0 1.77669,0.6984 1.77669,1.85869"/><path id="path4710" fill="#000" fill-opacity="1" fill-rule="nonzero" stroke="none" stroke-width=".412" d="M 106.77942,121.28262 V 124.22 h -0.70705 v -2.75609 c 0,-0.86116 -0.49856,-1.36878 -1.32387,-1.36878 -0.98805,0.0272 -1.55913,0.74331 -1.55913,1.77669 V 124.22 h -0.71612 v -2.75609 c 0,-0.86116 -0.4899,-1.36878 -1.32386,-1.36878 -0.979,0.0272 -1.568616,0.74331 -1.568616,1.77669 V 124.22 H 98.88279 v -4.76888 h 0.697984 v 1.07912 c 0.317677,-0.74372 0.961276,-1.09725 1.822426,-1.10631 0.89782,0 1.51423,0.45323 1.71365,1.24228 0.29914,-0.83437 0.96993,-1.23322 1.88588,-1.24228 1.11497,0 1.77669,0.6984 1.77669,1.85869"/><path id="path4712" fill="#000" fill-opacity="1" fill-rule="nonzero" stroke="none" stroke-width=".412" d="m 109.04458,124.22017 h -0.69799 v -4.76889 h 0.69799 z m 0.10874,-6.13765 c 0,0.27194 -0.19942,0.48043 -0.46231,0.48043 -0.26328,0 -0.46229,-0.20849 -0.46229,-0.48043 0,-0.28143 0.19901,-0.48086 0.46229,-0.48086 0.26289,0 0.46231,0.19943 0.46231,0.48086"/><path id="path4716" fill="#000" fill-opacity="1" fill-rule="nonzero" stroke="none" stroke-width=".412" d="m 113.23273,123.89364 c -0.33539,0.22662 -0.69798,0.35352 -1.0787,0.35352 -0.69798,0.009 -1.21468,-0.40792 -1.21468,-1.35064 v -2.74705 h -0.68932 v -0.55335 h 0.68932 v -1.25094 h 0.69759 v 1.25094 h 1.51421 v 0.55335 h -1.51421 v 2.62879 c 0,0.58055 0.22703,0.81624 0.63494,0.81624 0.24475,-0.009 0.49856,-0.0906 0.76143,-0.24475 z"/><path id="path4720" fill="#000" fill-opacity="1" fill-rule="nonzero" stroke="none" stroke-width=".412" d="m 120.06752,119.48742 c 0,-0.62547 -0.50763,-0.99712 -1.342,-0.99712 -0.59828,0 -1.27813,0.29914 -1.80388,0.77956 l -0.31727,-0.55294 c 0.63454,-0.54389 1.43223,-0.87928 2.21221,-0.87928 1.20561,0 2.00331,0.60733 2.00331,1.55914 0,0.59827 -0.47137,1.33293 -1.16935,2.05811 l -2.05811,2.09395 h 3.60819 v 0.67121 h -4.53279 v -0.58922 l 2.48373,-2.57479 c 0.55336,-0.56244 0.91596,-1.15164 0.91596,-1.56862"/><path id="path4724" fill="#000" fill-opacity="1" fill-rule="nonzero" stroke="none" stroke-width=".412" d="m 122.92279,121.03779 c 0,1.73177 0.55295,2.61105 1.63165,2.61105 1.06058,0 1.62259,-0.87928 1.62259,-2.61105 0,-1.73179 -0.56201,-2.59293 -1.62259,-2.59293 -1.0787,0 -1.63165,0.86114 -1.63165,2.59293 m 3.97983,0 c 0,2.0581 -0.84343,3.20026 -2.34818,3.20026 -1.51422,0 -2.35724,-1.14216 -2.35724,-3.20026 0,-2.04904 0.84302,-3.1912 2.35724,-3.1912 1.50475,0 2.34818,1.14216 2.34818,3.1912"/><path id="path4728" fill="#000" fill-opacity="1" fill-rule="nonzero" stroke="none" stroke-width=".412" d="m 130.60092,117.86463 v 6.35521 h -0.72559 v -5.68442 h -1.49569 v -0.67079 z"/><path id="path4734" fill="#000" fill-opacity="1" fill-rule="nonzero" stroke="none" stroke-width=".412" d="M 74.878309,121.5918 H 59.358636 v -0.82406 h 15.519673 z"/><path id="path4736" fill="#000" fill-opacity="1" fill-rule="nonzero" stroke="none" stroke-width=".412" d="m 156.11781,121.5918 h -15.52008 v -0.82406 h 15.52008 z"/><g id="text871" fill="#000" fill-opacity="1" fill-rule="nonzero" stroke="none" stroke-dasharray="none" stroke-linecap="square" stroke-linejoin="round" stroke-miterlimit="4" stroke-opacity=".964" stroke-width="2.733" aria-label="8" font-family="San Francisco Display" font-size="8.955" font-stretch="normal" font-style="normal" font-variant="normal" font-weight="bold" opacity="1" paint-order="stroke fill markers" text-anchor="start" style="line-height:1.25;-inkscape-font-specification:'San Francisco Display Bold';text-align:start"><path id="path843" fill="#000" fill-opacity="1" stroke="none" stroke-width="2.733" d="m 136.40819,120.88844 c 0.64473,-0.25072 1.00291,-0.72532 1.00291,-1.379 0,-1.02082 -0.8865,-1.65659 -2.21177,-1.65659 -1.32528,0 -2.19387,0.63577 -2.19387,1.65659 0,0.65368 0.34923,1.12828 0.985,1.379 -0.77905,0.25969 -1.20886,0.788 -1.20886,1.54019 0,1.11036 0.91336,1.79986 2.41773,1.79986 1.49541,0 2.43564,-0.6895 2.43564,-1.79986 0,-0.74323 -0.43878,-1.2805 -1.22678,-1.54019 z m -2.758,-1.36109 c 0,-0.69846 0.59995,-1.12827 1.54914,-1.12827 0.94023,0 1.55809,0.42981 1.55809,1.13722 0,0.68055 -0.58205,1.11932 -1.55809,1.11932 -0.97605,0 -1.54914,-0.43877 -1.54914,-1.12827 z m 1.54914,4.15492 c -1.11037,0 -1.76405,-0.48355 -1.76405,-1.2626 0,-0.77009 0.65368,-1.25364 1.76405,-1.25364 1.11036,0 1.773,0.48355 1.773,1.25364 0,0.77905 -0.66264,1.2626 -1.773,1.2626 z" font-family="Montserrat" font-stretch="normal" font-style="normal" font-variant="normal" font-weight="normal" style="-inkscape-font-specification:Montserrat"/></g></g></svg>