<svg xmlns="http://www.w3.org/2000/svg" xmlns:svg="http://www.w3.org/2000/svg" id="svg4" width="37.768" height="50.357" version="1.1" viewBox="0 0 37.768 50.357"><metadata id="metadata10"/><path id="path2" fill="#1aa5bb" fill-opacity="1" stroke-width=".098" d="M 16.943193,49.3411 C 2.652599,28.62397 0,26.49777 0,18.88391 0,8.45459 8.4545814,0 18.883908,0 c 10.429327,0 18.883909,8.45459 18.883909,18.88391 0,7.61386 -2.652599,9.74006 -16.943193,30.45719 -0.937803,1.35473 -2.943727,1.35463 -3.881431,0 z m 1.940715,-22.58889 c 4.345561,0 7.868296,-3.52274 7.868296,-7.8683 0,-4.34556 -3.522735,-7.86829 -7.868296,-7.86829 -4.34556,0 -7.868295,3.52273 -7.868295,7.86829 0,4.34556 3.522735,7.8683 7.868295,7.8683 z"/></svg>