<?xml version="1.0" encoding="UTF-8" standalone="no"?>
<svg
   xmlns:dc="http://purl.org/dc/elements/1.1/"
   xmlns:cc="http://creativecommons.org/ns#"
   xmlns:rdf="http://www.w3.org/1999/02/22-rdf-syntax-ns#"
   xmlns:svg="http://www.w3.org/2000/svg"
   xmlns="http://www.w3.org/2000/svg"
   xmlns:sodipodi="http://sodipodi.sourceforge.net/DTD/sodipodi-0.dtd"
   xmlns:inkscape="http://www.inkscape.org/namespaces/inkscape"
   aria-labelledby="simpleicons-nextcloud-icon"
   role="img"
   viewBox="0 0 24 24"
   version="1.1"
   id="svg5"
   sodipodi:docname="nextcloud-logo.svg"
   inkscape:version="0.92.3 (2405546, 2018-03-11)">
  <metadata
     id="metadata11">
    <rdf:RDF>
      <cc:Work
         rdf:about="">
        <dc:format>image/svg+xml</dc:format>
        <dc:type
           rdf:resource="http://purl.org/dc/dcmitype/StillImage" />
      </cc:Work>
    </rdf:RDF>
  </metadata>
  <defs
     id="defs9" />
  <sodipodi:namedview
     pagecolor="#ffffff"
     bordercolor="#666666"
     borderopacity="1"
     objecttolerance="10"
     gridtolerance="10"
     guidetolerance="10"
     inkscape:pageopacity="0"
     inkscape:pageshadow="2"
     inkscape:window-width="1366"
     inkscape:window-height="717"
     id="namedview7"
     showgrid="false"
     inkscape:zoom="9.8333333"
     inkscape:cx="-7.4237288"
     inkscape:cy="12"
     inkscape:window-x="0"
     inkscape:window-y="0"
     inkscape:window-maximized="1"
     inkscape:current-layer="svg5" />
  <title
     id="simpleicons-nextcloud-icon">Nextcloud icon</title>
  <path
     d="M12.018 6.537c-2.5 0-4.6 1.712-5.241 4.015-.56-1.232-1.793-2.105-3.225-2.105A3.569 3.569 0 0 0 0 12a3.569 3.569 0 0 0 3.552 3.553c1.432 0 2.664-.874 3.224-2.106.641 2.304 2.742 4.016 5.242 4.016 2.487 0 4.576-1.693 5.231-3.977.569 1.21 1.783 2.067 3.198 2.067A3.568 3.568 0 0 0 24 12a3.569 3.569 0 0 0-3.553-3.553c-1.416 0-2.63.858-3.199 2.067-.654-2.284-2.743-3.978-5.23-3.977zm0 2.085c1.878 0 3.378 1.5 3.378 3.378 0 1.878-1.5 3.378-3.378 3.378A3.362 3.362 0 0 1 8.641 12c0-1.878 1.5-3.378 3.377-3.378zm-8.466 1.91c.822 0 1.467.645 1.467 1.468s-.644 1.467-1.467 1.468A1.452 1.452 0 0 1 2.085 12c0-.823.644-1.467 1.467-1.467zm16.895 0c.823 0 1.468.645 1.468 1.468s-.645 1.468-1.468 1.468A1.452 1.452 0 0 1 18.98 12c0-.823.644-1.467 1.467-1.467z"
     id="path3"
     style="fill:#0082c9;fill-opacity:1" />
</svg>
