<svg width="133.89" height="94.627" enable-background="new 0 0 196.6 72" version="1.1" viewBox="0 0 133.89 94.627" xml:space="preserve" xmlns="http://www.w3.org/2000/svg"><path d="m67.033 10c-11.805 0-21.811 8.0032-24.912 18.847-2.6952-5.7515-8.5359-9.7809-15.263-9.7809-9.2518 0-16.857 7.6052-16.857 16.857 0 9.2518 7.6052 16.861 16.857 16.861 6.7274 0 12.568-4.0319 15.263-9.7844 3.1012 10.844 13.107 18.85 24.912 18.85 11.718 0 21.673-7.8851 24.853-18.607 2.745 5.6219 8.5134 9.5413 15.145 9.5413 9.2518 0 16.861-7.6087 16.861-16.861 0-9.2518-7.6087-16.857-16.861-16.857-6.6319 0-12.4 3.917-15.145 9.5379-3.1805-10.721-13.135-18.604-24.853-18.604zm0 9.8955c8.9116 0 16.031 7.1156 16.031 16.027s-7.1191 16.031-16.031 16.031c-8.9116 0-16.027-7.1191-16.027-16.031s7.1156-16.027 16.027-16.027zm-40.176 9.0657c3.9044 0 6.965 3.0572 6.965 6.9616 0 3.9044-3.0607 6.965-6.965 6.965-3.9044 0-6.9616-3.0607-6.9616-6.965 0-3.9044 3.0572-6.9616 6.9616-6.9616zm80.174 0c3.9044 0 6.965 3.0572 6.965 6.9616 0 3.9044-3.0607 6.965-6.965 6.965-3.9044 0-6.9616-3.0607-6.9616-6.965 0-3.9044 3.0572-6.9616 6.9616-6.9616z" color="#000000" color-rendering="auto" enable-background="accumulate" fill="#0082c9" image-rendering="auto" shape-rendering="auto" solid-color="#000000" style="block-progression:tb;isolation:auto;mix-blend-mode:normal;text-decoration-color:#000000;text-decoration-line:none;text-decoration-style:solid;text-indent:0;text-transform:none;white-space:normal"/><g transform="matrix(.47039 0 0 .47039 21.389 50.76)" fill="#0082c9"><path d="m37.67 48.9c5.9 0 9.2 4.2 9.2 10.5 0 0.6-0.5 1.1-1.1 1.1h-15.9c0.1 5.6 4 8.8 8.5 8.8 2.8 0 4.8-1.2 5.8-2 0.6-0.4 1.1-0.3 1.4 0.3l0.3 0.5c0.3 0.5 0.2 1-0.3 1.4-1.2 0.9-3.8 2.4-7.3 2.4-6.5 0-11.5-4.7-11.5-11.5 0.1-7.2 4.9-11.5 10.9-11.5zm6.1 9.4c-0.2-4.6-3-6.9-6.2-6.9-3.7 0-6.9 2.4-7.6 6.9h13.8z"/><path d="m76.9 52.1v-2.5-5.2c0-0.7 0.4-1.1 1.1-1.1h0.8c0.7 0 1 0.4 1 1.1v5.2h4.5c0.7 0 1.1 0.4 1.1 1.1v0.3c0 0.7-0.4 1-1.1 1h-4.5v11c0 5.1 3.1 5.7 4.8 5.8 0.9 0.1 1.2 0.3 1.2 1.1v0.6c0 0.7-0.3 1-1.2 1-4.8 0-7.7-2.9-7.7-8.1v-11.3z"/><path d="m99.8 48.9c3.8 0 6.2 1.6 7.3 2.5 0.5 0.4 0.6 0.9 0.1 1.5l-0.3 0.5c-0.4 0.6-0.9 0.6-1.5 0.2-1-0.7-2.9-2-5.5-2-4.8 0-8.6 3.6-8.6 8.9 0 5.2 3.8 8.8 8.6 8.8 3.1 0 5.2-1.4 6.2-2.3 0.6-0.4 1-0.3 1.4 0.3l0.3 0.4c0.3 0.6 0.2 1-0.3 1.5-1.1 0.9-3.8 2.8-7.8 2.8-6.5 0-11.5-4.7-11.5-11.5 0.1-6.8 5.1-11.6 11.6-11.6z"/><path d="m113.1 41.8c0-0.7-0.4-1.1 0.3-1.1h0.8c0.7 0 1.8 0.4 1.8 1.1v23.9c0 2.8 1.3 3.1 2.3 3.2 0.5 0 0.9 0.3 0.9 1v0.7c0 0.7-0.3 1.1-1.1 1.1-1.8 0-5-0.6-5-5.4v-24.5z"/><path d="m133.6 48.9c6.4 0 11.6 4.9 11.6 11.4 0 6.6-5.2 11.6-11.6 11.6s-11.6-5-11.6-11.6c0-6.5 5.2-11.4 11.6-11.4zm0 20.4c4.7 0 8.5-3.8 8.5-9 0-5-3.8-8.7-8.5-8.7s-8.6 3.8-8.6 8.7c0.1 5.1 3.9 9 8.6 9z"/><path d="m183.5 48.9c5.3 0 7.2 4.4 7.2 4.4h0.1s-0.1-0.7-0.1-1.7v-9.9c0-0.7-0.3-1.1 0.4-1.1h0.8c0.7 0 1.8 0.4 1.8 1.1v28.5c0 0.7-0.3 1.1-1 1.1h-0.7c-0.7 0-1.1-0.3-1.1-1v-1.7c0-0.8 0.2-1.4 0.2-1.4h-0.1s-1.9 4.6-7.6 4.6c-5.9 0-9.6-4.7-9.6-11.5-0.2-6.8 3.9-11.4 9.7-11.4zm0.1 20.4c3.7 0 7.1-2.6 7.1-8.9 0-4.5-2.3-8.8-7-8.8-3.9 0-7.1 3.2-7.1 8.8 0.1 5.4 2.9 8.9 7 8.9z"/><path d="m1 71.4h0.8c0.7 0 1.1-0.4 1.1-1.1v-21.472c0-3.4 3.7-5.8277 7.9-5.8277s7.9 2.4277 7.9 5.8277v21.472c0 0.7 0.4 1.1 1.1 1.1h0.8c0.7 0 1-0.4 1-1.1v-21.6c0-5.7-5.7-8.5-10.9-8.5-5 0-10.7 2.8-10.7 8.5v21.6c0 0.7 0.3 1.1 1 1.1z"/><path d="m167.9 49.4h-0.8c-0.7 0-1.1 0.4-1.1 1.1v12.1c0 3.4-2.2 6.5-6.5 6.5-4.2 0-6.5-3.1-6.5-6.5v-12.1c0-0.7-0.4-1.1-1.1-1.1h-0.8c-0.7 0-1 0.4-1 1.1v12.9c0 5.7 4.2 8.5 9.4 8.5s9.4-2.8 9.4-8.5v-12.9c0.1-0.7-0.3-1.1-1-1.1z"/><path d="m68.908 49.236c-0.24494 0.0391-0.4801 0.20259-0.70508 0.4707l-4.0469 4.8242-3.0293 3.6094-4.5859-5.4668-2.4883-2.9668c-0.22498-0.26812-0.47975-0.41472-0.74414-0.4375-0.26439-0.02278-0.53852 0.07775-0.80664 0.30273l-0.61328 0.51367c-0.53623 0.44995-0.50854 0.94814-0.05859 1.4844l4.0488 4.8242 3.3574 4-4.916 5.8574c-0.0037 0.0044-0.0061 0.0093-0.0098 0.01367l-2.4805 2.9551c-0.44995 0.53623-0.39953 1.1008 0.13672 1.5508l0.61328 0.51172c0.53623 0.44995 1.0227 0.33701 1.4727-0.19922l4.0469-4.8242 3.0293-3.6094 4.5859 5.4668c3e-3 0.0036 0.0067 0.0062 0.0098 0.0098l2.4805 2.957c0.44995 0.53623 1.0126 0.58474 1.5488 0.13476l0.61328-0.51367c0.53623-0.44995 0.50854-0.94814 0.05859-1.4844l-4.0488-4.8242-3.3574-4 4.916-5.8574c0.0037-0.0044 0.0061-0.0093 0.0098-0.01367l2.4805-2.9551c0.44995-0.53623 0.39953-1.1008-0.13672-1.5508l-0.61328-0.51367c-0.26812-0.22498-0.52264-0.30864-0.76758-0.26953z"/></g></svg>
