<svg xmlns="http://www.w3.org/2000/svg" xmlns:svg="http://www.w3.org/2000/svg" id="svg2772" width="451.322" height="120.401" version="1.1" viewBox="0 0 119.412 31.856"><metadata id="metadata2769"/><g id="layer1" transform="translate(-12.403592,-122.69994)"><path id="path2401" fill="#525257" fill-opacity="1" fill-rule="nonzero" stroke="none" stroke-width=".243" d="m 103.31361,143.98102 c -6.544092,-7.17093 -19.464266,-21.28108 -19.464266,-21.28108 0,0 0,21.46344 0,31.85608 1.519677,0 2.907323,0 4.642676,0 0,-6.47674 0,-12.80516 0,-19.46427 6.063392,6.72476 11.84667,13.15287 17.49793,19.41492 0.9422,0 1.61864,0 2.32984,0 0,-10.44299 0,-20.76926 0,-31.12957 -1.66872,0 -3.22244,0 -5.00618,0 0,6.80816 0,13.48331 0,20.60392 z"/><path id="path2403" fill="#525257" fill-opacity="1" fill-rule="nonzero" stroke="none" stroke-width=".243" d="m 23.68908,127.95413 c -6.477715,0 -11.285488,4.7251 -11.285488,11.08708 0,6.42714 4.725103,11.10313 11.218137,11.12015 6.444161,0 11.302508,-4.75842 11.31953,-11.08708 0.03234,-6.36174 -4.775435,-11.1041 -11.252179,-11.12015 z m 0.01507,18.63781 c -4.097291,0.0173 -7.203268,-3.32043 -7.169957,-7.68275 0.03234,-4.23054 3.040328,-7.32023 7.104552,-7.32023 4.081246,0 7.187952,3.22171 7.204243,7.4683 0.01605,4.26361 -3.073638,7.51766 -7.138835,7.53468 z"/><path id="path2405" fill="#525257" fill-opacity="1" fill-rule="nonzero" stroke="none" stroke-width=".243" d="m 122.38082,128.26755 c -1.25586,0 -2.3955,0 -3.70047,0 -3.10695,7.08923 -6.2297,14.19379 -9.41908,21.44739 1.58703,0 2.79231,0 3.99954,0 0.77589,-1.73535 1.50242,-3.37076 2.23016,-4.99013 3.38681,0 6.65886,0 9.99656,0 0.72653,1.6697 1.45305,3.30511 2.19685,5.00618 1.42193,0 2.62721,0 4.13157,0 -3.18938,-7.26965 -6.29511,-14.34187 -9.43513,-21.46344 z m -5.38646,12.78912 c 1.1569,-2.70989 2.23015,-5.20508 3.45344,-8.09611 1.23859,2.85796 2.34613,5.35291 3.53513,8.09611 -2.42759,0 -4.57606,0 -6.98857,0 z"/><path id="path2407" fill="#525257" fill-opacity="1" fill-rule="nonzero" stroke="none" stroke-width=".243" d="m 64.369022,144.46075 c -2.627223,-2.79257 -2.777243,-7.51767 -0.330684,-10.47532 2.659555,-3.20567 6.195664,-3.18962 11.367188,0.11477 0.777104,-0.89187 1.570012,-1.78374 2.347109,-2.67658 -2.99194,-3.25479 -8.031676,-4.37838 -12.376979,-2.80836 -4.212308,1.50338 -7.037928,5.40226 -7.20327,9.86452 -0.1651,4.49338 1.783731,9.20268 8.046747,11.46591 0.346736,0.5624 0.726528,1.13988 1.073264,1.66897 1.140601,0 2.197812,0 3.238736,0 0.38004,-0.57772 0.72774,-1.10657 1.074228,-1.63566 0.08267,0.11598 4.361592,-2.04877 6.560384,-3.32141 -1.156896,-1.12261 -1.933758,-1.88342 -2.792558,-2.70988 -4.511378,3.33866 -8.196534,3.50376 -11.004165,0.51304 z"/><path id="path2409" fill="#525257" fill-opacity="1" fill-rule="nonzero" stroke="none" stroke-width=".243" d="m 35.782794,149.68163 c 1.304977,0 2.49519,0 3.866789,0 0,-2.9083 0,-5.70061 0,-8.64125 3.684185,0 7.170932,0 10.641388,0 0,-1.23933 0,-2.31356 0,-3.58644 -3.635798,0 -7.105281,0 -10.575009,0 0,-1.94883 0,-3.66716 0,-5.60093 4.064226,0 8.013442,0 11.995968,0 0,-1.27166 0,-2.32887 0,-3.43641 -5.336863,0 -10.54194,0 -15.911872,0 -0.01727,7.1882 -0.01727,14.19379 -0.01727,21.26503 z"/><path id="path2411" fill="#525257" fill-opacity="1" fill-rule="nonzero" stroke="none" stroke-width=".243" d="m 78.445851,149.71494 c 1.288933,0 2.445836,0 3.701451,0 0,-7.13762 0,-14.19282 0,-21.28205 -1.288933,0 -2.445828,0 -3.701451,0 0,7.13762 0,14.19378 0,21.28205 z"/><path id="path2413" fill="#525257" fill-opacity="1" fill-rule="nonzero" stroke="none" stroke-width=".243" d="m 53.363638,149.68163 c 1.30595,0 2.495185,0 3.717496,0 0,-7.13859 0,-14.14346 0,-21.23172 -1.254643,0 -2.3955,0 -3.717496,0 0,7.15489 0,14.16048 0,21.23172 z"/></g></svg>