<svg xmlns="http://www.w3.org/2000/svg" xmlns:svg="http://www.w3.org/2000/svg" id="svg1748" width="252.444" height="77.042" version="1.1" viewBox="0 0 66.793 20.384"><metadata id="metadata1745"/><g id="layer1" transform="translate(-74.421646,-135.18081)"><g id="g11" transform="matrix(0.40059858,0,0,0.40059858,69.658929,132.96029)"><g id="g13"><circle id="circle15" cx="37.331" cy="30.985" r="25.442" fill="#2c2c2c" fill-opacity="1"/><path id="path17" fill="#fff" d="m 33.235,48.484 c -3.559,0 -6.454,-2.895 -6.454,-6.454 0,-1.206 0.324,-2.372 0.938,-3.373 l 0.077,-0.126 3.748,-3.734 -16.336,-16.452 c 0,-0.426 0.941,-1.912 1.399,-2.16 l 16.693,16.86 6.133,-6.11 -3.483,-3.478 -0.06,-0.08 c -0.787,-1.082 -1.168,-2.288 -1.168,-3.688 0,-3.559 2.896,-6.454 6.454,-6.454 3.558,0 6.453,2.895 6.453,6.454 0,1.537 -0.521,2.922 -1.547,4.119 l -0.065,0.071 -3.067,3.058 16.614,16.579 c -0.025,0.317 -0.989,1.968 -1.343,2.088 l -17.03,-16.915 -6.142,6.119 3.291,3.333 c 0.883,1.155 1.349,2.499 1.349,3.89 -10e-4,3.558 -2.896,6.453 -6.454,6.453 z m -3.469,-8.411 c -0.329,0.584 -0.502,1.257 -0.502,1.958 0,2.188 1.782,3.971 3.972,3.971 2.19,0 3.974,-1.781 3.974,-3.971 0,-0.83 -0.269,-1.609 -0.794,-2.321 l -3.122,-3.15 z m 8.082,-18.228 3.345,3.339 3.037,-3.026 c 0.619,-0.735 0.919,-1.542 0.919,-2.467 0,-2.19 -1.78,-3.971 -3.971,-3.971 -2.191,0 -3.972,1.781 -3.972,3.971 10e-4,0.835 0.205,1.523 0.642,2.154 z"/></g><path id="path19" fill="#2c2c2c" fill-opacity="1" d="m 75.301,25.808 c 1.53,-1.693 2.958,-2.438 4.997,-2.438 5.236,0 7.921,4.556 7.921,9.043 0,4.487 -2.754,9.315 -7.921,9.281 -2.144,0 -3.671,-0.714 -4.997,-2.176 v 7.955 h -3.06 V 23.846 h 3.06 z m 4.997,13.132 c 2.992,0 4.726,-3.06 4.726,-6.459 0,-3.332 -1.698,-6.323 -4.726,-6.323 -6.969,0 -6.969,12.782 0,12.782 z"/><path id="path21" fill="#2c2c2c" fill-opacity="1" d="m 94.17,25.808 c 1.122,-2.057 2.89,-2.71 4.896,-2.71 4.861,0 6.527,3.468 6.527,7.445 v 10.403 h -3.06 V 30.543 c 0,-2.55 -0.852,-4.691 -3.47,-4.691 -2.992,0 -4.896,1.802 -4.896,4.691 V 40.946 H 91.105 V 16.4 h 3.062 z"/><path id="path23" fill="#2c2c2c" fill-opacity="1" d="m 112.292,25.808 c 1.527,-1.693 2.957,-2.438 4.997,-2.438 5.233,0 7.922,4.556 7.922,9.043 0,4.487 -2.754,9.315 -7.922,9.281 -2.144,0 -3.672,-0.714 -4.997,-2.176 v 7.955 H 109.23 V 23.846 h 3.062 z m 4.997,13.132 c 2.99,0 4.726,-3.06 4.726,-6.459 0,-3.332 -1.7,-6.323 -4.726,-6.323 -6.969,0 -6.969,12.782 0,12.782 z"/><path id="path25" fill="#2c2c2c" fill-opacity="1" d="M 128.863,40.946 V 16.4 h 3.229 v 21.622 h 12.341 v 2.924 z"/><path id="path27" fill="#2c2c2c" fill-opacity="1" d="M 146.737,19.834 V 16.4 h 3.4 v 3.434 z m 0.17,21.112 V 23.574 h 3.061 v 17.372 z"/><path id="path29" fill="#2c2c2c" fill-opacity="1" d="m 152.911,34.963 h 3.195 c 0.17,2.584 1.77,3.773 3.738,3.773 2.006,0 3.943,-0.918 3.943,-2.754 0,-0.884 -0.512,-1.428 -1.395,-1.835 -0.477,-0.204 -1.02,-0.374 -1.633,-0.545 -3.16,-0.781 -7.785,-1.121 -7.785,-5.371 0,-3.808 3.469,-4.861 6.562,-4.861 3.363,0 6.936,1.462 6.936,6.392 h -3.229 c 0,-2.958 -1.904,-3.672 -3.705,-3.672 -1.734,0 -3.332,0.646 -3.332,2.142 0,0.714 0.439,1.156 1.395,1.53 0.477,0.204 1.055,0.374 1.664,0.51 0.613,0.136 1.293,0.306 1.975,0.441 2.686,0.646 5.812,1.666 5.812,5.27 0,3.944 -3.807,5.474 -7.139,5.474 -3.5,-10e-4 -6.934,-2.074 -7.002,-6.494 z"/><path id="path31" fill="#2c2c2c" fill-opacity="1" d="M 171.444,36.119 V 26.43 h -3.398 v -2.55 h 3.398 v -4.521 h 3.062 v 4.521 h 4.113 v 2.55 h -4.113 v 9.689 c 0,1.224 -0.035,2.753 1.562,2.753 0.309,0 0.613,-0.067 0.953,-0.102 0.34,-0.068 0.682,-0.136 1.6,-0.238 v 2.516 c -1.09,0.272 -1.805,0.408 -2.584,0.408 -4.253,0 -4.593,-2.21 -4.593,-5.337 z"/></g></g></svg>