<svg xmlns="http://www.w3.org/2000/svg" xmlns:svg="http://www.w3.org/2000/svg" id="svg4562" width="641.468" height="240.345" version="1.1" viewBox="0 0 169.722 63.591"><metadata id="metadata4559"/><g id="layer1" transform="translate(-14.16896,-93.706667)"><g id="g12" transform="matrix(0.0265326,0,0,-0.0265326,14.16896,157.29788)"><path id="path14" fill="#fff" fill-opacity="1" fill-rule="nonzero" stroke="none" d="M 0,2396.72 H 6396.72 V 0 H 0 Z"/><path id="path16" fill="#000" fill-opacity="1" fill-rule="nonzero" stroke="none" d="m 2020.27,549.539 v 45.781 h 20.32 c 4.06,0 7.18,-0.39 9.29,-1.211 2.15,-0.82 3.83,-2.308 5.12,-4.379 1.25,-2.07 1.88,-4.371 1.88,-6.91 0,-3.25 -1.06,-5.98 -3.13,-8.211 -2.11,-2.218 -5.39,-3.629 -9.77,-4.25 1.61,-0.789 2.82,-1.531 3.68,-2.269 1.75,-1.641 3.43,-3.668 5,-6.09 l 7.97,-12.461 h -7.62 l -6.06,9.531 c -1.75,2.731 -3.24,4.84 -4.37,6.289 -1.13,1.442 -2.19,2.5 -3.09,3.082 -0.9,0.547 -1.83,0.981 -2.77,1.207 -0.67,0.122 -1.8,0.204 -3.36,0.204 h -7.03 v -20.313 z m 6.06,25.582 h 13.05 c 2.73,0 4.92,0.27 6.48,0.859 1.56,0.551 2.73,1.481 3.55,2.731 0.82,1.25 1.22,2.617 1.22,4.109 0,2.18 -0.79,3.942 -2.35,5.352 -1.56,1.398 -4.06,2.109 -7.46,2.109 h -14.49 z m 14.14,45 c -26.25,0 -47.5,-21.519 -47.5,-47.769 0,-26.211 21.25,-47.5 47.5,-47.5 26.21,0 47.5,21.289 47.5,47.5 0,26.25 -21.29,47.769 -47.5,47.769 z m 0,-10 c 20.78,0 37.5,-16.949 37.5,-37.769 0,-20.782 -16.72,-37.5 -37.5,-37.5 -20.82,0 -37.5,16.718 -37.5,37.5 0,20.82 16.68,37.769 37.5,37.769 z M 1323.24,310.75 c 0,3.789 62.89,97.262 135.55,201.398 25.94,37.192 35.04,58.481 37.62,88.012 1.87,21.41 11.09,65 20.5,96.879 9.42,31.871 15.24,59.801 12.97,62.07 -2.26,2.301 -19.57,-1.289 -38.4,-7.929 -41.21,-14.539 -68.47,-15.16 -115.23,-2.66 -29.77,7.968 -40.86,7.269 -71.21,-4.301 -33.75,-12.891 -38.01,-12.93 -69.49,-0.309 -31.49,12.621 -38.4,12.578 -113.6,-0.66 -140.579,-24.691 -186.009,-10.859 -279.802,85.27 -58.128,59.492 -79.808,72.539 -90.898,54.57 -2.73,-4.41 -13.359,-8.012 -23.629,-8.012 -13.711,0 -25.633,10.742 -44.461,40.121 -14.14,22.031 -35.82,47.262 -48.16,56.051 -67.461,48.05 -143.75,13.211 -143.75,-65.66 0,-32.461 65,-130.469 97.809,-147.418 43.32,-22.422 18.91,-55.981 -35.508,-48.672 -28.16,3.789 -40.621,12.219 -78.43,53.039 -40.43,43.711 -48.051,48.52 -76.41,48.359 C 381.41,810.82 352.461,804.031 334.41,795.82 287.969,774.73 227.301,763.09 163.91,763.09 H 109.34 L 96.8789,809.109 C 68.4805,913.68 63.5195,954.539 63.5508,1083.09 c 0,98.36 3.789,149.34 14.7695,200 59.4887,273.83 210.8987,495.23 440.6287,644.3 112.692,73.12 216.172,116.05 348.281,144.45 94.411,20.31 305.74,20.86 397.54,1.09 312.61,-67.38 571.48,-264.53 706.28,-537.85 75.47,-153.04 104.18,-277.58 104.18,-451.99 0,-170.469 -28.35,-296.52 -99.88,-443.981 -51.91,-107.07 -44.72,-101.57 -120.35,-92.039 -68.44,8.602 -158.12,1.328 -215.7,-17.531 -25.71,-8.437 -32.7,-15 -35.98,-33.988 -3.48,-20.121 -10.98,-26.172 -51.95,-42.031 -34.49,-13.36 -62.42,-32.809 -100,-69.571 -28.67,-28.09 -59.34,-54.57 -68.13,-58.871 -20.66,-10.039 -60,-19.449 -60,-14.328 z m 191.99,520 c 178.25,27.141 301.61,99.922 353.17,208.36 44.14,92.85 24.92,178.2 -53.52,237.73 -37.65,28.55 -133.86,70.27 -162.11,70.27 -7.77,0 -21.29,-14.53 -31.64,-34.02 -15.74,-29.57 -59.88,-70 -76.48,-70 -3.05,0 5.27,20.31 18.51,45.12 14.18,26.64 24.07,57.18 24.07,74.49 0,77.46 -83.48,303.98 -150.63,408.59 -31.05,48.44 -46.52,64.22 -81.33,83.09 -60.19,32.66 -132.11,36.72 -225.93,12.77 -56.33,-14.33 -82.46,-16.83 -135.942,-12.97 -217.769,15.75 -209.058,15.86 -245.039,-2.54 -45.898,-23.39 -60.347,-50.78 -88.75,-168.32 -30.781,-127.22 -31.48,-166.52 -3.589,-199.68 28.429,-33.83 119.96,-75.71 211.21,-96.68 109.219,-25.12 183.67,-47.27 204.37,-60.86 9.92,-6.49 22.31,-23.32 27.58,-37.39 22.89,-61.28 35.23,-86.01 49.18,-98.63 8.16,-7.42 14.88,-17.89 14.88,-23.28 0,-58.01 -413.08,70.63 -519.568,161.8 -46.133,39.45 -59.371,68.36 -53.633,116.83 l 4.652,39.5 -105.711,-3.48 c -89.332,-2.93 -111.64,-6.29 -143.781,-21.8 C 234.77,1406.37 240,1317.39 360.309,1203.09 536.172,1036.06 896.559,873.211 1182.73,831.41 c 98.4,-14.371 240.55,-14.648 332.5,-0.66 z M 767.891,1603.6 c -28.871,29.49 -39.34,46.29 -39.34,63.4 0,39.96 28.64,60.7 52.109,37.77 35.32,-34.49 47.699,-37.7 126.801,-32.5 82.578,5.43 130.469,-3.83 139.339,-26.91 8.04,-20.94 -6.1,-27.43 -76.761,-35.24 -76.129,-8.36 -113.277,-18.75 -127.148,-35.43 -16.289,-19.65 -34.102,-12.77 -75,28.91 z m 449.339,125.97 c -36.57,3.05 -38.68,12.74 -4.81,22.43 30.98,8.9 48.21,32.18 31.49,42.61 -17.78,11.1 -78.99,18.13 -106.06,12.19 -16.21,-3.55 -22.85,-2.58 -19.49,2.89 8.48,13.67 93.24,27.58 141.41,23.24 50.19,-4.57 90.86,-22.26 98.82,-43.04 13.44,-35 -61.44,-66.92 -141.36,-60.32 z M 1189.06,555.121 c -14.41,8.789 -35.23,15.981 -46.25,15.981 -23.43,0 -33.67,19.019 -19.49,36.089 12.42,14.957 53.67,14.918 79.92,-0.082 28.05,-16.05 51.1,-14.679 68.01,3.993 19.49,21.519 27.97,20.109 27.97,-4.614 0,-25.976 -40.24,-67.418 -65.35,-67.379 -10.24,0.032 -30.43,7.219 -44.81,16.012 z"/><path id="path18" fill="#000" fill-opacity="1" fill-rule="nonzero" stroke="none" d="m 6265.51,536.102 v 45.82 h 20.31 c 4.06,0 7.19,-0.434 9.3,-1.25 2.11,-0.82 3.83,-2.274 5.08,-4.344 1.28,-2.109 1.91,-4.406 1.91,-6.906 0,-3.242 -1.06,-6.024 -3.16,-8.242 -2.11,-2.231 -5.36,-3.641 -9.73,-4.219 1.6,-0.781 2.81,-1.57 3.63,-2.313 1.8,-1.597 3.48,-3.628 5.04,-6.089 l 7.97,-12.457 h -7.62 l -6.05,9.527 c -1.8,2.73 -3.24,4.84 -4.38,6.332 -1.17,1.437 -2.18,2.461 -3.08,3.039 -0.9,0.59 -1.84,0.98 -2.78,1.211 -0.66,0.16 -1.79,0.238 -3.36,0.238 h -7.03 v -20.347 z m 6.05,25.578 h 13.01 c 2.77,0 4.96,0.32 6.52,0.859 1.57,0.59 2.74,1.492 3.56,2.781 0.82,1.25 1.21,2.61 1.21,4.102 0,2.148 -0.78,3.937 -2.34,5.348 -1.61,1.371 -4.07,2.07 -7.47,2.07 h -14.49 z m 14.1,45 c -26.21,0 -47.5,-21.52 -47.5,-47.731 0,-26.211 21.29,-47.5 47.5,-47.5 26.25,0 47.5,21.289 47.5,47.5 0,26.211 -21.25,47.731 -47.5,47.731 z m 0,-10 c 20.82,0 37.5,-16.91 37.5,-37.731 0,-20.82 -16.68,-37.5 -37.5,-37.5 -20.78,0 -37.5,16.68 -37.5,37.5 0,20.821 16.72,37.731 37.5,37.731 z M 4079.84,523.051 c 59.07,12.5 97.74,33.871 138.56,76.488 l 35.04,36.52 -1.29,-108.129 162.23,-1.52 -4.15,965.98 -173.98,45.47 -6.02,-377.04 -32.3,27.66 c -19.18,16.41 -51.09,32.93 -78.52,40.63 -157.85,44.25 -309.84,-40.71 -370.27,-207.04 -24.02,-66.09 -26.13,-218.781 -3.91,-284.019 38.21,-112.231 119.11,-191.762 218.99,-215.313 42.54,-10.039 67.23,-9.957 115.62,0.313 z m -53.59,144.769 c -40.78,14.45 -63.91,35.352 -88.09,79.641 -19.68,36.098 -23.75,53.719 -26.48,115.789 -3.83,85.5 9.06,134.762 47.34,181.25 73.17,88.75 203.52,74.92 255.59,-27.11 22.19,-43.562 22.58,-219.218 0.59,-267.66 -32.58,-71.718 -115.86,-107.808 -188.95,-81.91 z M 5479.84,523.051 c 56.49,11.949 96.49,33.09 134.38,70.98 l 31.33,31.328 5.39,-47.66 5.39,-47.66 h 28.98 28.99 l -2.07,238.012 c -2.11,241.489 -8.09,302.969 -34.22,354.019 -18.71,36.49 -60.59,76.22 -95.74,90.79 -69.97,29.06 -178.64,22.85 -262.04,-14.89 -44.49,-20.15 -46.4,-23.24 -34.29,-55.08 l 7.69,-20.23 45.86,21.02 c 60.51,27.69 147.85,34.25 198.48,14.92 64.8,-24.77 100.12,-83.44 100.23,-166.53 l 0.04,-38 h -51.29 c -115,0 -245.04,-41.57 -299.06,-95.59 -43.59,-43.589 -60.55,-84.878 -60.9,-148.441 -0.62,-102.379 53.13,-166.719 159.26,-190.539 28.63,-6.41 50.47,-5.59 93.59,3.551 z m -113.36,69.258 c -43.78,24.261 -59.06,50.941 -62.81,109.921 -3.98,62.969 6.1,90.309 46.99,127.27 39.46,35.621 114.11,58.711 212,65.621 l 75.58,5.309 v -91.559 c 0,-89.019 -0.7,-92.691 -25.97,-134.883 -37.04,-61.718 -84.18,-89.297 -160.12,-93.668 -46.49,-2.699 -63.36,-0.32 -85.67,11.989 z m 752.07,-70.2 c 23.36,4.422 43.68,9.262 45.16,10.75 1.45,1.442 0.39,13.821 -2.34,27.532 l -4.96,24.89 -49.53,-4.609 c -60.51,-5.672 -92.54,8.199 -111.57,48.238 -11.25,23.711 -13.04,62.969 -13.04,280.352 v 252.808 h 95.97 96.02 v 27.97 28.01 h -96.02 -95.97 v 71.99 c 0,39.61 -2.31,72.03 -5.08,72.03 -2.81,0 -18.99,-4.18 -36.02,-9.29 l -30.94,-9.26 v -62.38 -62.39 l -57.96,-2.34 -58.01,-2.34 -2.5,-26.02 -2.54,-25.98 h 60.12 60.11 l 2.39,-266.011 c 2.3,-254.219 3.16,-267.418 19.57,-298.008 22.61,-42.192 42.26,-59.02 84.18,-72.11 43.24,-13.48 50.54,-13.75 102.96,-3.832 z m -2551.64,22.661 52.7,17.109 -12.07,58.082 c -6.68,31.961 -13.05,59.34 -14.18,60.898 -1.13,1.532 -25,-2.968 -53.09,-10 -29.84,-7.5 -84.33,-12.808 -131.09,-12.808 -71.48,0 -84.73,2.34 -123.44,21.988 -50.47,25.59 -86.56,71.762 -92.85,118.672 l -4.22,31.328 h 230.78 230.78 l -0.7,92.031 c -0.55,75.36 -3.87,99.77 -18.32,135.16 -53.12,129.96 -151.01,191.21 -292.23,182.89 -139.6,-8.24 -240.62,-81.8 -292.3,-212.93 -48.52,-123.159 -29.8,-293.549 42.3,-384.69 35.75,-45.109 95.2,-85.82 153.01,-104.68 67.85,-22.148 247.11,-18.281 324.92,6.95 z m -376.6,423.281 c 0.16,25.699 37.35,94.409 62.58,115.659 74.38,62.54 174.1,43.17 217.7,-42.34 8.63,-16.87 15.66,-43.44 15.66,-58.979 V 954.07 h -148.01 c -135.66,0 -148.01,1.168 -147.93,13.981 z M 2766.25,750.039 c 4.34,234.852 5.31,240.121 53.28,285.511 30.24,28.59 58.87,38.52 111.25,38.52 h 43.48 v 85.11 85.08 l -48.01,-4.33 c -75,-6.8 -143.83,-55.32 -172.89,-121.88 l -10.47,-23.98 -0.31,28.86 c -0.2,15.9 -2.62,45.59 -5.43,66.02 l -5.08,37.11 h -73.91 -73.94 l -0.39,-702.771 178.4,0.07 z m 1871.99,28.012 c 4.46,271.489 3.75,267.739 62.7,326.679 40.23,40.23 83.71,59.81 141.33,63.59 67.73,4.42 124.68,-25.54 156.83,-82.5 31.88,-56.52 38.79,-119.289 38.99,-353.75 l 0.15,-202.031 h 64.03 v 243.172 c 0,219.57 0.46,248.829 -15.82,294.329 -90.12,251.57 -351.61,169.42 -448.21,41.72 l -4.41,325.28 -67.58,16.6 V 529.141 l 69.14,-0.11 z"/><path id="path20" fill="#ca0000" fill-opacity="1" fill-rule="nonzero" stroke="none" d="m 1240.86,1882.5 c -33.52,0.28 -70.47,-4.8 -111.52,-15.27 -56.33,-14.37 -82.54,-16.87 -135.981,-13.01 -217.808,15.78 -209.019,15.86 -245,-2.5 -45.898,-23.4 -60.308,-50.93 -88.75,-168.47 -30.781,-127.27 -31.41,-166.37 -3.519,-199.5 28.48,-33.82 120,-75.78 211.25,-96.75 109.18,-25.12 183.52,-47.19 204.26,-60.75 9.88,-6.52 22.23,-23.43 27.5,-37.5 22.89,-61.29 35.31,-86.13 49.26,-98.75 8.16,-7.42 15,-17.85 15,-23.28 0,-57.97 -413.282,70.63 -519.77,161.76 -46.129,39.49 -59.25,68.52 -53.512,116.99 l 4.531,39.53 -105.781,-3.51 c -89.297,-2.93 -111.598,-6.25 -143.75,-21.76 -110.43,-53.24 -105.039,-142.46 15.274,-256.76 175.82,-167.03 536.289,-329.681 822.498,-371.482 98.36,-14.379 240.55,-14.769 332.5,-0.738 178.2,27.109 301.45,99.84 353.01,208.24 44.14,92.85 24.96,178.24 -53.52,237.73 -37.65,28.6 -133.75,70.28 -161.99,70.28 -7.77,0 -21.37,-14.5 -31.76,-34.03 -15.74,-29.57 -59.92,-70 -76.48,-70 -3.09,0 5.23,20.43 18.48,45.28 14.21,26.6 24.25,57.18 24.25,74.49 0,77.46 -83.63,303.87 -150.74,408.51 -31.09,48.4 -46.44,64.38 -81.25,83.25 -33.87,18.36 -71.4,27.61 -114.49,28 z m -0.78,-48.75 c 6.95,-0.04 13.75,-0.23 19.76,-0.78 50.2,-4.53 90.79,-22.22 98.75,-42.97 13.44,-35 -61.32,-67.14 -141.25,-60.5 -36.6,3 -38.82,12.77 -5,22.5 30.98,8.86 48.21,32.07 31.49,42.5 -17.78,11.09 -78.91,18.2 -105.98,12.22 -16.21,-3.55 -22.89,-2.46 -19.49,3.01 7.38,11.95 73.12,24.06 121.72,24.02 z M 758.09,1714.22 c 7.301,0.63 15.148,-2.3 22.5,-9.49 35.351,-34.49 47.648,-37.66 126.75,-32.5 82.582,5.43 130.67,-3.67 139.5,-26.76 8.04,-20.93 -6.06,-27.46 -76.762,-35.23 -76.129,-8.4 -113.359,-18.79 -127.226,-35.51 -16.293,-19.65 -34.102,-12.93 -75,28.75 -28.903,29.49 -39.262,46.41 -39.262,63.52 0,27.46 13.441,45.89 29.5,47.22 z"/></g></g></svg>