<?xml version="1.0" encoding="UTF-8" standalone="no"?>
<!-- Created with Inkscape (http://www.inkscape.org/) -->

<svg
   xmlns:dc="http://purl.org/dc/elements/1.1/"
   xmlns:cc="http://creativecommons.org/ns#"
   xmlns:rdf="http://www.w3.org/1999/02/22-rdf-syntax-ns#"
   xmlns:svg="http://www.w3.org/2000/svg"
   xmlns="http://www.w3.org/2000/svg"
   xmlns:sodipodi="http://sodipodi.sourceforge.net/DTD/sodipodi-0.dtd"
   xmlns:inkscape="http://www.inkscape.org/namespaces/inkscape"
   width="360.85754"
   height="100"
   viewBox="0 0 95.476888 26.458331"
   version="1.1"
   id="svg8"
   inkscape:version="0.92.3 (2405546, 2018-03-11)"
   sodipodi:docname="stickermule-logo.svg">
  <defs
     id="defs2">
    <clipPath
       id="clipPath850"
       clipPathUnits="userSpaceOnUse">
      <path
         inkscape:connector-curvature="0"
         id="path848"
         d="M 0,133.5 H 361 V 0 H 0 Z" />
    </clipPath>
  </defs>
  <sodipodi:namedview
     id="base"
     pagecolor="#ffffff"
     bordercolor="#666666"
     borderopacity="1.0"
     inkscape:pageopacity="0.0"
     inkscape:pageshadow="2"
     inkscape:zoom="0.49497475"
     inkscape:cx="-5.2105556"
     inkscape:cy="134.46066"
     inkscape:document-units="mm"
     inkscape:current-layer="layer1"
     showgrid="false"
     fit-margin-top="0"
     fit-margin-left="0"
     fit-margin-right="0"
     fit-margin-bottom="0"
     units="px"
     inkscape:window-width="1366"
     inkscape:window-height="718"
     inkscape:window-x="0"
     inkscape:window-y="0"
     inkscape:window-maximized="1" />
  <metadata
     id="metadata5">
    <rdf:RDF>
      <cc:Work
         rdf:about="">
        <dc:format>image/svg+xml</dc:format>
        <dc:type
           rdf:resource="http://purl.org/dc/dcmitype/StillImage" />
        <dc:title></dc:title>
      </cc:Work>
    </rdf:RDF>
  </metadata>
  <g
     inkscape:label="Layer 1"
     inkscape:groupmode="layer"
     id="layer1"
     transform="translate(-68.654573,-110.59315)">
    <g
       transform="matrix(0.98298819,0,0,-0.98298819,-115.36855,188.96843)"
       inkscape:label="made-by-sticker-mule"
       id="g842">
      <g
         id="g844">
        <g
           clip-path="url(#clipPath850)"
           id="g846">
          <g
             transform="translate(206.5936,60.4681)"
             id="g852">
            <path
               inkscape:connector-curvature="0"
               id="path854"
               style="fill:#231f20;fill-opacity:1;fill-rule:nonzero;stroke:none"
               d="m 0,0 c -1.375,0 -2.616,0.152 -3.722,1.266 l 1.425,1.435 c 0.721,-0.726 1.66,-0.827 2.331,-0.827 0.754,0 1.542,0.253 1.542,0.911 0,0.439 -0.235,0.743 -0.922,0.81 L -0.721,3.73 c -1.576,0.152 -2.548,0.844 -2.548,2.465 0,1.823 1.593,2.802 3.369,2.802 1.359,0 2.499,-0.236 3.337,-1.03 L 2.096,6.6 C 1.593,7.056 0.822,7.191 0.067,7.191 c -0.872,0 -1.24,-0.405 -1.24,-0.844 0,-0.321 0.133,-0.692 0.905,-0.76 L 1.107,5.452 C 2.834,5.284 3.706,4.355 3.706,2.87 3.706,0.928 2.063,0 0,0" />
          </g>
          <g
             transform="translate(214.1043,60.5694)"
             id="g856">
            <path
               inkscape:connector-curvature="0"
               id="path858"
               style="fill:#231f20;fill-opacity:1;fill-rule:nonzero;stroke:none"
               d="M 0,0 C -1.777,0 -2.532,1.266 -2.532,2.515 V 6.87 h -0.922 v 1.671 h 0.922 v 2.6 h 2.18 v -2.6 H 1.19 V 6.87 H -0.352 V 2.65 c 0,-0.506 0.235,-0.793 0.754,-0.793 H 1.19 V 0 Z" />
          </g>
          <path
             inkscape:connector-curvature="0"
             id="path860"
             style="fill:#231f20;fill-opacity:1;fill-rule:nonzero;stroke:none"
             d="m 216.297,69.364 h 2.18 V 60.57 h -2.18 z m -0.034,3.291 h 2.23 v -1.789 h -2.23 z" />
          <g
             transform="translate(223.4021,60.4681)"
             id="g862">
            <path
               inkscape:connector-curvature="0"
               id="path864"
               style="fill:#231f20;fill-opacity:1;fill-rule:nonzero;stroke:none"
               d="m 0,0 c -1.744,0 -3.906,0.945 -3.906,4.507 0,3.562 2.162,4.49 3.906,4.49 1.207,0 2.113,-0.371 2.884,-1.182 L 1.409,6.33 C 0.956,6.819 0.57,7.022 0,7.022 -0.52,7.022 -0.922,6.836 -1.241,6.448 -1.576,6.026 -1.727,5.435 -1.727,4.507 -1.727,3.578 -1.576,2.971 -1.241,2.549 -0.922,2.16 -0.52,1.975 0,1.975 c 0.57,0 0.956,0.202 1.409,0.692 L 2.884,1.198 C 2.113,0.388 1.207,0 0,0" />
          </g>
          <g
             transform="translate(232.2995,60.5694)"
             id="g866">
            <path
               inkscape:connector-curvature="0"
               id="path868"
               style="fill:#231f20;fill-opacity:1;fill-rule:nonzero;stroke:none"
               d="M 0,0 -2.146,3.663 -3.068,2.616 V 0 h -2.18 v 12.018 h 2.18 V 5.199 l 2.901,3.595 H 2.465 L -0.654,5.25 2.7,0 Z" />
          </g>
          <g
             transform="translate(239.9374,66.7304)"
             id="g870">
            <path
               inkscape:connector-curvature="0"
               id="path872"
               style="fill:#231f20;fill-opacity:1;fill-rule:nonzero;stroke:none"
               d="M 0,0 C -0.234,0.523 -0.721,0.912 -1.458,0.912 -2.196,0.912 -2.683,0.523 -2.917,0 -3.051,-0.321 -3.101,-0.557 -3.118,-0.945 H 0.201 C 0.185,-0.557 0.134,-0.321 0,0 m -3.118,-2.448 c 0,-1.13 0.687,-1.958 1.911,-1.958 0.955,0 1.425,0.271 1.978,0.828 l 1.325,-1.3 c -0.889,-0.895 -1.744,-1.384 -3.32,-1.384 -2.062,0 -4.04,0.945 -4.04,4.507 0,2.869 1.542,4.49 3.806,4.49 2.431,0 3.805,-1.79 3.805,-4.203 v -0.98 z" />
          </g>
          <g
             transform="translate(248.0655,66.9667)"
             id="g874">
            <path
               inkscape:connector-curvature="0"
               id="path876"
               style="fill:#231f20;fill-opacity:1;fill-rule:nonzero;stroke:none"
               d="m 0,0 c -0.335,0.338 -0.62,0.523 -1.157,0.523 -0.671,0 -1.409,-0.506 -1.409,-1.62 v -5.3 h -2.179 v 8.794 h 2.129 V 1.553 c 0.42,0.507 1.258,0.945 2.197,0.945 0.855,0 1.459,-0.219 2.062,-0.827 z" />
          </g>
          <g
             transform="translate(259.5045,69.4651)"
             id="g878">
            <path
               inkscape:connector-curvature="0"
               id="path880"
               style="fill:#231f20;fill-opacity:1;fill-rule:nonzero;stroke:none"
               d="M 0,0 C -1.09,0 -1.878,-0.338 -2.616,-1.114 -3.169,-0.355 -3.957,0 -4.929,0 c -0.805,0 -1.61,-0.321 -2.18,-0.912 v 0.811 h -2.129 v -8.795 h 2.179 v 5.317 c 0,1.199 0.772,1.604 1.459,1.604 0.687,0 1.442,-0.405 1.442,-1.604 v -5.317 h 2.18 v 5.368 c 0,1.148 0.788,1.553 1.458,1.553 0.688,0 1.442,-0.405 1.442,-1.604 v -5.317 h 2.18 v 5.621 c 0,0.962 -0.251,1.79 -0.956,2.498 C 1.66,-0.287 0.872,0 0,0" />
          </g>
          <g
             transform="translate(268.9781,64.0464)"
             id="g882">
            <path
               inkscape:connector-curvature="0"
               id="path884"
               style="fill:#231f20;fill-opacity:1;fill-rule:nonzero;stroke:none"
               d="m 0,0 c 0,-1.198 -0.771,-1.603 -1.459,-1.603 -0.687,0 -1.442,0.405 -1.442,1.603 V 5.317 H -5.08 v -5.621 c 0,-0.962 0.184,-1.789 0.888,-2.498 0.486,-0.489 1.191,-0.776 2.063,-0.776 0.804,0 1.609,0.303 2.179,0.911 v -0.81 H 2.18 V 5.317 H 0 Z" />
          </g>
          <g
             transform="translate(274.7249,63.2194)"
             id="g886">
            <path
               inkscape:connector-curvature="0"
               id="path888"
               style="fill:#231f20;fill-opacity:1;fill-rule:nonzero;stroke:none"
               d="m 0,0 v 9.368 h -2.18 v -9.503 c 0,-1.249 0.755,-2.515 2.549,-2.515 H 1.61 v 1.857 H 0.771 C 0.218,-0.793 0,-0.523 0,0" />
          </g>
          <g
             transform="translate(278.8711,65.7854)"
             id="g890">
            <path
               inkscape:connector-curvature="0"
               id="path892"
               style="fill:#231f20;fill-opacity:1;fill-rule:nonzero;stroke:none"
               d="M 0,0 C 0.017,0.388 0.067,0.624 0.201,0.945 0.436,1.468 0.922,1.857 1.66,1.857 2.398,1.857 2.883,1.468 3.118,0.945 3.253,0.624 3.303,0.388 3.32,0 Z m 5.466,-0.523 c 0,2.414 -1.375,4.203 -3.806,4.203 -2.264,0 -3.806,-1.621 -3.806,-4.49 0,-3.562 1.978,-4.507 4.041,-4.507 1.576,0 2.431,0.489 3.319,1.384 l -1.324,1.3 C 3.336,-3.19 2.867,-3.46 1.911,-3.46 0.687,-3.46 0,-2.633 0,-1.503 h 5.466 z" />
          </g>
          <g
             transform="translate(196.1562,59.5958)"
             id="g894">
            <path
               inkscape:connector-curvature="0"
               id="path896"
               style="fill:#231f20;fill-opacity:1;fill-rule:evenodd;stroke:none"
               d="m 0,0 c -0.126,-0.061 -0.297,-0.047 -0.474,-0.053 -0.152,-0.004 -0.366,-0.007 -0.454,0.072 -0.049,0.043 -0.063,0.136 -0.066,0.19 -0.004,0.065 0.012,0.144 0.026,0.216 0.016,0.086 0.033,0.195 0,0.242 -0.038,0.055 -0.174,0.032 -0.247,0.072 -0.076,0.043 -0.098,0.147 -0.123,0.262 -0.008,0.036 -0.029,0.069 -0.033,0.098 -0.021,0.177 0.038,0.414 0.078,0.595 0.043,0.192 0.099,0.372 0.13,0.55 0.048,0.269 0.064,0.573 0.046,0.851 -0.01,0.144 -0.029,0.258 -0.007,0.379 0.021,0.113 0.068,0.207 0.091,0.32 0.007,0.036 0.002,0.079 0.007,0.118 0.004,0.035 0.024,0.063 0.026,0.092 0.004,0.075 -0.021,0.167 -0.026,0.261 -0.016,0.252 0.003,0.608 0.02,0.824 0.005,0.076 0.04,0.162 -0.014,0.197 C -1.28,5.29 -1.518,5.238 -1.761,5.207 -2.414,5.123 -3.236,5.112 -3.866,5.24 -3.926,5.252 -3.986,5.253 -4.041,5.266 -4.488,5.37 -4.9,5.563 -5.217,5.815 -5.266,5.854 -5.325,5.897 -5.38,5.94 -5.434,5.982 -5.491,6.04 -5.542,6.064 -5.797,6.183 -6.134,6.046 -6.237,5.881 -6.279,5.815 -6.308,5.73 -6.348,5.652 -6.386,5.577 -6.419,5.498 -6.452,5.423 -6.62,5.036 -6.809,4.667 -6.978,4.278 -7.076,4.054 -7.185,3.804 -7.257,3.552 -7.412,3.017 -7.268,2.302 -7.147,1.799 -7.136,1.753 -7.112,1.707 -7.095,1.655 -7.056,1.533 -6.975,1.372 -6.881,1.289 -6.831,1.245 -6.748,1.219 -6.692,1.171 -6.622,1.111 -6.57,0.991 -6.517,0.89 -6.494,0.847 -6.463,0.799 -6.432,0.746 -6.368,0.633 -6.346,0.532 -6.472,0.465 -6.566,0.414 -6.709,0.401 -6.842,0.393 -6.902,0.377 -6.883,0.295 -6.919,0.255 -6.94,0.233 -7.029,0.197 -7.076,0.184 c -0.174,-0.051 -0.468,-0.048 -0.604,0 -0.068,0.023 -0.145,0.076 -0.162,0.13 -0.034,0.107 0.05,0.242 -0.026,0.328 -0.034,0.036 -0.106,0.029 -0.169,0.058 -0.091,0.04 -0.178,0.126 -0.221,0.236 -0.104,0.263 -0.04,0.677 -0.052,1.001 -0.003,0.094 -0.016,0.195 -0.02,0.3 -0.005,0.192 -0.051,0.38 -0.071,0.57 -0.01,0.092 -0.04,0.171 -0.059,0.255 -0.029,0.135 -0.051,0.281 -0.091,0.418 -0.042,0.151 -0.043,0.298 0.007,0.425 0.014,0.036 0.051,0.069 0.071,0.118 0.031,0.074 0.041,0.161 0.039,0.229 -0.022,0.039 -0.113,0.009 -0.136,0.046 -0.054,0.413 -0.116,0.83 -0.149,1.262 -0.011,0.145 -0.012,0.296 -0.027,0.445 -0.028,0.296 -0.004,0.597 -0.032,0.883 -0.013,0.14 -0.047,0.271 -0.065,0.406 -0.05,0.379 -0.155,0.866 -0.078,1.262 0.049,0.254 0.14,0.46 0.286,0.648 0.102,0.131 0.211,0.257 0.332,0.373 0.114,0.111 0.246,0.222 0.383,0.32 0.088,0.064 0.181,0.138 0.279,0.184 0.218,0.1 0.502,0.189 0.799,0.203 0.3,0.012 0.638,0.015 0.936,-0.04 0.284,-0.052 0.566,-0.102 0.845,-0.157 0.273,-0.054 0.54,-0.128 0.799,-0.196 0.033,-0.009 0.062,-0.029 0.097,-0.039 0.083,-0.023 0.176,-0.028 0.267,-0.052 0.24,-0.067 0.558,-0.099 0.851,-0.099 0.319,0 0.607,0.009 0.871,0.072 0.039,0.01 0.069,0.03 0.11,0.046 0.041,0.016 0.091,0.013 0.13,0.026 0.026,0.009 0.054,0.038 0.084,0.052 0.152,0.073 0.281,0.147 0.417,0.242 0.106,0.076 0.194,0.141 0.337,0.197 0.063,0.024 0.127,0.058 0.188,0.078 0.135,0.044 0.281,0.084 0.384,0.151 0.162,0.104 0.281,0.254 0.416,0.372 0.14,0.124 0.281,0.242 0.429,0.36 0.298,0.24 0.601,0.459 0.883,0.687 0.143,0.116 0.301,0.224 0.468,0.321 0.328,0.188 0.66,0.41 1.13,0.445 0.185,0.013 0.38,0.019 0.566,-0.007 0.052,-0.007 0.122,-0.036 0.169,-0.026 0.052,0.011 0.089,0.09 0.123,0.15 0.071,0.125 0.121,0.209 0.183,0.36 0.038,0.094 0.022,0.187 0.116,0.183 0.097,-0.003 0.081,-0.253 0.085,-0.347 0.005,-0.114 -0.014,-0.267 0.006,-0.346 0.014,-0.055 0.087,-0.136 0.163,-0.137 0.052,-10e-4 0.087,0.042 0.136,0.072 0.051,0.029 0.098,0.047 0.13,0.071 0.077,0.059 0.169,0.155 0.247,0.236 0.064,0.067 0.165,0.223 0.273,0.209 C 5.182,13.146 4.998,12.872 4.958,12.782 4.861,12.568 4.768,12.408 4.659,12.206 4.614,12.123 4.51,12.011 4.51,11.925 4.51,11.864 4.561,11.824 4.588,11.762 4.6,11.732 4.607,11.7 4.62,11.67 4.684,11.522 4.732,11.314 4.782,11.14 4.825,10.994 4.86,10.84 4.913,10.696 4.964,10.555 5.038,10.422 5.095,10.284 5.109,10.248 5.112,10.203 5.127,10.166 5.246,9.86 5.361,9.511 5.503,9.217 5.562,9.098 5.641,8.948 5.64,8.772 5.639,8.577 5.539,8.484 5.452,8.341 5.406,8.265 5.339,8.149 5.27,8.125 5.219,8.107 5.16,8.126 5.108,8.118 5.035,8.108 4.984,8.06 4.919,8.053 4.742,8.032 4.584,8.171 4.535,8.301 4.519,8.345 4.527,8.406 4.517,8.458 4.474,8.671 4.372,8.773 4.224,8.91 4.13,8.997 4.057,9.063 3.938,9.126 3.772,9.212 3.587,9.266 3.412,9.362 3.347,9.396 3.266,9.431 3.21,9.42 3.116,9.401 3.023,9.248 2.951,9.151 2.492,8.543 2.087,7.918 1.638,7.32 1.341,6.925 1.024,6.523 0.786,6.071 0.727,5.957 0.691,5.824 0.644,5.691 0.597,5.561 0.575,5.417 0.526,5.279 0.354,4.782 0.3,4.176 0.143,3.657 0.127,3.602 0.12,3.54 0.104,3.48 0.032,3.215 -0.04,2.911 -0.123,2.63 -0.185,2.42 -0.204,2.137 -0.214,1.858 -0.224,1.599 -0.236,1.231 -0.142,1.067 -0.093,0.979 0.083,0.948 0.15,0.857 0.196,0.795 0.227,0.671 0.273,0.589 0.305,0.532 0.397,0.41 0.391,0.321 0.385,0.254 0.329,0.207 0.279,0.184 0.225,0.156 0.144,0.173 0.092,0.144 0.033,0.112 0.061,0.04 0,0" />
          </g>
        </g>
      </g>
    </g>
  </g>
</svg>
