<?xml version="1.0" encoding="utf-8"?>
<!-- Generator: Adobe Illustrator 19.2.1, SVG Export Plug-In . SVG Version: 6.00 Build 0)  -->
<svg version="1.1" id="Layer_1" xmlns="http://www.w3.org/2000/svg" xmlns:xlink="http://www.w3.org/1999/xlink" x="0px" y="0px"
	 viewBox="0 0 660 225" style="enable-background:new 0 0 660 225;" xml:space="preserve">
<style type="text/css">
	.Arched_x0020_Green{fill:url(#SVGID_1_);stroke:#FFFFFF;stroke-width:0.25;stroke-miterlimit:1;}
	.st0{fill:#4E2817;}
	.st1{fill-rule:evenodd;clip-rule:evenodd;fill:#4E2817;}
	.st2{fill:#F26922;}
</style>
<linearGradient id="SVGID_1_" gradientUnits="userSpaceOnUse" x1="330.3069" y1="115.7228" x2="331.014" y2="115.0157">
	<stop  offset="0" style="stop-color:#1EAB4B"/>
	<stop  offset="0.9831" style="stop-color:#19361A"/>
</linearGradient>
<path class="st0" d="M176.5,146.1c-7.2,0-13.8-0.8-19.6-6.6l7.5-7.5c3.8,3.8,8.7,4.3,12.3,4.3c4,0,8.1-1.3,8.1-4.8
	c0-2.3-1.2-3.9-4.9-4.2l-7.2-0.7c-8.3-0.8-13.4-4.4-13.4-12.9c0-9.5,8.4-14.7,17.8-14.7c7.2,0,13.2,1.2,17.6,5.4l-7.1,7.2
	c-2.7-2.4-6.7-3.1-10.7-3.1c-4.6,0-6.5,2.1-6.5,4.4c0,1.7,0.7,3.6,4.8,4l7.2,0.7c9.1,0.9,13.7,5.7,13.7,13.5
	C196.1,141.3,187.4,146.1,176.5,146.1z"/>
<path class="st0" d="M216.1,145.6c-9.4,0-13.3-6.6-13.3-13.2v-22.8h-4.9v-8.7h4.9V87.3h11.5v13.6h8.1v8.7h-8.1v22.1
	c0,2.6,1.2,4.2,4,4.2h4.2v9.7H216.1z"/>
<path class="st0" d="M227.5,91.7v-9.4h11.8v9.4H227.5z M227.7,145.6v-46h11.5v46H227.7z"/>
<path class="st0" d="M265.1,146.1c-9.2,0-20.6-4.9-20.6-23.6c0-18.6,11.4-23.5,20.6-23.5c6.4,0,11.1,1.9,15.2,6.2l-7.8,7.8
	c-2.4-2.6-4.4-3.6-7.4-3.6c-2.7,0-4.9,1-6.5,3c-1.8,2.2-2.6,5.3-2.6,10.2c0,4.9,0.8,8,2.6,10.3c1.7,2,3.8,3,6.5,3c3,0,5-1.1,7.4-3.6
	l7.8,7.7C276.2,144.1,271.5,146.1,265.1,146.1z"/>
<path class="st0" d="M312,145.6l-11.3-19.2l-4.9,5.5v13.7h-11.5V82.7h11.5v35.7l15.3-18.8H325l-16.4,18.6l17.7,27.5H312z"/>
<path class="st0" d="M335.8,126.1c0,5.9,3.6,10.2,10.1,10.2c5,0,7.5-1.4,10.4-4.3l7,6.8c-4.7,4.7-9.2,7.2-17.5,7.2
	c-10.9,0-21.3-4.9-21.3-23.6c0-15,8.1-23.5,20.1-23.5c12.8,0,20.1,9.4,20.1,22v5.1H335.8z M352.3,113.3c-1.2-2.7-3.8-4.8-7.7-4.8
	s-6.5,2-7.7,4.8c-0.7,1.7-1,2.9-1.1,4.9h17.5C353.2,116.2,353,115,352.3,113.3z"/>
<path class="st0" d="M395.1,112.1c-1.8-1.8-3.3-2.7-6.1-2.7c-3.5,0-7.4,2.7-7.4,8.5v27.7h-11.5v-46h11.2v4.4
	c2.2-2.7,6.6-4.9,11.6-4.9c4.5,0,7.7,1.1,10.9,4.3L395.1,112.1z"/>
<path class="st1" d="M121.5,150.7c-0.7,0.3-1.6,0.2-2.5,0.3c-0.8,0-1.9,0-2.4-0.4c-0.3-0.2-0.3-0.7-0.3-1c0-0.3,0.1-0.8,0.1-1.1
	c0.1-0.4,0.2-1,0-1.3c-0.2-0.3-0.9-0.2-1.3-0.4c-0.4-0.2-0.5-0.8-0.6-1.4c0-0.2-0.2-0.4-0.2-0.5c-0.1-0.9,0.2-2.2,0.4-3.1
	c0.2-1,0.5-1.9,0.7-2.9c0.3-1.4,0.3-3,0.2-4.5c0-0.8-0.2-1.4,0-2c0.1-0.6,0.4-1.1,0.5-1.7c0-0.2,0-0.4,0-0.6c0-0.2,0.1-0.3,0.1-0.5
	c0-0.4-0.1-0.9-0.1-1.4c-0.1-1.3,0-3.2,0.1-4.3c0-0.4,0.2-0.8-0.1-1c-1.4,0-2.6,0.2-3.9,0.4c-3.4,0.4-7.8,0.5-11.1-0.2
	c-0.3-0.1-0.6-0.1-0.9-0.1c-2.4-0.5-4.5-1.6-6.2-2.9c-0.3-0.2-0.6-0.4-0.9-0.7c-0.3-0.2-0.6-0.5-0.9-0.7c-1.3-0.6-3.1,0.1-3.7,1
	c-0.2,0.3-0.4,0.8-0.6,1.2c-0.2,0.4-0.4,0.8-0.5,1.2c-0.9,2-1.9,4-2.8,6c-0.5,1.2-1.1,2.5-1.5,3.8c-0.8,2.8-0.1,6.5,0.6,9.2
	c0.1,0.2,0.2,0.5,0.3,0.8c0.2,0.6,0.6,1.5,1.1,1.9c0.3,0.2,0.7,0.4,1,0.6c0.4,0.3,0.6,0.9,0.9,1.5c0.1,0.2,0.3,0.5,0.4,0.8
	c0.3,0.6,0.5,1.1-0.2,1.5c-0.5,0.3-1.3,0.3-2,0.4c-0.3,0.1-0.2,0.5-0.4,0.7c-0.1,0.1-0.6,0.3-0.8,0.4c-0.9,0.3-2.5,0.3-3.2,0
	c-0.4-0.1-0.8-0.4-0.9-0.7c-0.2-0.6,0.3-1.3-0.1-1.7c-0.2-0.2-0.6-0.2-0.9-0.3c-0.5-0.2-0.9-0.7-1.2-1.2c-0.5-1.4-0.2-3.5-0.3-5.2
	c0-0.5-0.1-1-0.1-1.6c0-1-0.3-2-0.4-3c-0.1-0.5-0.2-0.9-0.3-1.3c-0.2-0.7-0.3-1.5-0.5-2.2c-0.2-0.8-0.2-1.6,0-2.2
	c0.1-0.2,0.3-0.4,0.4-0.6c0.2-0.4,0.2-0.8,0.2-1.2c-0.1-0.2-0.6,0-0.7-0.2c-0.3-2.2-0.6-4.3-0.8-6.6c-0.1-0.8-0.1-1.5-0.1-2.3
	c-0.1-1.5,0-3.1-0.2-4.6c-0.1-0.7-0.2-1.4-0.3-2.1c-0.3-2-0.8-4.5-0.4-6.6c0.3-1.3,0.7-2.4,1.5-3.4c0.5-0.7,1.1-1.3,1.7-2
	c0.6-0.6,1.3-1.2,2-1.7c0.5-0.3,1-0.7,1.5-1c1.1-0.5,2.6-1,4.2-1.1c1.6-0.1,3.4-0.1,4.9,0.2c1.5,0.3,3,0.5,4.5,0.8
	c1.4,0.3,2.8,0.7,4.2,1c0.2,0,0.3,0.2,0.5,0.2c0.4,0.1,0.9,0.1,1.4,0.3c1.3,0.3,2.9,0.5,4.5,0.5c1.7,0,3.2,0,4.6-0.4
	c0.2-0.1,0.4-0.2,0.6-0.2c0.2-0.1,0.5-0.1,0.7-0.1c0.1,0,0.3-0.2,0.4-0.3c0.8-0.4,1.5-0.8,2.2-1.3c0.6-0.4,1-0.7,1.8-1
	c0.3-0.1,0.7-0.3,1-0.4c0.7-0.2,1.5-0.4,2-0.8c0.9-0.5,1.5-1.3,2.2-2c0.7-0.6,1.5-1.3,2.3-1.9c1.6-1.3,3.2-2.4,4.7-3.6
	c0.8-0.6,1.6-1.2,2.5-1.7c1.7-1,3.5-2.1,6-2.3c1-0.1,2-0.1,3,0c0.3,0,0.6,0.2,0.9,0.1c0.3-0.1,0.5-0.5,0.6-0.8
	c0.4-0.7,0.6-1.1,1-1.9c0.2-0.5,0.1-1,0.6-1c0.5,0,0.4,1.3,0.4,1.8c0,0.6-0.1,1.4,0,1.8c0.1,0.3,0.5,0.7,0.9,0.7
	c0.3,0,0.5-0.2,0.7-0.4c0.3-0.2,0.5-0.2,0.7-0.4c0.4-0.3,0.9-0.8,1.3-1.2c0.3-0.3,0.9-1.2,1.4-1.1c1,0.1,0,1.6-0.2,2
	c-0.5,1.1-1,2-1.6,3c-0.2,0.4-0.8,1-0.8,1.5c0,0.3,0.3,0.5,0.4,0.9c0.1,0.2,0.1,0.3,0.2,0.5c0.3,0.8,0.6,1.9,0.9,2.8
	c0.2,0.8,0.4,1.6,0.7,2.3c0.3,0.7,0.7,1.4,1,2.2c0.1,0.2,0.1,0.4,0.2,0.6c0.6,1.6,1.2,3.4,2,5c0.3,0.6,0.7,1.4,0.7,2.3
	c0,1-0.5,1.5-1,2.3c-0.2,0.4-0.6,1-1,1.1c-0.3,0.1-0.6,0-0.9,0c-0.4,0.1-0.7,0.3-1,0.3c-0.9,0.1-1.8-0.6-2-1.3
	c-0.1-0.2,0-0.5-0.1-0.8c-0.2-1.1-0.8-1.6-1.5-2.4c-0.5-0.5-0.9-0.8-1.5-1.1c-0.9-0.5-1.8-0.7-2.8-1.2c-0.3-0.2-0.8-0.4-1.1-0.3
	c-0.5,0.1-1,0.9-1.4,1.4c-2.4,3.2-4.6,6.5-6.9,9.6c-1.6,2.1-3.2,4.2-4.5,6.5c-0.3,0.6-0.5,1.3-0.8,2c-0.2,0.7-0.4,1.4-0.6,2.2
	c-0.9,2.6-1.2,5.8-2,8.5c-0.1,0.3-0.1,0.6-0.2,0.9c-0.4,1.4-0.8,3-1.2,4.5c-0.3,1.1-0.4,2.6-0.5,4c0,1.4-0.1,3.3,0.4,4.1
	c0.3,0.5,1.2,0.6,1.5,1.1c0.2,0.3,0.4,1,0.7,1.4c0.2,0.3,0.7,0.9,0.6,1.4c0,0.3-0.3,0.6-0.6,0.7c-0.3,0.1-0.7,0.1-1,0.2
	C121.7,150.1,121.8,150.5,121.5,150.7z"/>
<path class="st2" d="M455.4,99c-5.7,0-9.9,1.8-13.8,5.8c-2.9-4-7.1-5.8-12.2-5.8c-4.2,0-8.5,1.7-11.5,4.8v-4.2h-11.2v46h11.5v-27.8
	c0-6.3,4.1-8.4,7.7-8.4c3.6,0,7.6,2.1,7.6,8.4v27.8H445v-28.1c0-6,4.2-8.1,7.7-8.1c3.6,0,7.6,2.1,7.6,8.4v27.8h11.5v-29.4
	c0-5-1.3-9.4-5-13.1C464.1,100.5,460,99,455.4,99z"/>
<path class="st2" d="M505.3,127.4c0,6.3-4.1,8.4-7.7,8.4c-3.6,0-7.6-2.1-7.6-8.4V99.5h-11.5V129c0,5,1,9.4,4.7,13.1
	c2.6,2.6,6.3,4.1,10.9,4.1c4.2,0,8.5-1.6,11.5-4.8v4.2h11.2v-46h-11.5V127.4z"/>
<path class="st2" d="M535.6,131.7v-49h-11.5v49.7c0,6.5,4,13.2,13.4,13.2h6.5v-9.7h-4.4C536.7,135.9,535.6,134.5,535.6,131.7z"/>
<path class="st2" d="M586.2,121c0-12.6-7.2-22-20.1-22c-11.9,0-20.1,8.5-20.1,23.5c0,18.6,10.4,23.6,21.3,23.6
	c8.3,0,12.8-2.6,17.5-7.2l-7-6.8c-2.9,2.9-5.4,4.3-10.4,4.3c-6.5,0-10.1-4.3-10.1-10.2h28.8V121z M557.4,118.3
	c0.1-2,0.4-3.3,1.1-4.9c1.2-2.7,3.8-4.8,7.7-4.8c3.9,0,6.4,2,7.7,4.8c0.7,1.7,1,2.9,1.1,4.9H557.4z"/>
</svg>
