<svg xmlns="http://www.w3.org/2000/svg" xmlns:svg="http://www.w3.org/2000/svg" xmlns:xlink="http://www.w3.org/1999/xlink" id="svg8" x="0" y="0" enable-background="new 0 0 481 159.2" version="1.1" viewBox="0 0 481 159.2" xml:space="preserve"><style type="text/css">.st0{fill:#3399d4}</style><g><g><g id="path4469-2_14_"><path d="M39.6,159.2L68.3,78c-25.6,3.4-48.5,14-65.7,29.3 C7.9,129,21.4,147.4,39.6,159.2L39.6,159.2z" class="st0"/></g><g><g id="path4471-8_14_"><path d="M133.4,159.2c18.2-11.8,31.7-30.3,37.1-51.9 c-17.3-15.3-40.1-25.8-65.7-29.3L133.4,159.2z" class="st0"/></g><g id="path4473-9_14_"><path d="M173,90.6c0.1-1.4,0.1-2.7,0.1-4.1C173.1,38.8,134.2,0,86.5,0 S0,38.8,0,86.5c0,1.4,0,2.7,0.1,4.1C24,72.4,54.4,62.4,86.5,62.4C118.6,62.4,149,72.4,173,90.6L173,90.6z" class="st0"/></g></g></g><g><path d="M281.4,129.2c-6.6,8.5-15.9,12.6-27.7,12.6c-20.1,0-37.7-11.2-37.7-43.4V33.6h24.2V94 c0,17.4,7.4,24.6,19.9,24.6c12.8,0,21.3-6.6,21.3-24.2V33.6h24.2v105.7h-24.2V129.2z" class="st0"/><path d="M326.3,33.6h24.2v11c4.1-8.7,11.2-13.4,21.7-13.4c7.9,0,14.3,2.7,19.7,7.2l-3.5,22.1c-4.3-3.1-9.9-5.6-18-5.6 c-9.3,0-19.9,5.2-19.9,25.2v59.2h-24.2V33.6z" class="st0"/><path d="M457.4,130.8c-5.2,5.4-14.1,11-28.1,11c-21.7,0-38.3-12-38.3-35.2c0-24.4,20.5-35,41.4-35 c9.9,0,18.4,1.9,25,5.6v-5.6c0-13.9-6.8-19.2-20.7-19.2c-12.8,0-22.6,3.7-31.4,9.9l-7.4-19.7c9.5-6.4,23.6-11.6,41.4-11.6 c18.6,0,41.8,4.6,41.8,40.1v68.1h-23.6V130.8z M457.4,110.4V96.7c-5.6-2.7-13.2-4.3-21.1-4.3c-12,0-21.7,4.1-21.7,14.3 c0,8.3,6.6,13.9,19.2,13.9C444.2,120.5,452.1,115.9,457.4,110.4z" class="st0"/></g></g></svg>